<svg width="354" height="237" viewBox="0 0 354 237" fill="none" xmlns="http://www.w3.org/2000/svg">
<g filter="url(#filter0_ddd_161_3256)">
<rect x="3" y="2.22253" width="335.045" height="230" rx="4" fill="#F26D78"/>
</g>
<path d="M20.496 82.8777C20.496 82.4017 20.7 81.9937 21.142 81.6197L29.268 74.4457C32.906 71.1477 34.232 69.3797 34.232 66.9657C34.232 64.1777 32.022 62.4097 29.438 62.4097C26.888 62.4097 25.256 63.5997 23.522 65.8777C23.284 66.1497 22.978 66.3537 22.536 66.3537C21.856 66.3537 21.312 65.8097 21.312 65.1297C21.312 64.8577 21.414 64.6197 21.584 64.3817C23.59 61.6617 25.698 59.9957 29.642 59.9957C33.926 59.9957 37.02 62.8517 37.02 66.7277V66.7957C37.02 70.2637 35.184 72.4057 31.002 76.0437L24.644 81.6877H36.17C36.85 81.6877 37.428 82.2317 37.428 82.9117C37.428 83.5917 36.85 84.1357 36.17 84.1357H21.856C21.074 84.1357 20.496 83.6597 20.496 82.8777Z" fill="black" fill-opacity="0.87"/>
<path d="M24.8206 40.3905C21.9926 40.3905 19.9066 38.1645 19.9066 35.3505V35.3225C19.9066 32.5505 21.9926 30.2545 24.8626 30.2545C26.4446 30.2545 27.4526 30.7585 28.3626 31.5285C28.4746 31.6265 28.5866 31.7665 28.5866 31.9765C28.5866 32.2705 28.3206 32.5225 28.0266 32.5225C27.8726 32.5225 27.7606 32.4525 27.6626 32.3965C26.8926 31.7245 26.0666 31.2765 24.8486 31.2765C22.6786 31.2765 21.0546 33.0405 21.0546 35.2945V35.3225C21.0546 37.5905 22.6786 39.3685 24.8486 39.3685C26.0806 39.3685 26.9206 38.9625 27.7606 38.1785C27.8586 38.0805 27.9846 38.0245 28.1106 38.0245C28.3906 38.0245 28.6426 38.2765 28.6426 38.5565C28.6426 38.7245 28.5586 38.8505 28.4606 38.9485C27.4946 39.8445 26.4306 40.3905 24.8206 40.3905ZM32.9005 40.3765C31.5565 40.3765 30.1985 39.6205 30.1985 38.1225V38.0945C30.1985 36.5825 31.4585 35.7565 33.2925 35.7565C34.2305 35.7565 34.8605 35.8825 35.5185 36.0645V35.8125C35.5185 34.5105 34.7205 33.8385 33.3625 33.8385C32.6345 33.8385 32.0325 34.0065 31.4865 34.2445C31.4165 34.2725 31.3465 34.2865 31.2905 34.2865C31.0245 34.2865 30.8145 34.0905 30.8145 33.8245C30.8145 33.6005 30.9545 33.4325 31.1085 33.3765C31.8225 33.0545 32.5365 32.8865 33.4745 32.8865C34.4965 32.8865 35.2805 33.1525 35.8125 33.6845C36.3025 34.1745 36.5545 34.8885 36.5545 35.7985V39.7605C36.5545 40.0825 36.3305 40.2925 36.0365 40.2925C35.7145 40.2925 35.5185 40.0685 35.5185 39.7885V39.1305C35.0145 39.7885 34.1885 40.3765 32.9005 40.3765ZM33.1105 39.5225C34.4545 39.5225 35.5325 38.7105 35.5325 37.5625V36.8625C34.9865 36.7085 34.3005 36.5545 33.4045 36.5545C32.0465 36.5545 31.2905 37.1425 31.2905 38.0525V38.0805C31.2905 38.9905 32.1445 39.5225 33.1105 39.5225ZM39.1019 39.7465V33.4605C39.1019 33.1665 39.3399 32.9145 39.6339 32.9145C39.9559 32.9145 40.1799 33.1385 40.1799 33.4605V34.2445C40.6699 33.4605 41.4119 32.8305 42.6579 32.8305C44.3939 32.8305 45.4299 34.0065 45.4299 35.7285V39.7465C45.4299 40.0685 45.1919 40.2925 44.8979 40.2925C44.5759 40.2925 44.3519 40.0685 44.3519 39.7465V35.9945C44.3519 34.6505 43.6379 33.8105 42.3499 33.8105C41.1039 33.8105 40.1799 34.7205 40.1799 36.0785V39.7465C40.1799 40.0685 39.9699 40.2925 39.6479 40.2925C39.3259 40.2925 39.1019 40.0685 39.1019 39.7465ZM51.2409 40.3905C49.1129 40.3905 47.5309 38.6685 47.5309 36.6385V36.6105C47.5309 34.5525 49.1129 32.8305 51.2409 32.8305C52.4589 32.8305 53.2429 33.2785 53.9009 33.8805C53.9989 33.9505 54.0689 34.0905 54.0689 34.2585C54.0689 34.5525 53.8309 34.7765 53.5509 34.7765C53.4249 34.7765 53.2989 34.7345 53.2009 34.6505C52.6829 34.1605 52.1089 33.7825 51.2269 33.7825C49.7569 33.7825 48.6369 35.0145 48.6369 36.5825V36.6105C48.6369 38.1785 49.7849 39.4245 51.2969 39.4245C52.1369 39.4245 52.7669 39.0465 53.3129 38.5425C53.3829 38.4725 53.4669 38.4025 53.6209 38.4025C53.8869 38.4025 54.1109 38.6265 54.1109 38.8925C54.1109 39.0185 54.0689 39.1305 53.9709 39.2285C53.2849 39.9145 52.4729 40.3905 51.2409 40.3905ZM56.6659 36.2045H61.3279C61.2159 34.9025 60.4739 33.7405 59.0179 33.7405C57.7439 33.7405 56.8199 34.8045 56.6659 36.2045ZM61.9159 39.2985C61.2299 39.9565 60.4179 40.3905 59.1859 40.3905C57.2119 40.3905 55.5739 38.8645 55.5739 36.6245V36.5965C55.5739 34.5105 57.0299 32.8305 59.0459 32.8305C61.1879 32.8305 62.4059 34.5805 62.4059 36.4985C62.4059 36.7925 62.1679 37.0025 61.9019 37.0025H56.6659C56.8199 38.5705 57.9259 39.4525 59.2139 39.4525C60.1099 39.4525 60.7539 39.1025 61.2999 38.6125C61.3979 38.5285 61.5099 38.4865 61.6079 38.4865C61.8739 38.4865 62.0839 38.6825 62.0839 38.9485C62.0839 39.0885 62.0279 39.2005 61.9159 39.2985ZM64.655 39.7465V30.4785C64.655 30.1845 64.893 29.9325 65.187 29.9325C65.509 29.9325 65.733 30.1845 65.733 30.4785V39.7465C65.733 40.0685 65.523 40.2925 65.201 40.2925C64.879 40.2925 64.655 40.0685 64.655 39.7465ZM70.6408 40.3765C69.2968 40.3765 67.9388 39.6205 67.9388 38.1225V38.0945C67.9388 36.5825 69.1988 35.7565 71.0328 35.7565C71.9708 35.7565 72.6008 35.8825 73.2588 36.0645V35.8125C73.2588 34.5105 72.4608 33.8385 71.1028 33.8385C70.3748 33.8385 69.7728 34.0065 69.2268 34.2445C69.1568 34.2725 69.0868 34.2865 69.0308 34.2865C68.7648 34.2865 68.5548 34.0905 68.5548 33.8245C68.5548 33.6005 68.6948 33.4325 68.8488 33.3765C69.5628 33.0545 70.2768 32.8865 71.2148 32.8865C72.2368 32.8865 73.0208 33.1525 73.5528 33.6845C74.0428 34.1745 74.2948 34.8885 74.2948 35.7985V39.7605C74.2948 40.0825 74.0708 40.2925 73.7768 40.2925C73.4548 40.2925 73.2588 40.0685 73.2588 39.7885V39.1305C72.7548 39.7885 71.9288 40.3765 70.6408 40.3765ZM70.8508 39.5225C72.1948 39.5225 73.2728 38.7105 73.2728 37.5625V36.8625C72.7268 36.7085 72.0408 36.5545 71.1448 36.5545C69.7868 36.5545 69.0308 37.1425 69.0308 38.0525V38.0805C69.0308 38.9905 69.8848 39.5225 70.8508 39.5225ZM76.8422 39.7465V33.4605C76.8422 33.1665 77.0802 32.9145 77.3742 32.9145C77.6962 32.9145 77.9202 33.1385 77.9202 33.4605V34.8185C78.4382 33.6285 79.5162 32.8865 80.4122 32.8865C80.7342 32.8865 80.9442 33.1105 80.9442 33.4325C80.9442 33.7265 80.7482 33.9365 80.4682 33.9785C79.0682 34.1605 77.9202 35.1825 77.9202 37.2825V39.7465C77.9202 40.0405 77.7102 40.2925 77.3882 40.2925C77.0662 40.2925 76.8422 40.0685 76.8422 39.7465ZM85.7556 40.3905C83.5856 40.3905 82.0036 38.6825 82.0036 36.6385V36.6105C82.0036 34.5525 83.5856 32.8305 85.7836 32.8305C87.9676 32.8305 89.5496 34.5385 89.5496 36.5825V36.6105C89.5496 38.6685 87.9396 40.3905 85.7556 40.3905ZM85.7836 39.4245C87.3516 39.4245 88.4436 38.1505 88.4436 36.6385V36.6105C88.4436 35.0565 87.2816 33.7825 85.7556 33.7825C84.1876 33.7825 83.1096 35.0565 83.1096 36.5825V36.6105C83.1096 38.1645 84.2576 39.4245 85.7836 39.4245ZM91.7523 39.7465V33.4605C91.7523 33.1665 91.9903 32.9145 92.2843 32.9145C92.6063 32.9145 92.8303 33.1385 92.8303 33.4605V34.2445C93.3203 33.4605 94.0623 32.8305 95.3083 32.8305C97.0443 32.8305 98.0803 34.0065 98.0803 35.7285V39.7465C98.0803 40.0685 97.8423 40.2925 97.5483 40.2925C97.2263 40.2925 97.0023 40.0685 97.0023 39.7465V35.9945C97.0023 34.6505 96.2883 33.8105 95.0003 33.8105C93.7543 33.8105 92.8303 34.7205 92.8303 36.0785V39.7465C92.8303 40.0685 92.6203 40.2925 92.2983 40.2925C91.9763 40.2925 91.7523 40.0685 91.7523 39.7465ZM107.471 40.3625C106.519 40.3625 105.469 40.0125 104.685 39.4525C104.587 39.3825 104.489 39.2425 104.489 39.0605C104.489 38.7945 104.699 38.5985 104.965 38.5985C105.063 38.5985 105.161 38.6265 105.231 38.6825C105.987 39.2005 106.757 39.4525 107.527 39.4525C108.409 39.4525 109.025 39.0185 109.025 38.3045V38.2765C109.025 37.5625 108.171 37.2685 107.219 37.0025C106.099 36.6665 104.825 36.3025 104.825 34.9585V34.9305C104.825 33.6845 105.861 32.8585 107.289 32.8585C108.073 32.8585 108.885 33.0965 109.599 33.4745C109.753 33.5725 109.865 33.7125 109.865 33.9225C109.865 34.1885 109.655 34.3845 109.389 34.3845C109.305 34.3845 109.221 34.3705 109.151 34.3285C108.535 33.9785 107.877 33.7685 107.261 33.7685C106.407 33.7685 105.861 34.2165 105.861 34.8185V34.8465C105.861 35.5325 106.757 35.7985 107.723 36.0925C108.843 36.4285 110.047 36.8625 110.047 38.1645V38.1925C110.047 39.5645 108.913 40.3625 107.471 40.3625ZM118.501 33.4605V39.7465C118.501 40.0405 118.291 40.2925 117.969 40.2925C117.675 40.2925 117.437 40.0685 117.437 39.7465V38.9625C116.947 39.7465 116.205 40.3765 114.959 40.3765C113.223 40.3765 112.187 39.2005 112.187 37.4785V33.4605C112.187 33.1385 112.397 32.9145 112.719 32.9145C113.013 32.9145 113.265 33.1385 113.265 33.4605V37.2125C113.265 38.5565 113.979 39.3965 115.267 39.3965C116.499 39.3965 117.437 38.4865 117.437 37.1285V33.4605C117.437 33.1385 117.647 32.9145 117.969 32.9145C118.263 32.9145 118.501 33.1385 118.501 33.4605ZM128.885 40.3905C126.757 40.3905 125.175 38.6685 125.175 36.6385V36.6105C125.175 34.5525 126.757 32.8305 128.885 32.8305C130.103 32.8305 130.887 33.2785 131.545 33.8805C131.643 33.9505 131.713 34.0905 131.713 34.2585C131.713 34.5525 131.475 34.7765 131.195 34.7765C131.069 34.7765 130.943 34.7345 130.845 34.6505C130.327 34.1605 129.753 33.7825 128.871 33.7825C127.401 33.7825 126.281 35.0145 126.281 36.5825V36.6105C126.281 38.1785 127.429 39.4245 128.941 39.4245C129.781 39.4245 130.411 39.0465 130.957 38.5425C131.027 38.4725 131.111 38.4025 131.265 38.4025C131.531 38.4025 131.755 38.6265 131.755 38.8925C131.755 39.0185 131.713 39.1305 131.615 39.2285C130.929 39.9145 130.117 40.3905 128.885 40.3905ZM140.073 33.4605V39.7465C140.073 40.0405 139.863 40.2925 139.541 40.2925C139.247 40.2925 139.009 40.0685 139.009 39.7465V38.9625C138.519 39.7465 137.777 40.3765 136.531 40.3765C134.795 40.3765 133.759 39.2005 133.759 37.4785V33.4605C133.759 33.1385 133.969 32.9145 134.291 32.9145C134.585 32.9145 134.837 33.1385 134.837 33.4605V37.2125C134.837 38.5565 135.551 39.3965 136.839 39.3965C138.071 39.3965 139.009 38.4865 139.009 37.1285V33.4605C139.009 33.1385 139.219 32.9145 139.541 32.9145C139.835 32.9145 140.073 33.1385 140.073 33.4605ZM143.392 36.2045H148.054C147.942 34.9025 147.2 33.7405 145.744 33.7405C144.47 33.7405 143.546 34.8045 143.392 36.2045ZM148.642 39.2985C147.956 39.9565 147.144 40.3905 145.912 40.3905C143.938 40.3905 142.3 38.8645 142.3 36.6245V36.5965C142.3 34.5105 143.756 32.8305 145.772 32.8305C147.914 32.8305 149.132 34.5805 149.132 36.4985C149.132 36.7925 148.894 37.0025 148.628 37.0025H143.392C143.546 38.5705 144.652 39.4525 145.94 39.4525C146.836 39.4525 147.48 39.1025 148.026 38.6125C148.124 38.5285 148.236 38.4865 148.334 38.4865C148.6 38.4865 148.81 38.6825 148.81 38.9485C148.81 39.0885 148.754 39.2005 148.642 39.2985ZM151.284 39.7465V33.4605C151.284 33.1665 151.522 32.9145 151.816 32.9145C152.138 32.9145 152.362 33.1385 152.362 33.4605V34.2445C152.852 33.4605 153.594 32.8305 154.84 32.8305C156.576 32.8305 157.612 34.0065 157.612 35.7285V39.7465C157.612 40.0685 157.374 40.2925 157.08 40.2925C156.758 40.2925 156.534 40.0685 156.534 39.7465V35.9945C156.534 34.6505 155.82 33.8105 154.532 33.8105C153.286 33.8105 152.362 34.7205 152.362 36.0785V39.7465C152.362 40.0685 152.152 40.2925 151.83 40.2925C151.508 40.2925 151.284 40.0685 151.284 39.7465ZM162.583 40.3485C161.407 40.3485 160.539 39.7745 160.539 38.3045V33.9365H159.951C159.685 33.9365 159.475 33.7265 159.475 33.4605C159.475 33.1945 159.685 32.9845 159.951 32.9845H160.539V31.2765C160.539 30.9825 160.749 30.7305 161.071 30.7305C161.365 30.7305 161.617 30.9825 161.617 31.2765V32.9845H163.493C163.759 32.9845 163.983 33.1945 163.983 33.4605C163.983 33.7265 163.759 33.9365 163.493 33.9365H161.617V38.1645C161.617 39.0605 162.107 39.3685 162.835 39.3685C163.213 39.3685 163.395 39.2705 163.493 39.2705C163.759 39.2705 163.955 39.4665 163.955 39.7325C163.955 39.9425 163.857 40.0825 163.647 40.1525C163.325 40.2785 163.017 40.3485 162.583 40.3485ZM168.227 40.3765C166.883 40.3765 165.525 39.6205 165.525 38.1225V38.0945C165.525 36.5825 166.785 35.7565 168.619 35.7565C169.557 35.7565 170.187 35.8825 170.845 36.0645V35.8125C170.845 34.5105 170.047 33.8385 168.689 33.8385C167.961 33.8385 167.359 34.0065 166.813 34.2445C166.743 34.2725 166.673 34.2865 166.617 34.2865C166.351 34.2865 166.141 34.0905 166.141 33.8245C166.141 33.6005 166.281 33.4325 166.435 33.3765C167.149 33.0545 167.863 32.8865 168.801 32.8865C169.823 32.8865 170.607 33.1525 171.139 33.6845C171.629 34.1745 171.881 34.8885 171.881 35.7985V39.7605C171.881 40.0825 171.657 40.2925 171.363 40.2925C171.041 40.2925 170.845 40.0685 170.845 39.7885V39.1305C170.341 39.7885 169.515 40.3765 168.227 40.3765ZM168.437 39.5225C169.781 39.5225 170.859 38.7105 170.859 37.5625V36.8625C170.313 36.7085 169.627 36.5545 168.731 36.5545C167.373 36.5545 166.617 37.1425 166.617 38.0525V38.0805C166.617 38.9905 167.471 39.5225 168.437 39.5225Z" fill="black" fill-opacity="0.6"/>
<path fill-rule="evenodd" clip-rule="evenodd" d="M192.142 160.816C192.142 159.713 193.037 158.819 194.14 158.819H225.522C226.625 158.819 227.52 159.713 227.52 160.816V212.648H192.142V160.816ZM34.9091 206.082C34.9091 204.979 35.8034 204.084 36.9067 204.084H68.2889C69.3921 204.084 70.2865 204.979 70.2865 206.082V212.648H34.9091V206.082ZM115.523 190.627C114.42 190.627 113.526 191.521 113.526 192.624V212.648H148.903V192.624C148.903 191.521 148.009 190.627 146.906 190.627H115.523ZM74.2175 199.965C74.2175 198.862 75.1119 197.967 76.2151 197.967H107.597C108.701 197.967 109.595 198.862 109.595 199.965V212.648H74.2175V199.965ZM233.448 171.053C232.345 171.053 231.451 171.947 231.451 173.05V212.648H266.828V173.05C266.828 171.947 265.934 171.053 264.83 171.053H233.448ZM270.759 185.284C270.759 184.181 271.653 183.286 272.756 183.286H304.139C305.242 183.286 306.136 184.181 306.136 185.284V212.648H270.759V185.284ZM154.832 183.286C153.728 183.286 152.834 184.181 152.834 185.284V212.648H188.212V185.284C188.212 184.181 187.317 183.286 186.214 183.286H154.832Z" fill="#333333"/>
<defs>
<filter id="filter0_ddd_161_3256" x="0" y="0.222534" width="341.045" height="236" filterUnits="userSpaceOnUse" color-interpolation-filters="sRGB">
<feFlood flood-opacity="0" result="BackgroundImageFix"/>
<feColorMatrix in="SourceAlpha" type="matrix" values="0 0 0 0 0 0 0 0 0 0 0 0 0 0 0 0 0 0 127 0" result="hardAlpha"/>
<feOffset dy="1"/>
<feGaussianBlur stdDeviation="1.5"/>
<feColorMatrix type="matrix" values="0 0 0 0 0 0 0 0 0 0 0 0 0 0 0 0 0 0 0.2 0"/>
<feBlend mode="normal" in2="BackgroundImageFix" result="effect1_dropShadow_161_3256"/>
<feColorMatrix in="SourceAlpha" type="matrix" values="0 0 0 0 0 0 0 0 0 0 0 0 0 0 0 0 0 0 127 0" result="hardAlpha"/>
<feOffset dy="2"/>
<feGaussianBlur stdDeviation="0.5"/>
<feColorMatrix type="matrix" values="0 0 0 0 0 0 0 0 0 0 0 0 0 0 0 0 0 0 0.12 0"/>
<feBlend mode="normal" in2="effect1_dropShadow_161_3256" result="effect2_dropShadow_161_3256"/>
<feColorMatrix in="SourceAlpha" type="matrix" values="0 0 0 0 0 0 0 0 0 0 0 0 0 0 0 0 0 0 127 0" result="hardAlpha"/>
<feOffset dy="1"/>
<feGaussianBlur stdDeviation="0.5"/>
<feColorMatrix type="matrix" values="0 0 0 0 0 0 0 0 0 0 0 0 0 0 0 0 0 0 0.14 0"/>
<feBlend mode="normal" in2="effect2_dropShadow_161_3256" result="effect3_dropShadow_161_3256"/>
<feBlend mode="normal" in="SourceGraphic" in2="effect3_dropShadow_161_3256" result="shape"/>
</filter>
</defs>
</svg>
