<svg width="343" height="236" viewBox="0 0 343 236" fill="none" xmlns="http://www.w3.org/2000/svg">
<rect x="3" y="2" width="337" height="230" fill="#A9D9D9"/>
<g filter="url(#filter0_ddd_161_3241)">
<rect x="3" y="2" width="337" height="230" rx="4" fill="#A9D9D9"/>
</g>
<path d="M29.336 84.3212C26.208 84.3212 23.522 82.9612 21.584 81.2272C21.21 80.9212 21.04 80.5472 21.04 80.1052C21.04 79.4592 21.618 78.8472 22.332 78.8472C22.672 78.8472 22.978 78.9492 23.25 79.1872C25.154 80.9212 27.16 81.8732 29.37 81.8732C32.702 81.8732 35.082 79.6972 35.082 76.6032V76.5352C35.082 73.5432 32.6 71.5372 29.166 71.5372C26.344 71.5372 24.984 72.6932 24.338 72.6932C23.828 72.6932 23.488 72.4892 22.978 72.1832C22.536 71.8772 22.366 71.3672 22.4 70.7212L22.944 61.4052C22.978 60.5892 23.556 60.1132 24.236 60.1132H35.66C36.34 60.1132 36.884 60.6572 36.884 61.3712C36.884 62.0512 36.34 62.5952 35.66 62.5952H25.392L24.882 70.2112C26.276 69.5652 27.568 69.1572 29.574 69.1572C34.198 69.1572 37.802 71.8772 37.802 76.4332V76.5012C37.802 81.0912 34.266 84.3212 29.336 84.3212ZM45.9044 82.7232V62.6292L42.5724 63.7172C42.3684 63.7852 42.1644 63.8192 41.9944 63.8192C41.3484 63.8192 40.8384 63.3092 40.8384 62.6632C40.8384 62.1192 41.1444 61.7452 41.7904 61.5072L45.7004 60.1472C46.2444 59.9772 46.7204 59.8412 47.1624 59.8412H47.2304C48.0124 59.8412 48.5564 60.4532 48.5564 61.1672V82.7232C48.5564 83.5052 48.0124 84.0832 47.2304 84.0832C46.5164 84.0832 45.9044 83.5052 45.9044 82.7232ZM57.3419 82.8252C57.3419 82.5872 57.4439 82.2472 57.5459 82.0092L67.4059 62.5612H55.4039C54.7239 62.5612 54.1459 62.0512 54.1459 61.3372C54.1459 60.6572 54.7239 60.1132 55.4039 60.1132H69.3439C70.1259 60.1132 70.6359 60.5212 70.6359 61.3032C70.6359 61.6772 70.4999 62.1192 70.2619 62.4932L59.9939 83.1312C59.6879 83.7772 59.2799 84.0832 58.7019 84.0832C57.9879 84.0832 57.3419 83.6072 57.3419 82.8252Z" fill="black" fill-opacity="0.87"/>
<path d="M40.4012 36.5224C37.9792 36.5224 36.3272 35.0384 36.3272 32.2664V27.0584C36.3272 26.7364 36.5792 26.4984 36.8732 26.4984C37.1952 26.4984 37.4332 26.7364 37.4332 27.0584V32.1964C37.4332 34.3244 38.5672 35.5004 40.4292 35.5004C42.2352 35.5004 43.3832 34.4084 43.3832 32.2664V27.0584C43.3832 26.7364 43.6212 26.4984 43.9432 26.4984C44.2372 26.4984 44.4892 26.7364 44.4892 27.0584V32.1824C44.4892 35.0524 42.8512 36.5224 40.4012 36.5224ZM49.5663 36.5084C48.6143 36.5084 47.5643 36.1584 46.7803 35.5984C46.6823 35.5284 46.5843 35.3884 46.5843 35.2064C46.5843 34.9404 46.7943 34.7444 47.0603 34.7444C47.1583 34.7444 47.2563 34.7724 47.3263 34.8284C48.0823 35.3464 48.8523 35.5984 49.6223 35.5984C50.5043 35.5984 51.1203 35.1644 51.1203 34.4504V34.4224C51.1203 33.7084 50.2663 33.4144 49.3143 33.1484C48.1943 32.8124 46.9203 32.4484 46.9203 31.1044V31.0764C46.9203 29.8304 47.9563 29.0044 49.3843 29.0044C50.1683 29.0044 50.9803 29.2424 51.6943 29.6204C51.8483 29.7184 51.9603 29.8584 51.9603 30.0684C51.9603 30.3344 51.7503 30.5304 51.4843 30.5304C51.4003 30.5304 51.3163 30.5164 51.2463 30.4744C50.6303 30.1244 49.9723 29.9144 49.3563 29.9144C48.5023 29.9144 47.9563 30.3624 47.9563 30.9644V30.9924C47.9563 31.6784 48.8523 31.9444 49.8183 32.2384C50.9383 32.5744 52.1423 33.0084 52.1423 34.3104V34.3384C52.1423 35.7104 51.0083 36.5084 49.5663 36.5084ZM60.5969 29.6064V35.8924C60.5969 36.1864 60.3869 36.4384 60.0649 36.4384C59.7709 36.4384 59.5329 36.2144 59.5329 35.8924V35.1084C59.0429 35.8924 58.3009 36.5224 57.0549 36.5224C55.3189 36.5224 54.2829 35.3464 54.2829 33.6244V29.6064C54.2829 29.2844 54.4929 29.0604 54.8149 29.0604C55.1089 29.0604 55.3609 29.2844 55.3609 29.6064V33.3584C55.3609 34.7024 56.0749 35.5424 57.3629 35.5424C58.5949 35.5424 59.5329 34.6324 59.5329 33.2744V29.6064C59.5329 29.2844 59.7429 29.0604 60.0649 29.0604C60.3589 29.0604 60.5969 29.2844 60.5969 29.6064ZM65.4279 36.5224C64.0839 36.5224 62.7259 35.7664 62.7259 34.2684V34.2404C62.7259 32.7284 63.9859 31.9024 65.8199 31.9024C66.7579 31.9024 67.3879 32.0284 68.0459 32.2104V31.9584C68.0459 30.6564 67.2479 29.9844 65.8899 29.9844C65.1619 29.9844 64.5599 30.1524 64.0139 30.3904C63.9439 30.4184 63.8739 30.4324 63.8179 30.4324C63.5519 30.4324 63.3419 30.2364 63.3419 29.9704C63.3419 29.7464 63.4819 29.5784 63.6359 29.5224C64.3499 29.2004 65.0639 29.0324 66.0019 29.0324C67.0239 29.0324 67.8079 29.2984 68.3399 29.8304C68.8299 30.3204 69.0819 31.0344 69.0819 31.9444V35.9064C69.0819 36.2284 68.8579 36.4384 68.5639 36.4384C68.2419 36.4384 68.0459 36.2144 68.0459 35.9344V35.2764C67.5419 35.9344 66.7159 36.5224 65.4279 36.5224ZM65.6379 35.6684C66.9819 35.6684 68.0599 34.8564 68.0599 33.7084V33.0084C67.5139 32.8544 66.8279 32.7004 65.9319 32.7004C64.5739 32.7004 63.8179 33.2884 63.8179 34.1984V34.2264C63.8179 35.1364 64.6719 35.6684 65.6379 35.6684ZM71.6293 35.8924V29.6064C71.6293 29.3124 71.8673 29.0604 72.1613 29.0604C72.4833 29.0604 72.7073 29.2844 72.7073 29.6064V30.9644C73.2253 29.7744 74.3033 29.0324 75.1993 29.0324C75.5213 29.0324 75.7313 29.2564 75.7313 29.5784C75.7313 29.8724 75.5353 30.0824 75.2553 30.1244C73.8553 30.3064 72.7073 31.3284 72.7073 33.4284V35.8924C72.7073 36.1864 72.4973 36.4384 72.1753 36.4384C71.8533 36.4384 71.6293 36.2144 71.6293 35.8924ZM77.5531 27.0444V26.8624C77.5531 26.5124 77.8331 26.2884 78.1831 26.2884C78.5611 26.2884 78.8271 26.5124 78.8271 26.8624V27.0444C78.8271 27.3804 78.5611 27.6184 78.1831 27.6184C77.8331 27.6184 77.5531 27.3804 77.5531 27.0444ZM77.6511 35.8924V29.6064C77.6511 29.3124 77.8891 29.0604 78.1831 29.0604C78.5051 29.0604 78.7291 29.2844 78.7291 29.6064V35.8924C78.7291 36.2144 78.5191 36.4384 78.1971 36.4384C77.8751 36.4384 77.6511 36.2144 77.6511 35.8924ZM84.7849 36.5364C82.6149 36.5364 81.0329 34.8284 81.0329 32.7844V32.7564C81.0329 30.6984 82.6149 28.9764 84.8129 28.9764C86.9969 28.9764 88.5789 30.6844 88.5789 32.7284V32.7564C88.5789 34.8144 86.9689 36.5364 84.7849 36.5364ZM84.8129 35.5704C86.3809 35.5704 87.4729 34.2964 87.4729 32.7844V32.7564C87.4729 31.2024 86.3109 29.9284 84.7849 29.9284C83.2169 29.9284 82.1389 31.2024 82.1389 32.7284V32.7564C82.1389 34.3104 83.2869 35.5704 84.8129 35.5704ZM93.1756 36.5084C92.2236 36.5084 91.1736 36.1584 90.3896 35.5984C90.2916 35.5284 90.1936 35.3884 90.1936 35.2064C90.1936 34.9404 90.4036 34.7444 90.6696 34.7444C90.7676 34.7444 90.8656 34.7724 90.9356 34.8284C91.6916 35.3464 92.4616 35.5984 93.2316 35.5984C94.1136 35.5984 94.7296 35.1644 94.7296 34.4504V34.4224C94.7296 33.7084 93.8756 33.4144 92.9236 33.1484C91.8036 32.8124 90.5296 32.4484 90.5296 31.1044V31.0764C90.5296 29.8304 91.5656 29.0044 92.9936 29.0044C93.7776 29.0044 94.5896 29.2424 95.3036 29.6204C95.4576 29.7184 95.5696 29.8584 95.5696 30.0684C95.5696 30.3344 95.3596 30.5304 95.0936 30.5304C95.0096 30.5304 94.9256 30.5164 94.8556 30.4744C94.2396 30.1244 93.5816 29.9144 92.9656 29.9144C92.1116 29.9144 91.5656 30.3624 91.5656 30.9644V30.9924C91.5656 31.6784 92.4616 31.9444 93.4276 32.2384C94.5476 32.5744 95.7516 33.0084 95.7516 34.3104V34.3384C95.7516 35.7104 94.6176 36.5084 93.1756 36.5084ZM104.608 36.5224C103.264 36.5224 101.906 35.7664 101.906 34.2684V34.2404C101.906 32.7284 103.166 31.9024 105 31.9024C105.938 31.9024 106.568 32.0284 107.226 32.2104V31.9584C107.226 30.6564 106.428 29.9844 105.07 29.9844C104.342 29.9844 103.74 30.1524 103.194 30.3904C103.124 30.4184 103.054 30.4324 102.998 30.4324C102.732 30.4324 102.522 30.2364 102.522 29.9704C102.522 29.7464 102.662 29.5784 102.816 29.5224C103.53 29.2004 104.244 29.0324 105.182 29.0324C106.204 29.0324 106.988 29.2984 107.52 29.8304C108.01 30.3204 108.262 31.0344 108.262 31.9444V35.9064C108.262 36.2284 108.038 36.4384 107.744 36.4384C107.422 36.4384 107.226 36.2144 107.226 35.9344V35.2764C106.722 35.9344 105.896 36.5224 104.608 36.5224ZM104.818 35.6684C106.162 35.6684 107.24 34.8564 107.24 33.7084V33.0084C106.694 32.8544 106.008 32.7004 105.112 32.7004C103.754 32.7004 102.998 33.2884 102.998 34.1984V34.2264C102.998 35.1364 103.852 35.6684 104.818 35.6684ZM114.071 36.5364C111.943 36.5364 110.361 34.8144 110.361 32.7844V32.7564C110.361 30.6984 111.943 28.9764 114.071 28.9764C115.289 28.9764 116.073 29.4244 116.731 30.0264C116.829 30.0964 116.899 30.2364 116.899 30.4044C116.899 30.6984 116.661 30.9224 116.381 30.9224C116.255 30.9224 116.129 30.8804 116.031 30.7964C115.513 30.3064 114.939 29.9284 114.057 29.9284C112.587 29.9284 111.467 31.1604 111.467 32.7284V32.7564C111.467 34.3244 112.615 35.5704 114.127 35.5704C114.967 35.5704 115.597 35.1924 116.143 34.6884C116.213 34.6184 116.297 34.5484 116.451 34.5484C116.717 34.5484 116.941 34.7724 116.941 35.0384C116.941 35.1644 116.899 35.2764 116.801 35.3744C116.115 36.0604 115.303 36.5364 114.071 36.5364ZM121.479 36.4944C120.303 36.4944 119.435 35.9204 119.435 34.4504V30.0824H118.847C118.581 30.0824 118.371 29.8724 118.371 29.6064C118.371 29.3404 118.581 29.1304 118.847 29.1304H119.435V27.4224C119.435 27.1284 119.645 26.8764 119.967 26.8764C120.261 26.8764 120.513 27.1284 120.513 27.4224V29.1304H122.389C122.655 29.1304 122.879 29.3404 122.879 29.6064C122.879 29.8724 122.655 30.0824 122.389 30.0824H120.513V34.3104C120.513 35.2064 121.003 35.5144 121.731 35.5144C122.109 35.5144 122.291 35.4164 122.389 35.4164C122.655 35.4164 122.851 35.6124 122.851 35.8784C122.851 36.0884 122.753 36.2284 122.543 36.2984C122.221 36.4244 121.913 36.4944 121.479 36.4944ZM124.967 27.0444V26.8624C124.967 26.5124 125.247 26.2884 125.597 26.2884C125.975 26.2884 126.241 26.5124 126.241 26.8624V27.0444C126.241 27.3804 125.975 27.6184 125.597 27.6184C125.247 27.6184 124.967 27.3804 124.967 27.0444ZM125.065 35.8924V29.6064C125.065 29.3124 125.303 29.0604 125.597 29.0604C125.919 29.0604 126.143 29.2844 126.143 29.6064V35.8924C126.143 36.2144 125.933 36.4384 125.611 36.4384C125.289 36.4384 125.065 36.2144 125.065 35.8924ZM135.139 29.8584L132.409 36.0184C132.283 36.2984 132.101 36.4804 131.807 36.4804H131.751C131.457 36.4804 131.261 36.2984 131.135 36.0184L128.419 29.8864C128.377 29.7884 128.349 29.6904 128.349 29.5924C128.349 29.3124 128.573 29.0604 128.895 29.0604C129.217 29.0604 129.343 29.2424 129.441 29.4804L131.779 35.1364L134.159 29.4524C134.229 29.2424 134.383 29.0604 134.663 29.0604C134.957 29.0604 135.195 29.2984 135.195 29.5924C135.195 29.6764 135.181 29.7604 135.139 29.8584ZM140.242 36.5364C138.072 36.5364 136.49 34.8284 136.49 32.7844V32.7564C136.49 30.6984 138.072 28.9764 140.27 28.9764C142.454 28.9764 144.036 30.6844 144.036 32.7284V32.7564C144.036 34.8144 142.426 36.5364 140.242 36.5364ZM140.27 35.5704C141.838 35.5704 142.93 34.2964 142.93 32.7844V32.7564C142.93 31.2024 141.768 29.9284 140.242 29.9284C138.674 29.9284 137.596 31.2024 137.596 32.7284V32.7564C137.596 34.3104 138.744 35.5704 140.27 35.5704ZM148.633 36.5084C147.681 36.5084 146.631 36.1584 145.847 35.5984C145.749 35.5284 145.651 35.3884 145.651 35.2064C145.651 34.9404 145.861 34.7444 146.127 34.7444C146.225 34.7444 146.323 34.7724 146.393 34.8284C147.149 35.3464 147.919 35.5984 148.689 35.5984C149.571 35.5984 150.187 35.1644 150.187 34.4504V34.4224C150.187 33.7084 149.333 33.4144 148.381 33.1484C147.261 32.8124 145.987 32.4484 145.987 31.1044V31.0764C145.987 29.8304 147.023 29.0044 148.451 29.0044C149.235 29.0044 150.047 29.2424 150.761 29.6204C150.915 29.7184 151.027 29.8584 151.027 30.0684C151.027 30.3344 150.817 30.5304 150.551 30.5304C150.467 30.5304 150.383 30.5164 150.313 30.4744C149.697 30.1244 149.039 29.9144 148.423 29.9144C147.569 29.9144 147.023 30.3624 147.023 30.9644V30.9924C147.023 31.6784 147.919 31.9444 148.885 32.2384C150.005 32.5744 151.209 33.0084 151.209 34.3104V34.3384C151.209 35.7104 150.075 36.5084 148.633 36.5084Z" fill="black" fill-opacity="0.6"/>
<path fill-rule="evenodd" clip-rule="evenodd" d="M193.246 160.593C193.246 159.49 194.14 158.596 195.243 158.596H226.832C227.935 158.596 228.83 159.49 228.83 160.593V212.425H193.246V160.593ZM35.0952 205.859C35.0952 204.756 35.9896 203.862 37.0929 203.862H68.6814C69.7847 203.862 70.6791 204.756 70.6791 205.859V212.426H35.0952V205.859ZM116.168 190.404C115.065 190.404 114.17 191.299 114.17 192.402V212.426H149.754V192.402C149.754 191.299 148.86 190.404 147.757 190.404H116.168ZM74.6329 199.742C74.6329 198.639 75.5273 197.745 76.6306 197.745H108.219C109.322 197.745 110.217 198.639 110.217 199.742V212.426H74.6329V199.742ZM234.781 170.83C233.678 170.83 232.783 171.724 232.783 172.827V212.425H268.367V172.827C268.367 171.724 267.473 170.83 266.37 170.83H234.781ZM272.321 185.061C272.321 183.958 273.215 183.064 274.319 183.064H305.907C307.01 183.064 307.905 183.958 307.905 185.061V212.426H272.321V185.061ZM155.706 183.064C154.603 183.064 153.708 183.958 153.708 185.061V212.426H189.292V185.061C189.292 183.958 188.398 183.064 187.294 183.064H155.706Z" fill="#333333"/>
<defs>
<filter id="filter0_ddd_161_3241" x="0" y="0" width="343" height="236" filterUnits="userSpaceOnUse" color-interpolation-filters="sRGB">
<feFlood flood-opacity="0" result="BackgroundImageFix"/>
<feColorMatrix in="SourceAlpha" type="matrix" values="0 0 0 0 0 0 0 0 0 0 0 0 0 0 0 0 0 0 127 0" result="hardAlpha"/>
<feOffset dy="1"/>
<feGaussianBlur stdDeviation="1.5"/>
<feColorMatrix type="matrix" values="0 0 0 0 0 0 0 0 0 0 0 0 0 0 0 0 0 0 0.2 0"/>
<feBlend mode="normal" in2="BackgroundImageFix" result="effect1_dropShadow_161_3241"/>
<feColorMatrix in="SourceAlpha" type="matrix" values="0 0 0 0 0 0 0 0 0 0 0 0 0 0 0 0 0 0 127 0" result="hardAlpha"/>
<feOffset dy="2"/>
<feGaussianBlur stdDeviation="0.5"/>
<feColorMatrix type="matrix" values="0 0 0 0 0 0 0 0 0 0 0 0 0 0 0 0 0 0 0.12 0"/>
<feBlend mode="normal" in2="effect1_dropShadow_161_3241" result="effect2_dropShadow_161_3241"/>
<feColorMatrix in="SourceAlpha" type="matrix" values="0 0 0 0 0 0 0 0 0 0 0 0 0 0 0 0 0 0 127 0" result="hardAlpha"/>
<feOffset dy="1"/>
<feGaussianBlur stdDeviation="0.5"/>
<feColorMatrix type="matrix" values="0 0 0 0 0 0 0 0 0 0 0 0 0 0 0 0 0 0 0.14 0"/>
<feBlend mode="normal" in2="effect2_dropShadow_161_3241" result="effect3_dropShadow_161_3241"/>
<feBlend mode="normal" in="SourceGraphic" in2="effect3_dropShadow_161_3241" result="shape"/>
</filter>
</defs>
</svg>
