<svg width="343" height="236" viewBox="0 0 343 236" fill="none" xmlns="http://www.w3.org/2000/svg">
<rect x="3" y="2" width="337" height="230" fill="#F2D479"/>
<g filter="url(#filter0_ddd_161_3226)">
<rect x="3" y="2" width="337" height="230" rx="4" fill="#F2D479"/>
</g>
<path d="M29.336 84.3211C26.208 84.3211 23.522 82.9611 21.584 81.2271C21.21 80.9211 21.04 80.5471 21.04 80.1051C21.04 79.4591 21.618 78.8471 22.332 78.8471C22.672 78.8471 22.978 78.9491 23.25 79.1871C25.154 80.9211 27.16 81.8731 29.37 81.8731C32.702 81.8731 35.082 79.6971 35.082 76.6031V76.5351C35.082 73.5431 32.6 71.5371 29.166 71.5371C26.344 71.5371 24.984 72.6931 24.338 72.6931C23.828 72.6931 23.488 72.4891 22.978 72.1831C22.536 71.8771 22.366 71.3671 22.4 70.7211L22.944 61.4051C22.978 60.5891 23.556 60.1131 24.236 60.1131H35.66C36.34 60.1131 36.884 60.6571 36.884 61.3711C36.884 62.0511 36.34 62.5951 35.66 62.5951H25.392L24.882 70.2111C26.276 69.5651 27.568 69.1571 29.574 69.1571C34.198 69.1571 37.802 71.8771 37.802 76.4331V76.5011C37.802 81.0911 34.266 84.3211 29.336 84.3211ZM50.2263 84.3211C46.5543 84.3211 43.8343 82.8931 41.9303 80.7171C41.6923 80.4791 41.4883 80.1391 41.4883 79.7651C41.4883 79.0511 42.1003 78.4391 42.8143 78.4391C43.2563 78.4391 43.5623 78.6091 43.8003 78.8471C45.5343 80.8531 47.5403 81.8731 50.2603 81.8731C53.1503 81.8731 55.4623 80.0711 55.4623 77.2491V77.1811C55.4623 74.2231 52.7083 72.5911 48.7983 72.5911H47.9483C47.3023 72.5911 46.7583 72.0811 46.7583 71.4351C46.7583 71.0951 46.9283 70.7551 47.3023 70.3811L54.2383 62.5271H43.6983C43.0183 62.5271 42.4403 62.0171 42.4403 61.3371C42.4403 60.6571 43.0183 60.1131 43.6983 60.1131H56.6863C57.4683 60.1131 57.9783 60.5891 57.9783 61.2691C57.9783 61.8131 57.7063 62.1871 57.3323 62.5951L50.3283 70.3811C54.4763 70.7551 58.1823 72.6931 58.1823 77.0791V77.1471C58.1823 81.3971 54.6463 84.3211 50.2263 84.3211ZM65.0118 82.8251C65.0118 82.5871 65.1138 82.2471 65.2158 82.0091L75.0758 62.5611H63.0738C62.3938 62.5611 61.8158 62.0511 61.8158 61.3371C61.8158 60.6571 62.3938 60.1131 63.0738 60.1131H77.0138C77.7958 60.1131 78.3058 60.5211 78.3058 61.3031C78.3058 61.6771 78.1698 62.1191 77.9318 62.4931L67.6638 83.1311C67.3578 83.7771 66.9498 84.0831 66.3718 84.0831C65.6578 84.0831 65.0118 83.6071 65.0118 82.8251Z" fill="black" fill-opacity="0.87"/>
<path d="M40.4012 36.5225C37.9792 36.5225 36.3272 35.0385 36.3272 32.2665V27.0585C36.3272 26.7365 36.5792 26.4985 36.8732 26.4985C37.1952 26.4985 37.4332 26.7365 37.4332 27.0585V32.1965C37.4332 34.3245 38.5672 35.5005 40.4292 35.5005C42.2352 35.5005 43.3832 34.4085 43.3832 32.2665V27.0585C43.3832 26.7365 43.6212 26.4985 43.9432 26.4985C44.2372 26.4985 44.4892 26.7365 44.4892 27.0585V32.1825C44.4892 35.0525 42.8512 36.5225 40.4012 36.5225ZM49.5663 36.5085C48.6143 36.5085 47.5643 36.1585 46.7803 35.5985C46.6823 35.5285 46.5843 35.3885 46.5843 35.2065C46.5843 34.9405 46.7943 34.7445 47.0603 34.7445C47.1583 34.7445 47.2563 34.7725 47.3263 34.8285C48.0823 35.3465 48.8523 35.5985 49.6223 35.5985C50.5043 35.5985 51.1203 35.1645 51.1203 34.4505V34.4225C51.1203 33.7085 50.2663 33.4145 49.3143 33.1485C48.1943 32.8125 46.9203 32.4485 46.9203 31.1045V31.0765C46.9203 29.8305 47.9563 29.0045 49.3843 29.0045C50.1683 29.0045 50.9803 29.2425 51.6943 29.6205C51.8483 29.7185 51.9603 29.8585 51.9603 30.0685C51.9603 30.3345 51.7503 30.5305 51.4843 30.5305C51.4003 30.5305 51.3163 30.5165 51.2463 30.4745C50.6303 30.1245 49.9723 29.9145 49.3563 29.9145C48.5023 29.9145 47.9563 30.3625 47.9563 30.9645V30.9925C47.9563 31.6785 48.8523 31.9445 49.8183 32.2385C50.9383 32.5745 52.1423 33.0085 52.1423 34.3105V34.3385C52.1423 35.7105 51.0083 36.5085 49.5663 36.5085ZM60.5969 29.6065V35.8925C60.5969 36.1865 60.3869 36.4385 60.0649 36.4385C59.7709 36.4385 59.5329 36.2145 59.5329 35.8925V35.1085C59.0429 35.8925 58.3009 36.5225 57.0549 36.5225C55.3189 36.5225 54.2829 35.3465 54.2829 33.6245V29.6065C54.2829 29.2845 54.4929 29.0605 54.8149 29.0605C55.1089 29.0605 55.3609 29.2845 55.3609 29.6065V33.3585C55.3609 34.7025 56.0749 35.5425 57.3629 35.5425C58.5949 35.5425 59.5329 34.6325 59.5329 33.2745V29.6065C59.5329 29.2845 59.7429 29.0605 60.0649 29.0605C60.3589 29.0605 60.5969 29.2845 60.5969 29.6065ZM65.4279 36.5225C64.0839 36.5225 62.7259 35.7665 62.7259 34.2685V34.2405C62.7259 32.7285 63.9859 31.9025 65.8199 31.9025C66.7579 31.9025 67.3879 32.0285 68.0459 32.2105V31.9585C68.0459 30.6565 67.2479 29.9845 65.8899 29.9845C65.1619 29.9845 64.5599 30.1525 64.0139 30.3905C63.9439 30.4185 63.8739 30.4325 63.8179 30.4325C63.5519 30.4325 63.3419 30.2365 63.3419 29.9705C63.3419 29.7465 63.4819 29.5785 63.6359 29.5225C64.3499 29.2005 65.0639 29.0325 66.0019 29.0325C67.0239 29.0325 67.8079 29.2985 68.3399 29.8305C68.8299 30.3205 69.0819 31.0345 69.0819 31.9445V35.9065C69.0819 36.2285 68.8579 36.4385 68.5639 36.4385C68.2419 36.4385 68.0459 36.2145 68.0459 35.9345V35.2765C67.5419 35.9345 66.7159 36.5225 65.4279 36.5225ZM65.6379 35.6685C66.9819 35.6685 68.0599 34.8565 68.0599 33.7085V33.0085C67.5139 32.8545 66.8279 32.7005 65.9319 32.7005C64.5739 32.7005 63.8179 33.2885 63.8179 34.1985V34.2265C63.8179 35.1365 64.6719 35.6685 65.6379 35.6685ZM71.6293 35.8925V29.6065C71.6293 29.3125 71.8673 29.0605 72.1613 29.0605C72.4833 29.0605 72.7073 29.2845 72.7073 29.6065V30.9645C73.2253 29.7745 74.3033 29.0325 75.1993 29.0325C75.5213 29.0325 75.7313 29.2565 75.7313 29.5785C75.7313 29.8725 75.5353 30.0825 75.2553 30.1245C73.8553 30.3065 72.7073 31.3285 72.7073 33.4285V35.8925C72.7073 36.1865 72.4973 36.4385 72.1753 36.4385C71.8533 36.4385 71.6293 36.2145 71.6293 35.8925ZM77.5531 27.0445V26.8625C77.5531 26.5125 77.8331 26.2885 78.1831 26.2885C78.5611 26.2885 78.8271 26.5125 78.8271 26.8625V27.0445C78.8271 27.3805 78.5611 27.6185 78.1831 27.6185C77.8331 27.6185 77.5531 27.3805 77.5531 27.0445ZM77.6511 35.8925V29.6065C77.6511 29.3125 77.8891 29.0605 78.1831 29.0605C78.5051 29.0605 78.7291 29.2845 78.7291 29.6065V35.8925C78.7291 36.2145 78.5191 36.4385 78.1971 36.4385C77.8751 36.4385 77.6511 36.2145 77.6511 35.8925ZM84.7849 36.5365C82.6149 36.5365 81.0329 34.8285 81.0329 32.7845V32.7565C81.0329 30.6985 82.6149 28.9765 84.8129 28.9765C86.9969 28.9765 88.5789 30.6845 88.5789 32.7285V32.7565C88.5789 34.8145 86.9689 36.5365 84.7849 36.5365ZM84.8129 35.5705C86.3809 35.5705 87.4729 34.2965 87.4729 32.7845V32.7565C87.4729 31.2025 86.3109 29.9285 84.7849 29.9285C83.2169 29.9285 82.1389 31.2025 82.1389 32.7285V32.7565C82.1389 34.3105 83.2869 35.5705 84.8129 35.5705ZM93.1756 36.5085C92.2236 36.5085 91.1736 36.1585 90.3896 35.5985C90.2916 35.5285 90.1936 35.3885 90.1936 35.2065C90.1936 34.9405 90.4036 34.7445 90.6696 34.7445C90.7676 34.7445 90.8656 34.7725 90.9356 34.8285C91.6916 35.3465 92.4616 35.5985 93.2316 35.5985C94.1136 35.5985 94.7296 35.1645 94.7296 34.4505V34.4225C94.7296 33.7085 93.8756 33.4145 92.9236 33.1485C91.8036 32.8125 90.5296 32.4485 90.5296 31.1045V31.0765C90.5296 29.8305 91.5656 29.0045 92.9936 29.0045C93.7776 29.0045 94.5896 29.2425 95.3036 29.6205C95.4576 29.7185 95.5696 29.8585 95.5696 30.0685C95.5696 30.3345 95.3596 30.5305 95.0936 30.5305C95.0096 30.5305 94.9256 30.5165 94.8556 30.4745C94.2396 30.1245 93.5816 29.9145 92.9656 29.9145C92.1116 29.9145 91.5656 30.3625 91.5656 30.9645V30.9925C91.5656 31.6785 92.4616 31.9445 93.4276 32.2385C94.5476 32.5745 95.7516 33.0085 95.7516 34.3105V34.3385C95.7516 35.7105 94.6176 36.5085 93.1756 36.5085ZM102.452 35.8925V29.6065C102.452 29.3125 102.69 29.0605 102.984 29.0605C103.306 29.0605 103.53 29.2845 103.53 29.6065V30.9645C104.048 29.7745 105.126 29.0325 106.022 29.0325C106.344 29.0325 106.554 29.2565 106.554 29.5785C106.554 29.8725 106.358 30.0825 106.078 30.1245C104.678 30.3065 103.53 31.3285 103.53 33.4285V35.8925C103.53 36.1865 103.32 36.4385 102.998 36.4385C102.676 36.4385 102.452 36.2145 102.452 35.8925ZM108.705 32.3505H113.367C113.255 31.0485 112.513 29.8865 111.057 29.8865C109.783 29.8865 108.859 30.9505 108.705 32.3505ZM113.955 35.4445C113.269 36.1025 112.457 36.5365 111.225 36.5365C109.251 36.5365 107.613 35.0105 107.613 32.7705V32.7425C107.613 30.6565 109.069 28.9765 111.085 28.9765C113.227 28.9765 114.445 30.7265 114.445 32.6445C114.445 32.9385 114.207 33.1485 113.941 33.1485H108.705C108.859 34.7165 109.965 35.5985 111.253 35.5985C112.149 35.5985 112.793 35.2485 113.339 34.7585C113.437 34.6745 113.549 34.6325 113.647 34.6325C113.913 34.6325 114.123 34.8285 114.123 35.0945C114.123 35.2345 114.067 35.3465 113.955 35.4445ZM119.802 38.6365C118.71 38.6365 117.702 38.3565 116.778 37.7825C116.596 37.6845 116.498 37.5445 116.498 37.3345C116.498 37.0965 116.722 36.8585 116.988 36.8585C117.072 36.8585 117.156 36.8865 117.226 36.9285C117.996 37.4325 118.836 37.7125 119.788 37.7125C121.398 37.7125 122.42 36.8305 122.42 35.1365V34.2825C121.79 35.1225 120.908 35.8085 119.578 35.8085C117.842 35.8085 116.176 34.4925 116.176 32.4205V32.3925C116.176 30.2785 117.842 28.9765 119.578 28.9765C120.936 28.9765 121.804 29.6485 122.406 30.4325V29.6065C122.406 29.3125 122.616 29.0605 122.938 29.0605C123.26 29.0605 123.484 29.3125 123.484 29.6065V35.1085C123.484 36.2285 123.162 37.0685 122.56 37.6705C121.902 38.3285 120.964 38.6365 119.802 38.6365ZM119.788 34.8565C121.16 34.8565 122.448 33.8625 122.448 32.4065V32.3785C122.448 30.8945 121.16 29.9285 119.788 29.9285C118.402 29.9285 117.282 30.8805 117.282 32.3645V32.3925C117.282 33.8485 118.444 34.8565 119.788 34.8565ZM126.143 27.0445V26.8625C126.143 26.5125 126.423 26.2885 126.773 26.2885C127.151 26.2885 127.417 26.5125 127.417 26.8625V27.0445C127.417 27.3805 127.151 27.6185 126.773 27.6185C126.423 27.6185 126.143 27.3805 126.143 27.0445ZM126.241 35.8925V29.6065C126.241 29.3125 126.479 29.0605 126.773 29.0605C127.095 29.0605 127.319 29.2845 127.319 29.6065V35.8925C127.319 36.2145 127.109 36.4385 126.787 36.4385C126.465 36.4385 126.241 36.2145 126.241 35.8925ZM132.465 36.5085C131.513 36.5085 130.463 36.1585 129.679 35.5985C129.581 35.5285 129.483 35.3885 129.483 35.2065C129.483 34.9405 129.693 34.7445 129.959 34.7445C130.057 34.7445 130.155 34.7725 130.225 34.8285C130.981 35.3465 131.751 35.5985 132.521 35.5985C133.403 35.5985 134.019 35.1645 134.019 34.4505V34.4225C134.019 33.7085 133.165 33.4145 132.213 33.1485C131.093 32.8125 129.819 32.4485 129.819 31.1045V31.0765C129.819 29.8305 130.855 29.0045 132.283 29.0045C133.067 29.0045 133.879 29.2425 134.593 29.6205C134.747 29.7185 134.859 29.8585 134.859 30.0685C134.859 30.3345 134.649 30.5305 134.383 30.5305C134.299 30.5305 134.215 30.5165 134.145 30.4745C133.529 30.1245 132.871 29.9145 132.255 29.9145C131.401 29.9145 130.855 30.3625 130.855 30.9645V30.9925C130.855 31.6785 131.751 31.9445 132.717 32.2385C133.837 32.5745 135.041 33.0085 135.041 34.3105V34.3385C135.041 35.7105 133.907 36.5085 132.465 36.5085ZM139.579 36.4945C138.403 36.4945 137.535 35.9205 137.535 34.4505V30.0825H136.947C136.681 30.0825 136.471 29.8725 136.471 29.6065C136.471 29.3405 136.681 29.1305 136.947 29.1305H137.535V27.4225C137.535 27.1285 137.745 26.8765 138.067 26.8765C138.361 26.8765 138.613 27.1285 138.613 27.4225V29.1305H140.489C140.755 29.1305 140.979 29.3405 140.979 29.6065C140.979 29.8725 140.755 30.0825 140.489 30.0825H138.613V34.3105C138.613 35.2065 139.103 35.5145 139.831 35.5145C140.209 35.5145 140.391 35.4165 140.489 35.4165C140.755 35.4165 140.951 35.6125 140.951 35.8785C140.951 36.0885 140.853 36.2285 140.643 36.2985C140.321 36.4245 140.013 36.4945 139.579 36.4945ZM143.067 35.8925V29.6065C143.067 29.3125 143.305 29.0605 143.599 29.0605C143.921 29.0605 144.145 29.2845 144.145 29.6065V30.9645C144.663 29.7745 145.741 29.0325 146.637 29.0325C146.959 29.0325 147.169 29.2565 147.169 29.5785C147.169 29.8725 146.973 30.0825 146.693 30.1245C145.293 30.3065 144.145 31.3285 144.145 33.4285V35.8925C144.145 36.1865 143.935 36.4385 143.613 36.4385C143.291 36.4385 143.067 36.2145 143.067 35.8925ZM150.791 36.5225C149.447 36.5225 148.089 35.7665 148.089 34.2685V34.2405C148.089 32.7285 149.349 31.9025 151.183 31.9025C152.121 31.9025 152.751 32.0285 153.409 32.2105V31.9585C153.409 30.6565 152.611 29.9845 151.253 29.9845C150.525 29.9845 149.923 30.1525 149.377 30.3905C149.307 30.4185 149.237 30.4325 149.181 30.4325C148.915 30.4325 148.705 30.2365 148.705 29.9705C148.705 29.7465 148.845 29.5785 148.999 29.5225C149.713 29.2005 150.427 29.0325 151.365 29.0325C152.387 29.0325 153.171 29.2985 153.703 29.8305C154.193 30.3205 154.445 31.0345 154.445 31.9445V35.9065C154.445 36.2285 154.221 36.4385 153.927 36.4385C153.605 36.4385 153.409 36.2145 153.409 35.9345V35.2765C152.905 35.9345 152.079 36.5225 150.791 36.5225ZM151.001 35.6685C152.345 35.6685 153.423 34.8565 153.423 33.7085V33.0085C152.877 32.8545 152.191 32.7005 151.295 32.7005C149.937 32.7005 149.181 33.2885 149.181 34.1985V34.2265C149.181 35.1365 150.035 35.6685 151.001 35.6685ZM163.881 26.6245V35.8925C163.881 36.2145 163.643 36.4385 163.349 36.4385C163.027 36.4385 162.803 36.2145 162.803 35.8925V34.9125C162.201 35.7805 161.375 36.5225 160.031 36.5225C158.295 36.5225 156.573 35.1505 156.573 32.7705V32.7425C156.573 30.3905 158.295 28.9765 160.031 28.9765C161.375 28.9765 162.243 29.6905 162.803 30.5165V26.6245C162.803 26.3025 163.013 26.0785 163.335 26.0785C163.657 26.0785 163.881 26.3025 163.881 26.6245ZM160.227 29.9425C158.827 29.9425 157.679 30.9785 157.679 32.7285V32.7565C157.679 34.4785 158.883 35.5565 160.227 35.5565C161.571 35.5565 162.845 34.4225 162.845 32.7565V32.7285C162.845 31.0625 161.571 29.9425 160.227 29.9425ZM169.843 36.5365C167.673 36.5365 166.091 34.8285 166.091 32.7845V32.7565C166.091 30.6985 167.673 28.9765 169.871 28.9765C172.055 28.9765 173.637 30.6845 173.637 32.7285V32.7565C173.637 34.8145 172.027 36.5365 169.843 36.5365ZM169.871 35.5705C171.439 35.5705 172.531 34.2965 172.531 32.7845V32.7565C172.531 31.2025 171.369 29.9285 169.843 29.9285C168.275 29.9285 167.197 31.2025 167.197 32.7285V32.7565C167.197 34.3105 168.345 35.5705 169.871 35.5705ZM178.234 36.5085C177.282 36.5085 176.232 36.1585 175.448 35.5985C175.35 35.5285 175.252 35.3885 175.252 35.2065C175.252 34.9405 175.462 34.7445 175.728 34.7445C175.826 34.7445 175.924 34.7725 175.994 34.8285C176.75 35.3465 177.52 35.5985 178.29 35.5985C179.172 35.5985 179.788 35.1645 179.788 34.4505V34.4225C179.788 33.7085 178.934 33.4145 177.982 33.1485C176.862 32.8125 175.588 32.4485 175.588 31.1045V31.0765C175.588 29.8305 176.624 29.0045 178.052 29.0045C178.836 29.0045 179.648 29.2425 180.362 29.6205C180.516 29.7185 180.628 29.8585 180.628 30.0685C180.628 30.3345 180.418 30.5305 180.152 30.5305C180.068 30.5305 179.984 30.5165 179.914 30.4745C179.298 30.1245 178.64 29.9145 178.024 29.9145C177.17 29.9145 176.624 30.3625 176.624 30.9645V30.9925C176.624 31.6785 177.52 31.9445 178.486 32.2385C179.606 32.5745 180.81 33.0085 180.81 34.3105V34.3385C180.81 35.7105 179.676 36.5085 178.234 36.5085Z" fill="black" fill-opacity="0.6"/>
<path fill-rule="evenodd" clip-rule="evenodd" d="M193.246 160.593C193.246 159.49 194.14 158.596 195.243 158.596H226.832C227.935 158.596 228.83 159.49 228.83 160.593V212.426H193.246V160.593ZM35.0952 205.859C35.0952 204.756 35.9896 203.862 37.0929 203.862H68.6814C69.7847 203.862 70.6791 204.756 70.6791 205.859V212.426H35.0952V205.859ZM116.168 190.404C115.065 190.404 114.17 191.299 114.17 192.402V212.426H149.754V192.402C149.754 191.299 148.86 190.404 147.757 190.404H116.168ZM74.6329 199.742C74.6329 198.639 75.5273 197.745 76.6306 197.745H108.219C109.322 197.745 110.217 198.639 110.217 199.742V212.426H74.6329V199.742ZM234.781 170.83C233.678 170.83 232.783 171.724 232.783 172.827V212.425H268.367V172.827C268.367 171.724 267.473 170.83 266.37 170.83H234.781ZM272.321 185.062C272.321 183.958 273.215 183.064 274.319 183.064H305.907C307.01 183.064 307.905 183.958 307.905 185.062V212.426H272.321V185.062ZM155.706 183.064C154.603 183.064 153.708 183.958 153.708 185.062V212.426H189.292V185.062C189.292 183.958 188.398 183.064 187.294 183.064H155.706Z" fill="#333333"/>
<defs>
<filter id="filter0_ddd_161_3226" x="0" y="0" width="343" height="236" filterUnits="userSpaceOnUse" color-interpolation-filters="sRGB">
<feFlood flood-opacity="0" result="BackgroundImageFix"/>
<feColorMatrix in="SourceAlpha" type="matrix" values="0 0 0 0 0 0 0 0 0 0 0 0 0 0 0 0 0 0 127 0" result="hardAlpha"/>
<feOffset dy="1"/>
<feGaussianBlur stdDeviation="1.5"/>
<feColorMatrix type="matrix" values="0 0 0 0 0 0 0 0 0 0 0 0 0 0 0 0 0 0 0.2 0"/>
<feBlend mode="normal" in2="BackgroundImageFix" result="effect1_dropShadow_161_3226"/>
<feColorMatrix in="SourceAlpha" type="matrix" values="0 0 0 0 0 0 0 0 0 0 0 0 0 0 0 0 0 0 127 0" result="hardAlpha"/>
<feOffset dy="2"/>
<feGaussianBlur stdDeviation="0.5"/>
<feColorMatrix type="matrix" values="0 0 0 0 0 0 0 0 0 0 0 0 0 0 0 0 0 0 0.12 0"/>
<feBlend mode="normal" in2="effect1_dropShadow_161_3226" result="effect2_dropShadow_161_3226"/>
<feColorMatrix in="SourceAlpha" type="matrix" values="0 0 0 0 0 0 0 0 0 0 0 0 0 0 0 0 0 0 127 0" result="hardAlpha"/>
<feOffset dy="1"/>
<feGaussianBlur stdDeviation="0.5"/>
<feColorMatrix type="matrix" values="0 0 0 0 0 0 0 0 0 0 0 0 0 0 0 0 0 0 0.14 0"/>
<feBlend mode="normal" in2="effect2_dropShadow_161_3226" result="effect3_dropShadow_161_3226"/>
<feBlend mode="normal" in="SourceGraphic" in2="effect3_dropShadow_161_3226" result="shape"/>
</filter>
</defs>
</svg>
