<svg width="480" height="47" viewBox="0 0 480 47" fill="none" xmlns="http://www.w3.org/2000/svg">
<path d="M19.328 38C23.36 38 26.176 36.144 26.176 33.328C26.176 31.152 24.512 29.808 18.56 27.44C12.8 25.072 7.552 22 7.552 15.344C7.552 6.192 15.808 0.559998 25.344 0.559998C32.32 0.559998 36.096 2.544 38.976 4.528C40.32 5.488 41.28 6.64 41.28 8.624C41.28 11.376 39.168 13.424 36.416 13.424C35.328 13.424 34.432 13.168 33.728 12.592C30.72 10.288 28.224 9.2 24.576 9.2C20.416 9.2 18.048 11.504 18.048 13.744C18.048 16.112 19.84 17.072 25.92 19.632C32 22.192 36.672 25.2 36.672 31.728C36.672 41.2 28.288 46.64 18.88 46.64C13.504 46.64 6.912 45.424 2.304 41.52C1.216 40.56 0.384 39.152 0.384 37.424C0.384 34.608 2.432 32.432 5.184 32.432C6.528 32.432 7.616 33.136 8.32 33.648C12.096 36.784 14.848 38 19.328 38ZM81.182 10.288L72.798 41.456C71.966 44.592 69.854 46.384 67.294 46.384C64.03 46.384 62.238 44.08 63.326 39.984L71.326 10.288H63.134C60.638 10.288 58.59 8.24 58.59 5.744C58.59 3.248 60.638 1.2 63.134 1.2H91.87C94.366 1.2 96.414 3.248 96.414 5.744C96.414 8.24 94.366 10.288 91.87 10.288H81.182ZM153.701 7.216L148.133 27.888C146.597 33.712 144.293 38.128 141.222 41.2C137.574 44.848 132.646 46.704 125.99 46.704C115.557 46.704 109.221 41.136 109.221 31.6C109.221 29.36 109.605 26.928 110.309 24.432L115.301 5.744C116.133 2.608 118.245 0.815998 120.806 0.815998C124.069 0.815998 125.861 3.12 124.773 7.216L119.909 25.328C119.461 26.864 119.205 28.336 119.205 30.192C119.205 34.608 121.893 37.616 127.014 37.616C129.893 37.616 132.326 36.656 134.309 34.8C136.293 32.816 137.701 30.064 138.661 26.48L144.229 5.744C145.062 2.608 147.174 0.815998 149.734 0.815998C152.998 0.815998 154.79 3.12 153.701 7.216ZM178.704 37.104H184.272C190.224 37.104 195.664 35.248 199.248 31.664C202.128 28.784 203.728 24.816 203.728 20.464C203.728 17.456 202.832 15.088 201.104 13.36C199.12 11.376 195.92 10.096 190.8 10.096H186L178.704 37.104ZM182.672 1.2H191.568C200.272 1.2 205.712 3.568 209.104 6.96C212.368 10.224 213.968 14.576 213.968 20.08C213.968 26.8 211.472 32.88 206.608 37.744C201.232 43.12 193.552 46 183.12 46H172.176C168.912 46 167.12 43.696 168.208 39.6L177.168 6.128C178 2.992 180.112 1.2 182.672 1.2ZM249.85 29.616L246.65 41.456C245.818 44.592 243.706 46.384 241.146 46.384C237.882 46.384 236.09 44.08 237.178 39.984L240.186 28.72L232.122 9.2C231.674 8.112 231.162 6.96 231.162 5.488C231.162 2.864 233.338 0.815998 236.474 0.815998C238.97 0.815998 240.314 2.16 241.274 4.656L246.97 20.016L261.946 3.568C263.674 1.776 265.21 0.751999 267.258 0.751999C269.819 0.751999 271.354 2.288 271.354 4.784C271.354 6.32 270.522 7.728 269.69 8.688L249.85 29.616ZM308.82 10.288L300.436 41.456C299.604 44.592 297.492 46.384 294.932 46.384C291.668 46.384 289.876 44.08 290.964 39.984L298.964 10.288H290.772C288.276 10.288 286.228 8.24 286.228 5.744C286.228 3.248 288.276 1.2 290.772 1.2H319.508C322.004 1.2 324.052 3.248 324.052 5.744C324.052 8.24 322.004 10.288 319.508 10.288H308.82ZM353.179 7.216L343.963 41.456C343.131 44.592 341.019 46.384 338.459 46.384C335.195 46.384 333.403 44.08 334.491 39.984L343.707 5.744C344.539 2.608 346.651 0.815998 349.211 0.815998C352.475 0.815998 354.267 3.12 353.179 7.216ZM417.111 0.943996H418.007C421.271 0.943996 422.999 3.248 421.911 7.344L412.759 41.456C411.927 44.592 409.751 46.384 407.191 46.384C403.927 46.384 402.071 44.08 403.159 39.984L408.663 19.312L397.655 31.28C395.927 33.136 394.263 34.224 392.279 34.224C390.039 34.224 389.015 33.136 388.055 30.64L383.767 19.376L377.815 41.456C376.983 44.592 374.871 46.384 372.311 46.384C369.047 46.384 367.255 44.08 368.343 39.984L377.495 5.936C378.327 2.8 380.119 0.943996 383.127 0.943996H383.703C386.263 0.943996 387.735 2.416 388.695 4.976L395.479 22.896L411.287 4.016C413.015 2.032 414.615 0.943996 417.111 0.943996ZM466.017 46H440.801C437.537 46 435.745 43.696 436.833 39.6L445.793 6.128C446.625 2.992 448.737 1.2 451.297 1.2H475.361C477.857 1.2 479.777 3.12 479.777 5.616C479.777 8.112 477.857 9.968 475.361 9.968H454.561L452.129 19.12H467.681C470.177 19.12 472.097 20.976 472.097 23.472C472.097 25.968 470.177 27.76 467.681 27.76H449.761L447.201 37.232H466.017C468.513 37.232 470.433 39.152 470.433 41.648C470.433 44.144 468.513 46 466.017 46Z" fill="#717349"/>
</svg>
