<svg width="486" height="500" viewBox="0 0 486 500" fill="none" xmlns="http://www.w3.org/2000/svg">
<g clip-path="url(#clip0_161_3760)">
<rect width="500" height="500" fill="white" fill-opacity="0.1"/>
<path d="M0 382.648H500V382.398H0V382.648ZM416.777 398.746H449.902V398.496H416.777V398.746ZM322.527 401.457H331.219V401.207H322.527V401.457ZM396.586 389.457H415.777V389.207H396.586V389.457ZM52.4609 391.141H95.6523V390.891H52.4609V391.141ZM104.555 391.141H110.891V390.891H104.555V391.141ZM131.473 395.359H225.148V395.109H131.473V395.359ZM43.9141 55.2031C40.9062 55.2031 38.457 57.6523 38.457 60.6602V332.09C38.457 335.102 40.9062 337.551 43.9141 337.551H237.016C240.023 337.551 242.473 335.102 242.473 332.09V60.6602C242.473 57.6523 240.023 55.2031 237.016 55.2031H43.9141ZM237.016 337.801H43.9141C40.7695 337.801 38.207 335.238 38.207 332.09V60.6602C38.207 57.5117 40.7695 54.9531 43.9141 54.9531H237.016C240.16 54.9531 242.723 57.5117 242.723 60.6602V332.09C242.723 335.238 240.16 337.801 237.016 337.801ZM260.211 55.2031C257.203 55.2031 254.754 57.6523 254.754 60.6602V332.09C254.754 335.102 257.203 337.551 260.211 337.551H453.312C456.32 337.551 458.77 335.102 458.77 332.09V60.6602C458.77 57.6523 456.32 55.2031 453.312 55.2031H260.211ZM453.312 337.801H260.211C257.066 337.801 254.504 335.238 254.504 332.09V60.6602C254.504 57.5117 257.066 54.9531 260.211 54.9531H453.312C456.457 54.9531 459.02 57.5117 459.02 60.6602V332.09C459.02 335.238 456.457 337.801 453.312 337.801Z" fill="#EBEBEB"/>
<path d="M66.7969 382.398H202.496V95.6094H66.7969V382.398Z" fill="#E6E6E6"/>
<path d="M63.7812 382.398H199.48V95.6094H63.7812V382.398Z" fill="#F5F5F5"/>
<path d="M194.066 101.691H69.1953V376.316H194.066V101.691Z" fill="#FAFAFA"/>
<path d="M165.309 376.32L133.676 101.691H97.9531L129.586 376.32H165.309Z" fill="white"/>
<path d="M71.4727 101.691H69.1953V376.316H71.4727V101.691Z" fill="#E6E6E6"/>
<path d="M66.0195 133.641H197.242V125.477H66.0195V133.641Z" fill="#F5F5F5"/>
<path d="M274.227 215.996H219.438V382.398H274.227V215.996Z" fill="#F0F0F0"/>
<path d="M271.219 220.863H222.445V269.637H271.219V220.863ZM271.219 274.016H222.445V322.789H271.219V274.016ZM271.219 327.168H222.445V375.941H271.219V327.168Z" fill="#F5F5F5"/>
<path d="M257.629 220.215H236.035C236.035 223.008 238.301 225.273 241.094 225.273H252.57C255.363 225.273 257.629 223.008 257.629 220.215ZM257.629 273.367H236.035C236.035 276.16 238.301 278.426 241.094 278.426H252.57C255.363 278.426 257.629 276.16 257.629 273.367ZM257.629 326.52H236.035C236.035 329.312 238.301 331.578 241.094 331.578H252.57C255.363 331.578 257.629 329.312 257.629 326.52Z" fill="#E6E6E6"/>
<path d="M301.59 215.996H274.227V382.398H301.59V215.996Z" fill="#F5F5F5"/>
<path d="M420.488 378.309H435.68V253.035H420.488V378.309ZM287.715 378.309H433.574V382.398H287.715V378.309Z" fill="#F0F0F0"/>
<path d="M420.488 378.309H285.609V253.035H420.488V378.309Z" fill="#FAFAFA"/>
<path d="M394.082 298C401.598 298 407.711 304.113 407.711 311.629C407.711 319.145 401.598 325.258 394.082 325.258H312.016C304.504 325.258 298.387 319.145 298.387 311.629C298.387 304.113 304.504 298 312.016 298H394.082ZM312.016 326.238H394.082C402.137 326.238 408.691 319.684 408.691 311.629C408.691 303.574 402.137 297.02 394.082 297.02H312.016C303.961 297.02 297.406 303.574 297.406 311.629C297.406 319.684 303.961 326.238 312.016 326.238ZM394.082 334.348C401.598 334.348 407.711 340.461 407.711 347.977C407.711 355.488 401.598 361.605 394.082 361.605H312.016C304.504 361.605 298.387 355.488 298.387 347.977C298.387 340.461 304.504 334.348 312.016 334.348H394.082ZM312.016 362.586H394.082C402.137 362.586 408.691 356.031 408.691 347.977C408.691 339.918 402.137 333.367 394.082 333.367H312.016C303.961 333.367 297.406 339.918 297.406 347.977C297.406 356.031 303.961 362.586 312.016 362.586Z" fill="#F0F0F0"/>
<path d="M340.668 308.477H365.434C367.109 308.477 368.48 307.105 368.48 305.43C368.48 303.754 367.109 302.383 365.434 302.383H340.668C338.992 302.383 337.617 303.754 337.617 305.43C337.617 307.105 338.992 308.477 340.668 308.477Z" fill="#EBEBEB"/>
<path d="M394.082 261.656C401.598 261.656 407.711 267.77 407.711 275.281C407.711 282.797 401.598 288.91 394.082 288.91H312.016C304.504 288.91 298.387 282.797 298.387 275.281C298.387 267.77 304.504 261.656 312.016 261.656H394.082ZM312.016 289.891H394.082C402.137 289.891 408.691 283.34 408.691 275.281C408.691 267.227 402.137 260.672 394.082 260.672H312.016C303.961 260.672 297.406 267.227 297.406 275.281C297.406 283.34 303.961 289.891 312.016 289.891Z" fill="#F0F0F0"/>
<path d="M340.668 272.133H365.434C367.109 272.133 368.48 270.762 368.48 269.082C368.48 267.406 367.109 266.035 365.434 266.035H340.668C338.992 266.035 337.617 267.406 337.617 269.082C337.617 270.762 338.992 272.133 340.668 272.133ZM340.668 344.824H365.434C367.109 344.824 368.48 343.453 368.48 341.777C368.48 340.098 367.109 338.727 365.434 338.727H340.668C338.992 338.727 337.617 340.098 337.617 341.777C337.617 343.453 338.992 344.824 340.668 344.824Z" fill="#EBEBEB"/>
<path d="M282.836 246.668H420.488V253.035H282.836V246.668Z" fill="#F0F0F0"/>
<path d="M438.656 246.668H420.488V253.035H438.656V246.668Z" fill="#E6E6E6"/>
<path d="M322.023 146.387C325.094 147.926 333.41 146.273 330.641 151.902C329.336 154.551 327.215 157.375 324.953 160.164C321.855 163.984 322.441 168.129 326.098 169.637C326.984 170 327.711 170.453 328.121 171.043C329.805 173.457 325.824 176.695 323.871 179.117C321.984 181.453 321.129 183.914 322.574 185.715C324.168 187.703 327.492 186.973 330.129 187.574C336.477 189.016 329.949 197.77 330.621 202.266C331.082 205.34 333.578 206.199 336.973 206.633C339.738 206.988 343.43 207.238 343.582 210.074C343.719 212.527 340.519 215.309 339.684 217.891C338.867 220.398 339.144 222.832 340.297 224.687C341.328 226.344 343.027 227.469 345.277 227.945C348.418 228.613 353.176 227.922 353.398 231.465C353.5 233.051 352.398 234.453 353.164 235.91C353.812 237.141 355.281 237.762 356.852 238.078C359.379 238.582 363.019 238.449 365.91 237.918C369.602 237.242 375.047 233.988 373.047 230.855C372.484 229.977 371.402 229.465 370.191 229.219C369.309 229.035 366.73 229.316 366.398 228.719C366.066 228.117 366.957 225.816 366.992 224.977C367.102 222.566 366.672 220.301 365.918 218.211C364.898 215.371 363.285 212.82 361.156 210.668C360.285 209.781 358.887 209.133 358.707 207.844C358.539 206.613 359.344 205.129 360.238 203.871C361.648 201.883 363.836 199.984 364.629 197.859C365.871 194.52 362.859 193.457 360.07 192.699C357.547 192.012 354.227 191.129 355.082 188.066C355.703 185.855 358.488 184.047 359.324 181.891C360.445 178.996 357.715 178.883 355.754 177.848C353.215 176.508 352.57 174.113 353.492 171.078C355.016 166.074 364.187 159.012 359.492 155.762C358.301 154.934 357.195 154.656 356.477 153.414C355.711 152.086 355.598 150.434 354.602 149.23C353.019 147.316 349.754 146.996 348.047 145.223C344.543 141.582 352.109 135.129 345.203 133.594C343.625 133.242 342.227 132.91 341.168 131.922C340.535 131.332 340.023 128.48 339.312 128.281C336.144 127.398 330.43 133.547 328.633 135.445C326.449 137.754 318.363 144.551 322.023 146.387Z" fill="#E0E0E0"/>
<path d="M376.387 231.207C374.504 227.727 366.281 224.25 371.738 220.207C374.308 218.305 377.691 216.731 381.18 215.281C385.957 213.293 387.66 208.684 385.238 204.871C384.648 203.945 384.254 203.031 384.203 202.172C384.012 198.652 389.258 197.809 392.277 196.543C395.191 195.324 397.266 193.332 396.953 190.59C396.609 187.566 393.289 186.25 391.281 183.996C386.453 178.574 396.898 173.668 398.711 168.645C399.949 165.207 398.207 162.777 395.449 160.227C393.195 158.145 390.07 155.598 391.453 152.598C392.648 150 396.957 149.137 399.078 147.016C401.141 144.957 402.199 142.289 402.176 139.672C402.156 137.336 401.254 135.133 399.527 133.242C397.109 130.606 392.547 128.363 394.242 124.594C395.004 122.906 396.726 122.156 396.828 120.188C396.918 118.523 395.953 116.973 394.734 115.676C392.777 113.59 389.492 111.469 386.656 110.215C383.039 108.613 376.492 108.559 376.582 113.012C376.605 114.262 377.285 115.457 378.223 116.465C378.906 117.199 381.332 118.512 381.301 119.332C381.273 120.152 379.258 121.957 378.773 122.793C377.387 125.195 376.558 127.781 376.101 130.391C375.484 133.93 375.543 137.547 376.266 141.074C376.562 142.52 377.449 144.055 376.914 145.484C376.406 146.852 374.902 147.871 373.437 148.606C371.129 149.762 368.183 150.348 366.348 152.031C363.461 154.68 365.551 157.637 367.609 160.148C369.465 162.418 371.922 165.383 369.527 167.988C367.797 169.867 364.371 169.992 362.48 171.68C359.941 173.945 362.289 175.762 363.465 178.035C364.992 180.988 364.277 183.836 361.836 186.375C357.816 190.551 345.945 192.086 348.344 198.332C348.957 199.922 349.781 200.891 349.75 202.609C349.719 204.445 348.93 206.207 349.164 208.059C349.539 211 352.25 213.356 352.805 216.234C353.949 222.137 343.816 224.047 349.086 229.91C350.293 231.25 351.348 232.461 351.754 234.125C351.996 235.121 350.922 238.363 351.445 239.008C353.766 241.883 362.101 239.137 364.699 238.309C367.863 237.301 378.637 235.363 376.387 231.207Z" fill="#F5F5F5"/>
<path d="M397.469 223.344C397.469 223.344 396.473 246.668 358.289 246.668C320.109 246.668 319.113 223.344 319.113 223.344H397.469Z" fill="#F0F0F0"/>
<path d="M443.891 416.238C443.891 422.492 357.082 427.562 250 427.562C142.918 427.562 56.1094 422.492 56.1094 416.238C56.1094 409.984 142.918 404.914 250 404.914C357.082 404.914 443.891 409.984 443.891 416.238Z" fill="#F5F5F5"/>
<mask id="mask0_161_3760" style="mask-type:luminance" maskUnits="userSpaceOnUse" x="0" y="0" width="500" height="500">
<path d="M0 0H500V500H0V0Z" fill="black" fill-opacity="0.199997"/>
</mask>
<g mask="url(#mask0_161_3760)">
<mask id="mask1_161_3760" style="mask-type:luminance" maskUnits="userSpaceOnUse" x="233" y="208" width="128" height="200">
<path d="M233 208H361V408H233V208Z" fill="white"/>
</mask>
<g mask="url(#mask1_161_3760)">
<mask id="mask2_161_3760" style="mask-type:luminance" maskUnits="userSpaceOnUse" x="233" y="290" width="128" height="118">
<path d="M233.348 290H360.73V407.867H233.348V290Z" fill="white"/>
</mask>
<g mask="url(#mask2_161_3760)">
<path d="M360.73 407.867L297.039 290.152L233.348 407.867H360.73Z" fill="#D6D98B"/>
</g>
<mask id="mask3_161_3760" style="mask-type:luminance" maskUnits="userSpaceOnUse" x="233" y="208" width="128" height="119">
<path d="M233.348 208.719H360.73V327H233.348V208.719Z" fill="white"/>
</mask>
<g mask="url(#mask3_161_3760)">
<path d="M360.73 208.719L297.039 326.434L233.348 208.719H360.73Z" fill="#D6D98B"/>
</g>
</g>
</g>
<path d="M308.707 278.215L299.387 295.441C298.375 297.305 295.699 297.305 294.691 295.441L285.371 278.215C281.695 271.422 286.617 263.164 294.344 263.164H299.734C307.461 263.164 312.383 271.422 308.707 278.215ZM298.055 378.148L326.965 390.047C329.668 391.16 328.875 395.184 325.949 395.184H268.129C265.207 395.184 264.41 391.16 267.113 390.047L296.023 378.148C296.676 377.883 297.402 377.883 298.055 378.148ZM300.746 351.797C300.746 353.844 299.086 355.504 297.039 355.504C294.992 355.504 293.332 353.844 293.332 351.797C293.332 349.746 294.992 348.086 297.039 348.086C299.086 348.086 300.746 349.746 300.746 351.797ZM298.949 313.051C298.949 314.105 298.094 314.961 297.039 314.961C295.984 314.961 295.129 314.105 295.129 313.051C295.129 311.992 295.984 311.137 297.039 311.137C298.094 311.137 298.949 311.992 298.949 313.051ZM299.211 331.523C299.211 332.723 298.238 333.695 297.039 333.695C295.84 333.695 294.867 332.723 294.867 331.523C294.867 330.324 295.84 329.352 297.039 329.352C298.238 329.352 299.211 330.324 299.211 331.523ZM360.406 402.066H233.672C230.48 402.066 227.871 404.676 227.871 407.867C227.871 411.055 230.48 413.668 233.672 413.668H360.406C363.598 413.668 366.207 411.055 366.207 407.867C366.207 404.676 363.598 402.066 360.406 402.066ZM360.406 202.918H233.672C230.48 202.918 227.871 205.531 227.871 208.719C227.871 211.91 230.48 214.523 233.672 214.523H360.406C363.598 214.523 366.207 211.91 366.207 208.719C366.207 205.531 363.598 202.918 360.406 202.918Z" fill="#A4A66A"/>
<path d="M194.629 405.676L187.578 403.387L191.961 386.762L199.012 389.051L194.629 405.676Z" fill="#FF8B7B"/>
<path d="M187.473 402.453L195.395 405.024C195.68 405.117 195.836 405.387 195.762 405.676L194.109 412.066C193.938 412.731 193.129 413.149 192.469 412.922C189.727 411.977 188.461 411.387 184.977 410.258C182.836 409.563 175.77 407.734 172.809 406.777C169.914 405.836 170.883 402.918 172.223 403.059C178.234 403.695 183.617 403.41 186.117 402.492C186.566 402.324 187.051 402.316 187.473 402.453Z" fill="#263238"/>
<mask id="mask4_161_3760" style="mask-type:luminance" maskUnits="userSpaceOnUse" x="0" y="0" width="500" height="500">
<path d="M0 0H500V500H0V0Z" fill="black" fill-opacity="0.199997"/>
</mask>
<g mask="url(#mask4_161_3760)">
<mask id="mask5_161_3760" style="mask-type:luminance" maskUnits="userSpaceOnUse" x="189" y="386" width="11" height="12">
<path d="M189.699 386.766H199.012V397.625H189.699V386.766Z" fill="white"/>
</mask>
<g mask="url(#mask5_161_3760)">
<path d="M199.012 389.055L191.957 386.766L189.699 395.336L196.754 397.625L199.012 389.055Z" fill="black"/>
</g>
</g>
<path d="M218.277 220.723C218.277 220.723 205.625 279.27 202.66 300.32C199.41 323.375 187.203 392.594 187.203 392.594L200.293 396.211C200.293 396.211 218.43 329.078 223.727 306.668C229.477 282.344 244.77 220.723 244.77 220.723H218.277Z" fill="#D6D98B"/>
<mask id="mask6_161_3760" style="mask-type:luminance" maskUnits="userSpaceOnUse" x="0" y="0" width="500" height="500">
<path d="M0 0H500V500H0V0Z" fill="black" fill-opacity="0.300003"/>
</mask>
<g mask="url(#mask6_161_3760)">
<mask id="mask7_161_3760" style="mask-type:luminance" maskUnits="userSpaceOnUse" x="227" y="236" width="13" height="52">
<path d="M227.73 236.984H239.48V287.27H227.73V236.984Z" fill="white"/>
</mask>
<g mask="url(#mask7_161_3760)">
<path d="M233.922 239.918C228.93 251.262 226.453 275.961 228.391 287.269C231.93 272.719 236.191 255.418 239.481 242.109C238.371 238.25 236.531 233.988 233.922 239.918Z" fill="black"/>
</g>
</g>
<path d="M200.621 396.469L186.605 392.605L186.875 386.895L202.66 392.355L200.621 396.469ZM186.16 402.844C184.816 402.684 183.902 402.344 183.676 401.91C183.586 401.73 183.609 401.523 183.75 401.285C183.816 401.172 183.898 401.117 184.008 401.113C184.531 401.082 185.512 402.055 186.16 402.844ZM184.574 402.867C185.227 403.082 185.988 403.18 186.535 403.227C186.602 403.234 186.668 403.199 186.699 403.137C186.734 403.078 186.727 403.004 186.688 402.949C186.512 402.723 184.957 400.707 183.988 400.77C183.762 400.781 183.578 400.898 183.453 401.109C183.25 401.453 183.223 401.777 183.371 402.066C183.563 402.438 184.027 402.691 184.574 402.867Z" fill="#263238"/>
<path d="M186.461 400.047C186.598 400.094 186.695 400.176 186.766 400.309C187.059 400.852 186.738 402.035 186.5 402.699C186.055 401.98 185.719 400.633 185.992 400.164C186.043 400.074 186.133 399.98 186.383 400.027C186.41 400.035 186.434 400.039 186.461 400.047ZM186.496 403.219C186.523 403.227 186.551 403.23 186.578 403.227C186.637 403.215 186.684 403.176 186.707 403.121C186.742 403.039 187.559 401.063 187.07 400.145C186.937 399.898 186.73 399.746 186.449 399.688C186.109 399.625 185.84 399.73 185.691 399.992C185.277 400.711 185.852 402.523 186.418 403.168C186.441 403.191 186.465 403.211 186.496 403.219ZM231.738 165.137C231.355 166.027 231.043 166.707 230.687 167.473C230.336 168.211 229.965 168.934 229.594 169.656C228.848 171.098 228.07 172.516 227.262 173.922C225.621 176.719 223.855 179.461 221.859 182.098C219.883 184.742 217.703 187.305 215.207 189.695C212.727 192.094 209.887 194.32 206.531 196.105L206.281 196.238C205.875 196.453 205.43 196.609 205.004 196.703C202.594 197.219 200.152 197.023 198.133 196.43C196.094 195.84 194.391 194.953 192.891 193.996C189.902 192.055 187.672 189.754 185.645 187.43C183.656 185.074 181.93 182.633 180.383 180.117C178.836 177.574 177.469 175.066 176.25 172.273C175.531 170.637 176.281 168.727 177.922 168.012C179.277 167.414 180.82 167.828 181.719 168.918L181.816 169.039C183.469 171.047 185.258 173.172 187.059 175.113C188.867 177.07 190.723 178.941 192.641 180.594C194.531 182.254 196.539 183.687 198.383 184.594C199.297 185.039 200.168 185.32 200.848 185.406C201.539 185.492 201.969 185.426 202.289 185.285L200.762 185.887C202.695 184.633 204.586 182.926 206.375 180.984C208.156 179.031 209.836 176.852 211.422 174.559C213 172.262 214.496 169.848 215.914 167.371C216.625 166.141 217.316 164.887 217.973 163.621L218.937 161.727C219.25 161.121 219.594 160.422 219.828 159.926L219.891 159.793C221.426 156.547 225.301 155.16 228.547 156.695C231.715 158.195 233.105 161.937 231.738 165.137Z" fill="#3F4029"/>
<mask id="mask8_161_3760" style="mask-type:luminance" maskUnits="userSpaceOnUse" x="0" y="0" width="500" height="500">
<path d="M0 0H500V500H0V0Z" fill="black" fill-opacity="0.300003"/>
</mask>
<g mask="url(#mask8_161_3760)">
<mask id="mask9_161_3760" style="mask-type:luminance" maskUnits="userSpaceOnUse" x="213" y="171" width="16" height="20">
<path d="M213.754 171.23H228.094V190.992H213.754V171.23Z" fill="white"/>
</mask>
<g mask="url(#mask9_161_3760)">
<path d="M215.391 178.711C218.532 170.371 225.203 170.231 228.094 172.442C227.883 172.832 227.66 173.223 227.442 173.614C225.883 176.325 224.172 178.961 222.293 181.524C220.41 184.075 218.352 186.563 216.024 188.903C215.301 189.614 214.563 190.313 213.793 190.992C213.633 187.063 213.934 182.614 215.391 178.711Z" fill="black"/>
</g>
</g>
<path d="M175.977 172.793L169.48 173.023L171.105 166.086C171.105 166.086 174.973 166.242 177.73 167.047C179.406 167.535 180.09 169.547 179.137 171.004L179.133 171.012C178.434 172.082 177.258 172.75 175.977 172.793Z" fill="#FF8B7B"/>
<path d="M179.641 166.914C179.102 166.488 178.398 166.082 177.496 165.809C176.945 168.645 173.531 173.445 173.531 173.445H176.238C176.945 173.445 177.621 173.129 178.074 172.586L179.969 170.312C180.828 169.285 180.684 167.75 179.641 166.914Z" fill="#717349"/>
<path d="M164.516 169.832L166.344 164.93L171.105 166.086L169.48 173.023L164.516 169.832ZM246.25 408.922H238.836L238.582 391.754H245.992L246.25 408.922Z" fill="#FF8B7B"/>
<path d="M238.449 408.062H246.777C247.078 408.062 247.308 408.273 247.324 408.566L247.73 415.156C247.773 415.844 247.129 416.488 246.433 416.477C243.531 416.426 242.148 416.258 238.484 416.258C236.23 416.258 228.699 416.488 225.586 416.488C222.543 416.488 222.566 413.414 223.883 413.137C229.797 411.887 235.078 410.16 237.172 408.52C237.547 408.223 238.004 408.062 238.449 408.062Z" fill="#263238"/>
<mask id="mask10_161_3760" style="mask-type:luminance" maskUnits="userSpaceOnUse" x="0" y="0" width="500" height="500">
<path d="M0 0H500V500H0V0Z" fill="black" fill-opacity="0.199997"/>
</mask>
<g mask="url(#mask10_161_3760)">
<mask id="mask11_161_3760" style="mask-type:luminance" maskUnits="userSpaceOnUse" x="238" y="391" width="9" height="10">
<path d="M238.578 391.758H246.133V400.605H238.578V391.758Z" fill="white"/>
</mask>
<g mask="url(#mask11_161_3760)">
<path d="M245.996 391.758H238.578L238.715 400.605H246.133L245.996 391.758Z" fill="black"/>
</g>
</g>
<path d="M232.738 220.723C232.738 220.723 229.91 285.133 231.109 306.359C232.426 329.602 235.191 398.469 235.191 398.469H248.773C248.773 398.469 252.195 331.48 253.012 308.465C253.902 283.488 257.926 220.723 257.926 220.723H232.738Z" fill="#D6D98B"/>
<path d="M249.32 398.469H234.645L233.527 393.012L249.723 393.82L249.32 398.469ZM237.32 408.84C235.996 409.102 235.02 409.062 234.672 408.719C234.527 408.574 234.488 408.371 234.551 408.102C234.578 407.973 234.637 407.898 234.738 407.859C235.227 407.668 236.461 408.289 237.32 408.84ZM235.82 409.355C236.504 409.355 237.262 409.215 237.797 409.09C237.863 409.074 237.914 409.02 237.926 408.953C237.938 408.887 237.91 408.816 237.855 408.777C237.617 408.613 235.52 407.18 234.613 407.535C234.406 407.617 234.266 407.785 234.211 408.023C234.125 408.418 234.195 408.734 234.43 408.965C234.723 409.254 235.246 409.355 235.82 409.355Z" fill="#263238"/>
<path d="M236.742 406.09C236.887 406.09 237.008 406.137 237.113 406.238C237.562 406.668 237.621 407.891 237.602 408.594C236.957 408.051 236.223 406.875 236.332 406.344C236.355 406.242 236.41 406.125 236.664 406.094C236.691 406.09 236.719 406.09 236.742 406.09ZM237.758 409.094C237.785 409.094 237.812 409.086 237.836 409.074C237.891 409.047 237.926 408.996 237.93 408.934C237.937 408.844 238.102 406.715 237.355 405.992C237.152 405.797 236.906 405.719 236.621 405.75C236.281 405.793 236.059 405.977 235.996 406.273C235.824 407.082 236.93 408.629 237.668 409.07C237.695 409.086 237.727 409.094 237.758 409.094ZM261.645 160.937C262.113 158.316 260.316 155.828 257.684 155.445L257.598 155.43C255.207 155.082 252.207 154.723 249.266 154.582C244.207 154.34 236.875 154.18 232.414 154.582C229.828 154.82 227.297 155.25 225.277 155.641C225.25 155.648 225.227 155.652 225.199 155.656C222.625 156.18 220.551 158.082 219.805 160.598C217.387 168.754 214.504 185.391 218.277 220.723H257.926C258.207 217.18 257.418 205.664 257.996 190.992C258.438 179.812 260.426 167.766 261.645 160.937Z" fill="#3F4029"/>
<mask id="mask12_161_3760" style="mask-type:luminance" maskUnits="userSpaceOnUse" x="0" y="0" width="500" height="500">
<path d="M0 0H500V500H0V0Z" fill="black" fill-opacity="0.300003"/>
</mask>
<g mask="url(#mask12_161_3760)">
<mask id="mask13_161_3760" style="mask-type:luminance" maskUnits="userSpaceOnUse" x="254" y="162" width="8" height="20">
<path d="M254.395 162.258H261.262V181.09H254.395V162.258Z" fill="white"/>
</mask>
<g mask="url(#mask13_161_3760)">
<path d="M261.262 163.121C260.437 167.863 259.426 174.309 258.727 181.09C258.727 181.09 255.109 173.992 254.449 167.918C253.793 161.844 258.965 161.418 261.262 163.121Z" fill="black"/>
</g>
</g>
<mask id="mask14_161_3760" style="mask-type:luminance" maskUnits="userSpaceOnUse" x="0" y="0" width="500" height="500">
<path d="M0 0H500V500H0V0Z" fill="black" fill-opacity="0.199997"/>
</mask>
<g mask="url(#mask14_161_3760)">
<mask id="mask15_161_3760" style="mask-type:luminance" maskUnits="userSpaceOnUse" x="232" y="154" width="20" height="11">
<path d="M232 154H252V165H232V154Z" fill="white"/>
</mask>
<g mask="url(#mask15_161_3760)">
<mask id="mask16_161_3760" style="mask-type:luminance" maskUnits="userSpaceOnUse" x="234" y="156" width="14" height="9">
<path d="M234 156H248V164.645H234V156Z" fill="white"/>
</mask>
<g mask="url(#mask16_161_3760)">
<path d="M234.668 164.059C234.531 164.059 234.402 163.984 234.336 163.855C234.238 163.672 234.312 163.445 234.496 163.348L246.855 156.941C247.039 156.844 247.266 156.918 247.359 157.102C247.457 157.285 247.387 157.512 247.199 157.605L234.84 164.016C234.785 164.043 234.727 164.059 234.668 164.059Z" fill="white"/>
</g>
<mask id="mask17_161_3760" style="mask-type:luminance" maskUnits="userSpaceOnUse" x="233" y="157" width="8" height="8">
<path d="M233 157H241V164.645H233V157Z" fill="white"/>
</mask>
<g mask="url(#mask17_161_3760)">
<path d="M240.332 164.645C240.234 164.645 240.141 164.605 240.066 164.535L233.293 157.797C233.148 157.648 233.145 157.414 233.293 157.266C233.438 157.117 233.676 157.117 233.824 157.266L240.594 164.004C240.742 164.148 240.742 164.387 240.598 164.531C240.523 164.605 240.426 164.645 240.332 164.645Z" fill="white"/>
</g>
<mask id="mask18_161_3760" style="mask-type:luminance" maskUnits="userSpaceOnUse" x="232" y="154" width="20" height="7">
<path d="M232.012 154.336H251.051V161H232.012V154.336Z" fill="white"/>
</mask>
<g mask="url(#mask18_161_3760)">
<path d="M249.262 154.582C244.203 154.34 236.871 154.18 232.422 154.582C232.332 154.59 232.23 154.602 232.141 154.609C231.98 155.27 231.832 156.5 232.57 157.68C233.512 159.18 235.48 160.02 238.441 160.18C238.82 160.199 239.191 160.211 239.551 160.211C247.602 160.211 250.641 155.352 250.773 155.141L251.051 154.691C250.453 154.649 249.863 154.609 249.262 154.582Z" fill="white"/>
</g>
</g>
</g>
<path d="M233.219 154.523C238.117 153.363 238.976 150.332 238.648 147.004C238.578 146.191 238.437 145.352 238.258 144.523L244.398 139.422L248.906 135.684C247.656 141.113 246.246 151.004 249.918 154.621C249.918 154.621 246.879 159.629 238.492 159.176C231.41 158.793 233.219 154.523 233.219 154.523Z" fill="#FF8B7B"/>
<mask id="mask19_161_3760" style="mask-type:luminance" maskUnits="userSpaceOnUse" x="-6" y="16" width="501" height="501">
<path d="M-5.25 16.5H494.75V516.5H-5.25V16.5Z" fill="black" fill-opacity="0.199997"/>
</mask>
<g mask="url(#mask19_161_3760)">
<mask id="mask20_161_3760" style="mask-type:luminance" maskUnits="userSpaceOnUse" x="233" y="155" width="7" height="9">
<path d="M233.008 155.922H239.18V163.5H233.008V155.922Z" fill="white"/>
</mask>
<g mask="url(#mask20_161_3760)">
<path d="M233.008 161.023C233.188 161.852 233.328 162.691 233.395 163.5C235.688 163.043 238.746 160.602 239.066 158.262C239.188 157.383 239.207 156.531 239.145 155.922L233.008 161.023Z" fill="black"/>
</g>
</g>
<path d="M234.973 118.5C231.641 120.457 232.172 125.504 231.266 129.082C233.391 129.293 236.727 125.523 236.727 125.523L238.723 119.793L234.973 118.5Z" fill="#263238"/>
<path d="M252.715 128.559C250.582 135.621 249.695 139.852 245.191 142.797C238.418 147.227 230.301 142.176 230.269 134.691C230.238 127.957 233.727 117.539 241.449 116.102C249.055 114.684 254.844 121.496 252.715 128.559Z" fill="#FF8B7B"/>
<path d="M246.055 134.551C251.051 128.75 244.805 125.887 249.918 121.859C244.168 122.133 234.699 121.723 233.012 117.777C231.32 113.832 236.52 108.5 240.848 108C245.883 107.418 244.766 113.609 244.766 113.609C244.766 113.609 263.902 112.418 257.828 120.555C262.43 120.277 261.164 127.723 253.16 134C251.152 134.723 246.055 134.551 246.055 134.551Z" fill="#263238"/>
<path d="M256.68 120.707C256.68 120.707 260.621 119.543 260.484 116.418C261.91 117.395 262.055 120.375 256.68 120.707Z" fill="#263238"/>
<path d="M253.879 135.93C252.605 137.492 250.844 138.426 249.336 138.699C247.066 139.113 246.531 137.012 247.664 134.965C248.684 133.121 251.094 130.687 253.129 131.203C255.133 131.711 255.332 134.141 253.879 135.93Z" fill="#FF8B7B"/>
<path d="M241.316 128.375C241.18 128.961 240.758 129.367 240.375 129.293C239.992 129.215 239.793 128.68 239.93 128.098C240.066 127.516 240.488 127.105 240.871 127.184C241.258 127.262 241.453 127.793 241.316 128.375ZM234.691 127.051C234.551 127.637 234.129 128.047 233.746 127.969C233.363 127.891 233.164 127.355 233.301 126.773C233.437 126.191 233.859 125.781 234.246 125.859C234.629 125.938 234.828 126.469 234.691 127.051Z" fill="#263238"/>
<path d="M236.727 127.762C236.727 127.762 234.602 130.855 232.75 132.184C233.563 133.352 235.43 133.266 235.43 133.266L236.727 127.762Z" fill="#FF5652"/>
<path d="M237.457 135.313C239.805 135.496 241.231 134.137 241.297 134.074C241.367 134.008 241.367 133.895 241.301 133.824C241.234 133.754 241.121 133.754 241.051 133.824C241.035 133.836 239.41 135.387 236.832 134.871C236.738 134.852 236.645 134.914 236.629 135.008C236.609 135.105 236.668 135.195 236.766 135.215C237.004 135.262 237.234 135.293 237.457 135.313ZM243.879 126.766C243.934 126.77 243.992 126.758 244.051 126.734C244.227 126.652 244.305 126.445 244.223 126.27C243.426 124.523 241.813 124.297 241.746 124.289C241.566 124.246 241.379 124.398 241.352 124.59C241.328 124.785 241.465 124.961 241.656 124.984C241.723 124.996 242.961 125.188 243.586 126.559C243.641 126.68 243.754 126.754 243.879 126.766ZM233.047 123.07C233.156 123.105 233.277 123.09 233.371 123.016C234.633 122.035 235.883 122.414 235.895 122.418C236.082 122.477 236.277 122.371 236.336 122.188C236.395 122.004 236.293 121.809 236.109 121.746H236.106C236.043 121.727 234.488 121.254 232.941 122.461C232.789 122.578 232.758 122.801 232.879 122.953C232.922 123.012 232.984 123.051 233.047 123.07ZM262.027 158.086L262.863 159.223L263.613 160.285C264.106 160.992 264.559 161.703 265.024 162.414C265.941 163.836 266.797 165.289 267.629 166.746C269.281 169.672 270.805 172.664 272.149 175.746C272.848 177.273 273.453 178.848 274.094 180.402C274.656 181.996 275.27 183.563 275.762 185.184C276.856 188.379 277.641 191.691 278.363 195.012L278.445 195.387C278.75 196.793 278.449 198.207 277.727 199.328C276.469 201.27 274.938 203.094 273.18 204.723C271.434 206.355 269.375 207.715 267.199 208.746C265.012 209.77 262.668 210.406 260.336 210.648C259.168 210.773 258 210.785 256.844 210.715C256.262 210.668 255.684 210.602 255.102 210.512C254.813 210.465 254.52 210.402 254.223 210.34L253.215 210.094C252.969 210.035 252.816 209.785 252.875 209.535L254.262 203.738C254.27 203.695 254.524 203.68 254.68 203.641L255.231 203.527C255.606 203.453 255.984 203.363 256.359 203.258C257.106 203.059 257.832 202.797 258.531 202.504C259.926 201.91 261.203 201.18 262.316 200.27C264.574 198.504 266.254 196.152 267.582 193.426L266.945 197.742C266.09 194.914 265.184 192.105 264.074 189.344C262.996 186.578 261.785 183.852 260.469 181.172C259.152 178.492 257.762 175.84 256.254 173.262C255.512 171.969 254.727 170.699 253.949 169.438L252.762 167.582L252.168 166.68L251.621 165.879L251.422 165.586C249.406 162.617 250.176 158.578 253.141 156.563C256.039 154.59 259.969 155.289 262.027 158.086Z" fill="#3F4029"/>
<path d="M248.785 209.477L246.625 213.004L255.965 212.625C255.965 212.625 258.406 206.348 255.066 205.355L253.773 205.715C251.695 206.293 249.91 207.637 248.785 209.477Z" fill="#FF8B7B"/>
<path d="M252.621 204.547C252.051 204.93 251.453 205.477 250.918 206.258C253.457 207.637 257 212.344 257 212.344L257.82 209.762C258.031 209.086 257.934 208.348 257.551 207.75L255.961 205.258C255.238 204.129 253.73 203.801 252.621 204.547Z" fill="#717349"/>
<path d="M247.445 218.422L255.141 217.738L255.965 212.625L246.625 213.004L247.445 218.422Z" fill="#FF8B7B"/>
<path d="M153.055 96.3359L152.547 95.4766C154.008 94.6094 155.547 93.8438 157.121 93.2031L157.5 94.1289C155.973 94.7539 154.477 95.4961 153.055 96.3359ZM138.457 113.949L137.516 113.609C139.879 107.066 144.117 101.426 149.773 97.3047L150.363 98.1133C144.871 102.117 140.754 107.594 138.457 113.949Z" fill="#D6D98B"/>
<path d="M200.977 125.391C200.977 142.387 187.195 156.168 170.199 156.168C153.199 156.168 139.422 142.387 139.422 125.391C139.422 108.391 153.199 94.6133 170.199 94.6133C187.195 94.6133 200.977 108.391 200.977 125.391Z" fill="#D6D98B"/>
<mask id="mask21_161_3760" style="mask-type:luminance" maskUnits="userSpaceOnUse" x="0" y="0" width="500" height="500">
<path d="M0 0H500V500H0V0Z" fill="black" fill-opacity="0.600006"/>
</mask>
<g mask="url(#mask21_161_3760)">
<mask id="mask22_161_3760" style="mask-type:luminance" maskUnits="userSpaceOnUse" x="144" y="99" width="52" height="53">
<path d="M144.48 99.6719H195.91V151.102H144.48V99.6719Z" fill="white"/>
</mask>
<g mask="url(#mask22_161_3760)">
<path d="M195.91 125.387C195.91 139.594 184.402 151.102 170.195 151.102C163.465 151.102 157.336 148.52 152.754 144.281C147.668 139.586 144.48 132.855 144.48 125.387C144.48 111.191 156 99.6719 170.195 99.6719C177.723 99.6719 184.484 102.906 189.191 108.051C189.203 108.051 189.227 108.062 189.238 108.098C193.383 112.668 195.91 118.73 195.91 125.387Z" fill="white"/>
</g>
</g>
<path d="M195.91 125.387C195.91 139.594 184.402 151.102 170.195 151.102C163.465 151.102 157.336 148.52 152.754 144.281C148.52 139.699 145.922 133.559 145.922 126.832C145.922 112.633 157.441 101.117 171.637 101.117C178.438 101.117 184.59 103.734 189.191 108.051C189.203 108.051 189.227 108.063 189.238 108.098C193.383 112.668 195.91 118.73 195.91 125.387Z" fill="white"/>
<path d="M170.199 126.891C169.812 126.891 169.43 126.742 169.137 126.449L156.598 113.91C156.012 113.324 156.012 112.375 156.598 111.789C157.184 111.203 158.133 111.203 158.719 111.789L170.199 123.27L176.828 116.637C177.414 116.051 178.363 116.051 178.949 116.637C179.535 117.223 179.535 118.172 178.949 118.758L171.258 126.449C170.965 126.742 170.582 126.891 170.199 126.891Z" fill="#263238"/>
</g>
<defs>
<clipPath id="clip0_161_3760">
<rect width="500" height="500" fill="white"/>
</clipPath>
</defs>
</svg>
