<svg width="772" height="784" viewBox="0 0 772 784" fill="none" xmlns="http://www.w3.org/2000/svg">
<g clip-path="url(#clip0_156_2975)">
<rect width="772" height="784" fill="white" fill-opacity="0.4"/>
<path d="M235.75 647.602H148.821V635.812H235.75V647.602Z" fill="#E0E0E0"/>
<path d="M160.66 636.302C160.962 636.302 161.209 638.776 161.209 641.82C161.209 644.877 160.962 647.351 160.66 647.351C160.359 647.351 160.118 644.877 160.118 641.82C160.118 638.776 160.359 636.302 160.66 636.302ZM158.767 636.057C159.068 636.057 159.315 638.531 159.315 641.581C159.315 644.638 159.068 647.112 158.767 647.112C158.465 647.112 158.224 644.638 158.224 641.581C158.224 638.531 158.465 636.057 158.767 636.057ZM229.025 636.302C229.326 636.302 229.573 638.776 229.573 641.82C229.573 644.877 229.326 647.351 229.025 647.351C228.723 647.351 228.482 644.877 228.482 641.82C228.482 638.776 228.723 636.302 229.025 636.302ZM227.131 636.057C227.432 636.057 227.68 638.531 227.68 641.581C227.68 644.638 227.432 647.112 227.131 647.112C226.829 647.112 226.588 644.638 226.588 641.581C226.588 638.531 226.829 636.057 227.131 636.057ZM215.78 642.065C215.78 642.372 205.822 642.617 193.543 642.617C181.263 642.617 171.306 642.372 171.306 642.065C171.306 641.759 181.263 641.508 193.543 641.508C205.822 641.508 215.78 641.759 215.78 642.065Z" fill="#FAFAFA"/>
<path d="M235.37 712.497H148.441V688.909H235.37V712.497Z" fill="#E0E0E0"/>
<path d="M236.485 705.863C236.491 705.882 236.335 705.974 236.015 706.139C235.695 706.304 235.213 706.531 234.567 706.807C233.271 707.346 231.323 708.105 228.669 708.522C226.063 708.901 222.565 709.005 219.109 707.143C217.408 706.219 215.792 704.822 214.568 702.96C213.361 701.11 212.589 698.691 212.982 696.167C213.193 694.918 213.711 693.681 214.58 692.658C215.43 691.635 216.799 690.875 218.247 690.967C219.706 691.029 221.021 691.88 221.932 692.982C222.855 694.091 223.488 695.506 223.615 697.007C223.958 699.996 222.722 703.101 220.617 705.367C218.548 707.713 215.46 709.146 212.264 709.514C209.049 709.9 205.72 709.379 202.566 708.289C199.411 707.186 196.293 705.386 194.092 702.507C193.012 701.08 192.234 699.297 192.119 697.417C191.957 695.537 192.548 693.515 193.971 692.113C194.677 691.421 195.666 690.949 196.691 690.906C197.716 690.857 198.706 691.194 199.532 691.715C201.209 692.774 202.282 694.581 202.728 696.474C203.549 700.332 202.041 704.35 199.303 706.868C196.552 709.404 192.952 710.531 189.52 710.91C186.058 711.266 182.578 711.002 179.369 709.9C176.179 708.822 173.308 706.684 171.649 703.805C169.973 700.988 169.418 697.423 170.684 694.434C171.281 692.952 172.626 691.635 174.231 691.39C175.799 691.09 177.403 691.525 178.609 692.462C181.064 694.434 181.474 697.827 180.678 700.406C179.876 703.058 178.121 705.092 176.299 706.678C172.584 709.863 168.181 711.241 164.376 711.376C160.534 711.517 157.301 710.439 154.931 709.201C152.548 707.94 150.98 706.513 150.009 705.49C149.527 704.969 149.177 704.559 148.966 704.265C148.749 703.977 148.646 703.818 148.658 703.805C148.773 703.652 150.401 706.384 155.124 708.816C157.47 709.967 160.636 710.953 164.352 710.757C168.031 710.567 172.265 709.177 175.793 706.078C177.53 704.54 179.164 702.58 179.87 700.161C180.582 697.827 180.123 694.802 178.067 693.197C177.059 692.425 175.678 692.064 174.412 692.321C173.121 692.535 172.096 693.534 171.565 694.826C170.467 697.448 170.95 700.694 172.518 703.279C174.05 705.925 176.685 707.878 179.707 708.895C182.729 709.93 186.088 710.175 189.399 709.832C192.692 709.465 196.064 708.375 198.573 706.047C201.046 703.799 202.391 700.1 201.667 696.725C201.269 695.077 200.34 693.528 198.953 692.658C197.596 691.745 195.823 691.776 194.713 692.921C193.591 694.024 193.048 695.733 193.199 697.337C193.296 698.979 193.971 700.541 194.948 701.851C196.944 704.485 199.9 706.231 202.903 707.284C205.943 708.35 209.122 708.846 212.143 708.497C215.165 708.154 217.987 706.862 219.917 704.7C221.878 702.611 223.005 699.775 222.716 697.105C222.505 694.508 220.557 691.978 218.205 691.819C217.047 691.745 215.937 692.321 215.189 693.203C214.423 694.073 213.94 695.187 213.747 696.296C213.368 698.575 214.043 700.822 215.147 702.58C216.281 704.338 217.8 705.698 219.405 706.598C222.65 708.417 226.057 708.405 228.615 708.093C231.22 707.75 233.174 707.07 234.489 706.604C235.792 706.121 236.467 705.82 236.485 705.863Z" fill="#FAFAFA"/>
<path d="M235.37 688.866H156.209V647.945H235.37V688.866Z" fill="#EBEBEB"/>
<path d="M169.357 649.348C169.659 649.348 169.906 658.217 169.906 669.156C169.906 680.096 169.659 688.965 169.357 688.965C169.056 688.965 168.815 680.096 168.815 669.156C168.815 658.217 169.056 649.348 169.357 649.348ZM175.359 648.84C175.66 648.84 175.907 657.598 175.907 668.397C175.907 679.195 175.66 687.948 175.359 687.948C175.057 687.948 174.816 679.195 174.816 668.397C174.816 657.598 175.057 648.84 175.359 648.84ZM226.425 647.529C226.721 647.529 226.968 656.747 226.968 668.115C226.968 679.489 226.721 688.707 226.425 688.707C226.118 688.707 225.876 679.489 225.876 668.115C225.876 656.747 226.118 647.529 226.425 647.529ZM219.369 648.08C219.67 648.08 219.917 657.059 219.917 668.14C219.917 679.22 219.67 688.199 219.369 688.199C219.067 688.199 218.82 679.22 218.82 668.14C218.82 657.059 219.067 648.08 219.369 648.08Z" fill="#E0E0E0"/>
<path d="M645.501 558.612C653.709 554.306 663.371 553.749 672.484 555.28C677.376 556.101 682.478 557.589 685.807 561.32C689.143 565.056 689.77 571.628 685.946 574.837C683.672 576.742 680.494 577.036 677.545 577C670.41 576.914 662.497 575.64 656.797 580.001C653.546 582.488 651.387 586.616 647.497 587.841C643.697 589.035 639.403 586.757 637.389 583.272C635.374 579.786 635.308 575.432 636.243 571.505C636.243 571.505 637.238 562.943 645.501 558.612ZM626.701 521.752C631.719 529.029 641.472 526.615 645.995 522.175C650.513 517.728 652.424 511.291 654.167 505.153C658.142 491.121 662.147 476.403 659.191 462.119C658.311 457.844 656.737 453.587 653.781 450.42C650.826 447.248 646.285 445.361 642.123 446.482C637.208 447.799 634.15 452.693 631.942 457.342C625.447 471.019 622.009 486.184 621.961 501.368C621.936 508.455 622.757 515.897 626.701 521.752ZM612.92 532.195C618.366 525.623 619.403 516.05 616.979 507.824C614.554 499.592 609.072 492.597 602.763 486.882C595.363 480.182 586.66 474.969 577.311 471.631C573.626 470.314 569.748 469.279 565.864 469.653C561.98 470.026 558.066 472.048 556.256 475.557C553.578 480.745 556.142 487.036 558.922 492.174C563.813 501.221 569.41 509.87 575.641 518.028C580.653 524.588 586.388 531.056 594.03 534.027C601.665 536.991 609.597 536.642 613.643 531.264" fill="#EBEBEB"/>
<path d="M626.357 631.549C626.454 631.549 626.605 630.373 626.816 628.241C627.045 625.828 627.334 622.808 627.678 619.213C628.094 615.415 628.637 610.895 629.675 605.971C630.712 601.065 632.334 595.742 634.415 590.346C636.574 584.98 639.198 580.105 642.274 576.209C645.326 572.289 648.872 569.453 652.207 567.818C655.531 566.152 658.51 565.478 660.573 565.178C662.647 564.958 663.811 564.792 663.811 564.7C663.817 564.602 662.647 564.59 660.512 564.645C658.401 564.792 655.295 565.331 651.791 566.954C648.275 568.535 644.511 571.413 641.315 575.413C638.088 579.394 635.362 584.374 633.167 589.831C631.05 595.325 629.451 600.703 628.462 605.713C627.479 610.724 627.027 615.293 626.731 619.127C626.448 622.955 626.339 626.061 626.291 628.204C626.243 630.354 626.267 631.543 626.357 631.549Z" fill="#E0E0E0"/>
<path d="M626.973 624.603C627.021 624.597 627.045 624.07 627.057 623.066C627.057 621.914 627.051 620.456 627.045 618.674C627.039 614.87 627.039 609.358 627.238 602.547C627.57 588.937 628.728 574.292 630.953 553.639C633.064 534.216 635.899 511.615 638.89 496.921C639.53 493.577 640.175 490.57 640.784 487.936C641.363 485.296 641.858 483.024 642.334 481.18C642.744 479.447 643.082 478.038 643.347 476.917C643.564 475.937 643.655 475.416 643.607 475.404C643.564 475.392 643.384 475.882 643.088 476.843C642.756 477.946 642.34 479.336 641.827 481.045C641.273 482.87 640.706 485.131 640.054 487.758C639.373 490.38 638.661 493.381 637.961 496.719C635 510.035 631.87 528.643 629.62 549.345C627.389 570.041 626.381 588.888 626.291 602.535C626.213 609.352 626.351 614.876 626.526 618.686C626.629 620.475 626.719 621.926 626.786 623.078C626.864 624.076 626.924 624.603 626.973 624.603Z" fill="#E0E0E0"/>
<path d="M627.063 588.257C627.153 588.251 627.135 586.622 627.027 583.67C626.864 580.723 626.466 576.467 625.646 571.248C624.783 566.048 623.571 559.868 621.671 553.155C620.845 550.086 618.909 542.73 614.222 531.742C608.034 516.852 599.639 504.682 592.335 497.136C590.622 495.139 588.716 493.693 587.19 492.278C586.4 491.599 585.701 490.925 584.989 490.386C584.271 489.89 583.608 489.424 582.993 488.989C580.586 487.323 579.241 486.441 579.193 486.521C578.976 486.815 584.579 490.165 591.647 497.803C598.692 505.429 606.852 517.52 612.986 532.281C616.406 540.292 618.788 547.434 620.477 553.498C622.431 560.15 623.728 566.262 624.711 571.413C625.64 576.577 626.182 580.797 626.508 583.712C626.773 586.64 626.966 588.257 627.063 588.257Z" fill="#E0E0E0"/>
<path d="M590.073 646.849L593.662 696.743H656.779L660.362 646.849H590.073ZM583.976 646.849H667.895V627.182H583.976V646.849Z" fill="#EBEBEB"/>
<path d="M583.976 694.832V700.284H666.507V694.832H583.976Z" fill="#E0E0E0"/>
<path d="M591.786 709.275L587.92 699.683H663.504L658.992 709.275H591.786Z" fill="#E0E0E0"/>
<path d="M659.191 663.154C659.204 663.166 659.107 663.319 658.896 663.613C658.649 663.95 658.335 664.366 657.955 664.881C657.056 666.051 655.826 667.649 654.276 669.658L654.113 669.873L653.956 669.652C651.646 666.406 648.558 662.07 644.922 656.961H645.44C642.756 660.826 639.765 665.132 636.55 669.75L636.267 670.155L635.959 669.775C632.678 665.812 629.114 661.506 625.41 657.035L626.02 657.023C625.833 657.255 625.64 657.513 625.435 657.764C622.166 661.929 618.999 665.959 616.008 669.775L615.694 670.173L615.405 669.756C612.202 665.157 609.211 660.857 606.502 656.967L607.021 656.998C602.636 662.07 598.915 666.369 596.062 669.677L595.869 669.897L595.719 669.646C594.277 667.178 593.125 665.218 592.287 663.791C591.931 663.16 591.641 662.645 591.406 662.235C591.213 661.88 591.123 661.684 591.141 661.678C591.159 661.665 591.28 661.837 591.509 662.174C591.762 662.566 592.082 663.056 592.48 663.674C593.36 665.071 594.567 667 596.08 669.42L595.743 669.389C598.547 666.051 602.208 661.69 606.521 656.557L606.792 656.232L607.039 656.582C609.771 660.446 612.787 664.728 616.02 669.309L615.417 669.291C618.402 665.475 621.556 661.439 624.825 657.268C625.024 657.016 625.217 656.759 625.404 656.526L625.706 656.147L626.014 656.52C629.705 660.998 633.257 665.316 636.532 669.291L635.941 669.315C639.186 664.716 642.207 660.434 644.922 656.588L645.187 656.214L645.44 656.588C648.999 661.751 652.02 666.13 654.282 669.413L653.962 669.401C655.573 667.441 656.857 665.879 657.786 664.746C658.202 664.262 658.54 663.864 658.812 663.546C659.047 663.276 659.179 663.141 659.191 663.154ZM661.242 646.518C661.242 646.739 645.428 646.916 625.923 646.916C606.412 646.916 590.598 646.739 590.598 646.518C590.598 646.298 606.412 646.12 625.923 646.12C645.428 646.12 661.242 646.298 661.242 646.518Z" fill="#F5F5F5"/>
<path d="M301.4 126.763C301.394 126.775 301.267 126.738 301.038 126.653C300.76 126.536 300.423 126.402 300.012 126.242C299.053 125.838 297.757 125.287 296.116 124.595C292.678 123.1 287.817 120.987 281.846 118.39C269.772 113.043 253.198 105.717 234.899 97.6202C234.338 97.3691 233.783 97.1241 233.271 96.8975H233.608C215.617 104.707 199.405 111.751 187.608 116.871C181.776 119.358 177.041 121.379 173.688 122.812C172.096 123.474 170.829 123.994 169.894 124.38C169.026 124.736 168.561 124.907 168.549 124.876C168.537 124.852 168.978 124.625 169.828 124.227C170.745 123.805 171.987 123.229 173.561 122.506C176.891 121.018 181.589 118.911 187.373 116.32C199.146 111.132 215.322 104.009 233.277 96.1012L233.446 96.0277L233.614 96.1012C234.127 96.334 234.682 96.579 235.237 96.8301C253.505 105.013 270.037 112.424 282.088 117.833C288.016 120.534 292.835 122.727 296.249 124.288C297.865 125.042 299.144 125.642 300.085 126.083C300.477 126.279 300.803 126.438 301.074 126.567C301.291 126.683 301.406 126.751 301.4 126.763Z" fill="#E0E0E0"/>
<path d="M374.637 349.199H73.0988V119.915H374.637V349.199Z" fill="#E0E0E0"/>
<path d="M365.222 339.778H83.6414V130.579H365.222V339.778Z" fill="#FAFAFA"/>
<path d="M145.836 221.976C145.836 221.976 146.131 257.097 147.886 267.809L191.263 265.727C191.263 265.727 187.451 231.206 188.917 221.976H145.836Z" fill="#E0E0E0"/>
<path d="M167.198 226.943C167.198 226.937 167.253 226.931 167.361 226.925C167.482 226.919 167.633 226.913 167.826 226.907C168.236 226.876 168.845 226.907 169.629 226.999C170.407 227.127 171.366 227.335 172.391 227.832C173.41 228.322 174.472 229.124 175.389 230.245C176.281 231.378 177.09 232.787 177.47 234.483C177.825 236.18 177.644 238.091 177.017 239.928C176.71 240.853 176.287 241.76 175.799 242.648C175.31 243.536 174.816 244.424 174.406 245.392C173.591 247.315 172.94 249.434 172.657 251.646L172.638 251.793H172.494C171.125 251.817 169.677 251.842 168.212 251.866C166.674 251.891 165.16 251.915 163.724 251.933L163.561 251.94L163.555 251.774C163.483 249.557 162.5 247.542 161.475 245.753C160.95 244.853 160.383 244.002 159.846 243.15C159.328 242.311 158.742 241.503 158.326 240.627C157.47 238.869 157.325 236.933 157.645 235.261C157.958 233.583 158.501 232.064 159.321 230.87C160.13 229.675 161.167 228.842 162.144 228.291C163.121 227.734 164.05 227.433 164.804 227.244C165.564 227.06 166.173 226.986 166.577 226.95C166.782 226.937 166.939 226.931 167.041 226.931C167.144 226.931 167.198 226.937 167.198 226.943C167.198 226.95 167.144 226.956 167.041 226.962C166.921 226.974 166.77 226.992 166.583 227.011C166.179 227.066 165.582 227.158 164.834 227.36C164.086 227.562 163.181 227.881 162.229 228.438C161.276 228.995 160.274 229.822 159.496 230.998C158.718 232.162 158.194 233.663 157.898 235.304C157.597 236.939 157.747 238.801 158.586 240.498C158.99 241.349 159.563 242.127 160.106 242.985C160.636 243.83 161.215 244.681 161.74 245.594C162.783 247.395 163.797 249.441 163.881 251.768L163.712 251.603C165.154 251.584 166.668 251.56 168.206 251.529C169.677 251.511 171.125 251.486 172.488 251.462L172.331 251.609C172.626 249.336 173.284 247.217 174.122 245.269C174.538 244.289 175.045 243.377 175.533 242.495C176.022 241.625 176.438 240.731 176.74 239.83C177.367 238.036 177.554 236.186 177.216 234.538C176.866 232.903 176.076 231.494 175.22 230.38C174.333 229.283 173.308 228.487 172.313 227.991C171.318 227.489 170.377 227.262 169.611 227.115C168.839 227.011 168.236 226.962 167.826 226.968C167.633 226.968 167.482 226.962 167.361 226.956C167.253 226.956 167.198 226.95 167.198 226.943Z" fill="white"/>
<path d="M169.424 251.407C169.424 251.407 169.412 251.364 169.4 251.272C169.382 251.174 169.357 251.039 169.333 250.862C169.279 250.494 169.195 249.967 169.098 249.294C168.899 247.922 168.61 245.943 168.417 243.481C168.368 242.862 168.332 242.219 168.302 241.545C168.284 240.872 168.254 240.167 168.296 239.438C168.332 238.71 168.447 237.95 168.785 237.233C169.116 236.535 169.665 235.874 170.437 235.555C171.197 235.218 172.168 235.396 172.795 236.008C173.109 236.315 173.314 236.756 173.302 237.215C173.302 237.668 173.127 238.115 172.862 238.477C172.596 238.844 172.222 239.132 171.818 239.334C171.414 239.543 170.974 239.671 170.528 239.769C169.641 239.959 168.718 240.063 167.789 240.094C166.861 240.112 165.938 240.094 165.033 239.953C164.587 239.879 164.146 239.763 163.73 239.573C163.32 239.383 162.94 239.114 162.639 238.783C162.331 238.452 162.102 238.048 162.005 237.607C161.909 237.166 161.975 236.694 162.162 236.302C162.349 235.904 162.669 235.567 163.067 235.402C163.471 235.237 163.929 235.286 164.303 235.463C164.683 235.641 164.997 235.923 165.226 236.26C165.455 236.596 165.594 236.976 165.684 237.356C165.865 238.122 165.859 238.881 165.908 239.604C165.98 241.049 166.046 242.403 166.113 243.634C166.233 246.096 166.336 248.093 166.402 249.477C166.432 250.163 166.456 250.696 166.475 251.064C166.481 251.241 166.487 251.382 166.493 251.48V251.621C166.493 251.621 166.481 251.572 166.475 251.48C166.469 251.382 166.462 251.247 166.444 251.07C166.426 250.696 166.39 250.163 166.348 249.483C166.269 248.099 166.155 246.102 166.016 243.64C165.95 242.409 165.871 241.055 165.793 239.61C165.745 238.887 165.745 238.128 165.57 237.387C165.479 237.013 165.347 236.645 165.124 236.327C164.906 236.015 164.605 235.739 164.255 235.58C163.899 235.414 163.483 235.371 163.115 235.525C162.747 235.672 162.452 235.984 162.277 236.358C162.102 236.731 162.042 237.166 162.132 237.576C162.229 237.993 162.446 238.373 162.735 238.691C163.32 239.34 164.177 239.683 165.057 239.818C165.944 239.959 166.867 239.977 167.783 239.953C168.712 239.928 169.623 239.824 170.497 239.634C170.938 239.536 171.366 239.414 171.758 239.212C172.15 239.016 172.5 238.746 172.753 238.397C173.006 238.054 173.169 237.632 173.175 237.215C173.181 236.792 172.994 236.394 172.705 236.1C172.12 235.525 171.203 235.353 170.485 235.672C169.75 235.972 169.213 236.609 168.887 237.289C168.567 237.981 168.447 238.728 168.405 239.445C168.362 240.167 168.392 240.866 168.411 241.539C168.429 242.213 168.471 242.856 168.513 243.475C168.694 245.931 168.971 247.915 169.146 249.281C169.237 249.961 169.309 250.494 169.357 250.862C169.382 251.033 169.4 251.174 169.412 251.272C169.424 251.364 169.424 251.407 169.424 251.407Z" fill="white"/>
<path d="M163.712 251.64C163.736 251.664 163.773 252.191 163.827 253.103C163.881 254.169 163.947 255.437 164.02 256.925L163.984 256.827C164.858 257.85 165.841 259.002 166.903 260.245L166.752 260.184C167.82 260.123 168.953 260.055 170.129 259.988L169.985 260.061C170.528 259.388 171.094 258.689 171.667 257.979C171.951 257.624 172.234 257.275 172.512 256.932L172.47 257.066C172.421 255.057 172.379 253.159 172.337 251.419L172.524 251.597C170.063 251.627 167.928 251.652 166.215 251.67C165.534 251.67 164.931 251.67 164.394 251.664C163.966 251.664 163.73 251.658 163.712 251.64C163.7 251.627 163.911 251.609 164.315 251.584C164.84 251.554 165.425 251.523 166.095 251.493C167.838 251.419 170.009 251.333 172.512 251.235L172.693 251.223L172.699 251.413C172.747 253.146 172.807 255.045 172.868 257.06V257.134L172.819 257.189C172.542 257.532 172.265 257.881 171.981 258.236C171.402 258.947 170.835 259.645 170.292 260.313L170.238 260.386H170.154C168.971 260.447 167.838 260.502 166.776 260.558H166.68L166.625 260.49C165.582 259.228 164.617 258.059 163.76 257.023L163.724 256.981V256.932C163.712 255.413 163.694 254.108 163.688 253.018C163.688 252.105 163.694 251.621 163.712 251.64Z" fill="white"/>
<path d="M172.427 256.601C172.421 256.613 172.307 256.558 172.108 256.466C171.903 256.374 171.607 256.245 171.233 256.111C170.479 255.847 169.394 255.602 168.181 255.639C166.969 255.682 165.896 255.988 165.166 256.301C164.798 256.454 164.508 256.601 164.315 256.705C164.116 256.815 164.008 256.87 164.002 256.864C163.996 256.858 164.098 256.784 164.291 256.662C164.478 256.539 164.762 256.38 165.13 256.215C165.859 255.878 166.945 255.541 168.175 255.504C169.412 255.468 170.515 255.731 171.263 256.025C171.637 256.166 171.933 256.307 172.132 256.417C172.325 256.527 172.427 256.595 172.427 256.601ZM172.427 255.229C172.421 255.241 172.307 255.186 172.108 255.094C171.903 255.002 171.607 254.873 171.233 254.745C170.479 254.475 169.394 254.23 168.181 254.273C166.969 254.304 165.896 254.622 165.166 254.929C164.798 255.082 164.508 255.229 164.315 255.333C164.116 255.437 164.008 255.498 164.002 255.492C163.996 255.486 164.098 255.406 164.285 255.29C164.478 255.167 164.762 255.008 165.13 254.837C165.859 254.506 166.945 254.169 168.175 254.132C169.412 254.096 170.509 254.359 171.263 254.647C171.637 254.794 171.933 254.935 172.132 255.045C172.325 255.155 172.427 255.223 172.427 255.229ZM172.349 253.924C172.343 253.936 172.228 253.881 172.023 253.789C171.824 253.697 171.529 253.569 171.149 253.44C170.401 253.177 169.315 252.926 168.103 252.969C166.891 253.005 165.817 253.318 165.087 253.624C164.719 253.777 164.43 253.924 164.231 254.028C164.038 254.138 163.929 254.194 163.923 254.187C163.917 254.181 164.014 254.108 164.207 253.985C164.4 253.863 164.683 253.704 165.045 253.538C165.781 253.201 166.861 252.864 168.097 252.828C169.327 252.791 170.431 253.054 171.185 253.348C171.559 253.489 171.854 253.636 172.047 253.74C172.246 253.851 172.349 253.918 172.349 253.924Z" fill="white"/>
<path d="M97.5313 164.567C97.5313 164.567 97.8269 199.687 99.582 210.4L142.953 208.317C142.953 208.317 139.147 173.791 140.613 164.567H97.5313Z" fill="#EBEBEB"/>
<path d="M134.075 179.315C134.087 179.554 127.585 180.148 119.545 180.638C111.506 181.128 104.98 181.337 104.968 181.098C104.956 180.859 111.457 180.265 119.497 179.775C127.531 179.285 134.063 179.083 134.075 179.315ZM134.087 186.757C134.099 186.996 127.597 187.584 119.557 188.074C111.518 188.57 104.992 188.772 104.98 188.534C104.968 188.295 111.47 187.707 119.509 187.217C127.543 186.721 134.069 186.518 134.087 186.757ZM126.711 194.058C126.729 194.297 123.025 194.72 118.448 194.995C113.87 195.277 110.149 195.308 110.131 195.075C110.119 194.836 113.816 194.414 118.399 194.132C122.977 193.856 126.698 193.826 126.711 194.058Z" fill="white"/>
<path d="M95.4807 267.889C95.4807 267.889 95.7702 303.004 97.5313 313.723L140.902 311.634C140.902 311.634 137.09 277.113 138.556 267.889H95.4807Z" fill="#EBEBEB"/>
<path d="M132.024 282.638C132.036 282.877 125.528 283.465 117.495 283.961C109.455 284.451 102.929 284.653 102.917 284.414C102.899 284.175 109.407 283.587 117.447 283.097C125.48 282.607 132.006 282.399 132.024 282.638ZM132.03 290.08C132.048 290.319 125.54 290.907 117.507 291.397C109.467 291.887 102.941 292.095 102.929 291.856C102.911 291.617 109.419 291.023 117.459 290.533C125.492 290.043 132.018 289.841 132.03 290.08ZM124.66 297.381C124.672 297.62 120.975 298.036 116.397 298.318C111.813 298.6 108.092 298.63 108.08 298.392C108.062 298.153 111.765 297.736 116.343 297.454C120.921 297.179 124.648 297.142 124.66 297.381Z" fill="white"/>
<path d="M214.007 173.876L218.301 275.166L342.816 276.691L337.231 175.212L214.007 173.876Z" fill="#EBEBEB"/>
<path d="M336.248 267.993H212.565V173.148H336.248V267.993Z" fill="#F5F5F5"/>
<path d="M336.248 267.993C336.248 267.993 336.224 267.387 336.212 266.235C336.2 265.059 336.188 263.375 336.176 261.176C336.152 256.729 336.122 250.249 336.085 241.98C336.037 225.443 335.977 201.782 335.904 173.148L336.248 173.503C301.285 173.527 258.602 173.552 212.577 173.582H212.565L212.994 173.148C212.975 207.264 212.963 239.561 212.951 267.993L212.565 267.607C249.163 267.687 280.031 267.754 301.78 267.797C312.66 267.846 321.248 267.883 327.159 267.901C330.084 267.926 332.34 267.938 333.902 267.95C334.65 267.963 335.229 267.969 335.645 267.975C336.037 267.981 336.248 267.993 336.248 267.993C336.248 267.993 336.067 268.012 335.687 268.018C335.283 268.024 334.716 268.03 333.986 268.042C332.449 268.048 330.217 268.067 327.316 268.085C321.435 268.11 312.871 268.146 302.033 268.189C280.218 268.238 249.266 268.306 212.565 268.385H212.185V267.993C212.167 239.561 212.155 207.264 212.143 173.148V172.719H212.577C258.602 172.743 301.285 172.774 336.248 172.792H336.604V173.148C336.526 201.874 336.459 225.614 336.417 242.207C336.381 250.439 336.351 256.889 336.327 261.317C336.315 263.485 336.296 265.157 336.29 266.315C336.278 267.436 336.248 267.993 336.248 267.993Z" fill="#E0E0E0"/>
<path d="M277.624 257.324H227.487V193.244H277.624V257.324Z" fill="#F5F5F5"/>
<path d="M277.624 257.323C277.618 257.317 277.612 257.207 277.606 256.999C277.6 256.76 277.594 256.46 277.582 256.086C277.57 255.247 277.558 254.077 277.534 252.583C277.51 249.49 277.48 245.049 277.431 239.438C277.389 228.156 277.323 212.194 277.245 193.244L277.624 193.63C262.685 193.642 245.586 193.654 227.493 193.672C227.39 193.764 228.289 192.864 227.909 193.256V210.688C227.903 216.378 227.897 221.933 227.891 227.317C227.873 238.079 227.855 248.167 227.836 257.323L227.487 256.962C242.529 257.042 255.013 257.103 263.789 257.152C268.143 257.189 271.575 257.219 273.976 257.244C275.115 257.262 276.014 257.274 276.672 257.287C277.287 257.299 277.624 257.323 277.624 257.323C277.637 257.336 277.341 257.348 276.75 257.36C276.111 257.372 275.236 257.391 274.12 257.403C271.738 257.428 268.33 257.458 264.012 257.495C255.176 257.544 242.619 257.605 227.487 257.685H227.131V257.323C227.119 248.167 227.101 238.079 227.083 227.317C227.077 221.933 227.071 216.378 227.064 210.688V202.051C227.064 200.6 227.058 199.136 227.058 197.666V193.256C226.685 193.636 227.577 192.711 227.493 192.809C245.586 192.827 262.685 192.839 277.624 192.858H278.01L278.004 193.244C277.926 212.299 277.86 228.346 277.817 239.69C277.769 245.257 277.739 249.673 277.715 252.748C277.697 254.206 277.679 255.351 277.673 256.178C277.661 256.533 277.655 256.815 277.649 257.048C277.643 257.238 277.631 257.33 277.624 257.323Z" fill="#E0E0E0"/>
<path d="M325.494 187.811H229.405V178.58H325.494V187.811Z" fill="#F5F5F5"/>
<path d="M325.494 187.811C325.482 187.799 325.476 187.584 325.464 187.18C325.452 186.733 325.44 186.139 325.422 185.392C325.398 183.787 325.368 181.508 325.326 178.581L325.494 178.752C309.289 178.905 272.353 179.009 229.411 179.009C230.255 178.146 229.646 178.77 229.833 178.581V187.811L229.405 187.382C256.28 187.456 280.224 187.517 297.516 187.566C306.14 187.621 313.094 187.664 317.961 187.695C320.338 187.719 322.195 187.737 323.522 187.75C324.125 187.768 324.608 187.774 324.982 187.78C325.314 187.793 325.482 187.805 325.494 187.811C325.507 187.823 325.35 187.835 325.036 187.842C324.68 187.848 324.216 187.86 323.637 187.872C322.334 187.884 320.507 187.909 318.167 187.933C313.329 187.964 306.406 188.007 297.829 188.062C280.459 188.105 256.4 188.172 229.405 188.24L228.982 188.246V187.811V183.278V178.581C229.169 178.391 228.554 179.009 229.411 178.146C272.353 178.146 309.289 178.25 325.494 178.403H325.669V178.581C325.627 181.551 325.591 183.86 325.573 185.49C325.555 186.225 325.537 186.8 325.531 187.241C325.519 187.633 325.507 187.823 325.494 187.811Z" fill="#E0E0E0"/>
<path d="M325.494 231.862H283.764V193.244H325.494V231.862Z" fill="#F5F5F5"/>
<path d="M325.494 231.862C325.482 231.85 325.47 231.599 325.458 231.115C325.446 230.582 325.434 229.89 325.416 229.02C325.392 227.133 325.362 224.487 325.32 221.149C325.271 214.357 325.211 204.759 325.133 193.244L325.494 193.611C313.444 193.63 299.108 193.648 283.77 193.673C283.668 193.764 284.566 192.858 284.192 193.25V195.865C284.192 196.741 284.186 197.611 284.186 198.475V203.613C284.18 207.013 284.18 210.339 284.174 213.579C284.162 220.059 284.15 226.196 284.138 231.862L283.764 231.482C296.14 231.562 306.514 231.629 313.866 231.678C317.485 231.721 320.362 231.752 322.406 231.776C323.353 231.795 324.107 231.807 324.686 231.819C325.205 231.837 325.482 231.85 325.494 231.862C325.513 231.88 325.259 231.893 324.765 231.911C324.21 231.917 323.48 231.935 322.563 231.954C320.537 231.978 317.69 232.009 314.107 232.052C306.689 232.095 296.237 232.162 283.764 232.242L283.39 232.248V231.862C283.378 226.196 283.366 220.059 283.354 213.579C283.348 210.339 283.342 207.013 283.342 203.613C283.342 201.917 283.342 200.202 283.336 198.475V193.25C282.956 193.63 283.855 192.717 283.77 192.809C299.108 192.833 313.444 192.858 325.494 192.876H325.862L325.856 193.244C325.784 204.857 325.718 214.528 325.669 221.382C325.633 224.683 325.597 227.305 325.579 229.173C325.561 230.012 325.549 230.68 325.537 231.2C325.525 231.654 325.507 231.88 325.494 231.862Z" fill="#E0E0E0"/>
<path d="M325.494 257.323H283.764V237.919H325.494V257.323Z" fill="#F5F5F5"/>
<path d="M325.495 257.324C325.476 257.299 325.452 256.815 325.428 255.915C325.41 254.941 325.386 253.649 325.35 252.019C325.314 248.595 325.259 243.8 325.187 237.92L325.495 238.232C314.614 238.263 299.928 238.305 283.764 238.348C283.384 238.734 284.283 237.822 284.193 237.92V240.461C284.186 241.307 284.186 242.146 284.186 242.979C284.186 244.651 284.186 246.299 284.18 247.922C284.174 251.168 284.174 254.316 284.168 257.324L283.764 256.913C295.803 256.993 306.158 257.06 313.607 257.109C317.256 257.158 320.187 257.195 322.304 257.226C323.269 257.244 324.041 257.262 324.65 257.275C325.193 257.293 325.476 257.305 325.495 257.324C325.513 257.342 325.259 257.354 324.747 257.373C324.162 257.391 323.414 257.403 322.485 257.428C320.386 257.452 317.485 257.489 313.878 257.538C306.357 257.587 295.911 257.654 283.764 257.734H283.36V257.324C283.354 254.316 283.348 251.168 283.342 247.922V242.979C283.342 242.146 283.336 241.307 283.336 240.461V237.92C283.246 238.011 284.144 237.099 283.764 237.485C299.928 237.534 314.614 237.577 325.495 237.607H325.808L325.802 237.92C325.736 243.879 325.675 248.742 325.639 252.215C325.603 253.808 325.579 255.082 325.561 256.037C325.537 256.901 325.519 257.348 325.495 257.324Z" fill="#E0E0E0"/>
<path d="M276.382 193.354C260.864 215.128 243.005 235.555 227.487 257.324L276.382 193.354Z" fill="white"/>
<path d="M227.487 257.323C227.463 257.305 227.607 257.06 227.897 256.607C228.253 256.08 228.681 255.437 229.206 254.659C230.352 252.969 232.07 250.568 234.224 247.628C238.536 241.741 244.7 233.779 251.606 225.069C258.511 216.359 264.742 208.464 269.169 202.676C271.316 199.865 273.083 197.543 274.398 195.816C274.971 195.081 275.447 194.469 275.839 193.966C276.171 193.55 276.364 193.336 276.382 193.354C276.412 193.372 276.267 193.617 275.978 194.071C275.622 194.597 275.188 195.24 274.669 196.018C273.517 197.709 271.804 200.11 269.645 203.05C265.339 208.936 259.175 216.898 252.263 225.608C245.363 234.318 239.127 242.213 234.706 248.001C232.559 250.813 230.786 253.134 229.471 254.855C228.898 255.596 228.428 256.209 228.036 256.711C227.698 257.127 227.511 257.342 227.487 257.323Z" fill="#E0E0E0"/>
<path d="M227.487 193.244L277.624 257.324L227.487 193.244Z" fill="white"/>
<path d="M277.624 257.323C277.444 257.47 266.069 243.248 252.221 225.553C238.379 207.852 227.306 193.391 227.487 193.244C227.674 193.097 239.043 207.319 252.89 225.014C266.732 242.709 277.811 257.176 277.624 257.323ZM218.307 193.378C218.307 197.776 214.791 201.347 210.46 201.347C206.13 201.347 202.62 197.776 202.62 193.378C202.62 188.981 206.13 185.41 210.46 185.41C214.791 185.41 218.307 188.981 218.307 193.378ZM346.592 174.042C346.592 178.446 343.082 182.01 338.745 182.01C334.415 182.01 330.905 178.446 330.905 174.042C330.905 169.644 334.415 166.079 338.745 166.079C343.082 166.079 346.592 169.644 346.592 174.042ZM653.426 362.582H563.035V229.528H653.426V362.582Z" fill="#E0E0E0"/>
<path d="M648.896 362.582H558.506V229.528H648.896V362.582Z" fill="#F5F5F5"/>
<path d="M637.666 348.169H569.736V243.934H637.666V348.169Z" fill="white"/>
<path d="M637.666 348.169C637.666 348.169 637.654 347.992 637.654 347.661C637.648 347.318 637.642 346.822 637.636 346.179C637.636 344.874 637.624 342.957 637.612 340.464C637.6 335.466 637.575 328.19 637.551 318.996C637.521 300.615 637.485 274.59 637.443 243.934L637.666 244.167C616.912 244.173 593.915 244.179 569.742 244.185H569.736L569.983 243.934C569.959 283.257 569.947 319.511 569.929 348.169L569.736 347.973C590.423 348.016 607.377 348.053 619.18 348.078C625.079 348.096 629.693 348.114 632.841 348.127C634.403 348.139 635.603 348.145 636.424 348.145C637.238 348.157 637.666 348.169 637.666 348.169C637.666 348.169 637.268 348.182 636.466 348.194C635.652 348.194 634.463 348.2 632.919 348.212C629.783 348.225 625.181 348.243 619.301 348.261C607.474 348.292 590.471 348.323 569.736 348.372H569.537V348.169C569.525 319.511 569.507 283.257 569.489 243.934V243.689H569.742C593.915 243.695 616.912 243.701 637.666 243.708H637.889V243.934C637.847 274.645 637.805 300.725 637.781 319.143C637.756 328.318 637.732 335.583 637.72 340.562C637.708 343.031 637.696 344.935 637.69 346.234C637.684 346.865 637.684 347.349 637.678 347.686C637.672 348.01 637.666 348.169 637.666 348.169Z" fill="#E0E0E0"/>
<path d="M649.149 229.528C649.204 229.565 648.589 230.478 647.539 231.905C646.49 233.332 645 235.267 643.299 237.368C641.592 239.463 640.006 241.319 638.83 242.642C637.654 243.959 636.894 244.749 636.84 244.706C636.785 244.657 637.455 243.787 638.565 242.409C639.777 240.921 641.267 239.083 642.919 237.05C644.566 235.016 646.055 233.179 647.268 231.684C648.383 230.318 649.095 229.485 649.149 229.528Z" fill="#E0E0E0"/>
<path d="M638.01 347.833C641.387 353.284 645.368 358.343 649.861 362.882L638.01 347.833Z" fill="white"/>
<path d="M649.861 362.882C649.813 362.931 649.011 362.22 647.792 360.977C646.58 359.734 644.97 357.945 643.323 355.856C641.683 353.768 640.314 351.777 639.391 350.301C638.462 348.825 637.955 347.869 638.01 347.833C638.07 347.796 638.679 348.684 639.68 350.105C640.676 351.52 642.075 353.468 643.709 355.544C645.344 357.62 646.9 359.433 648.046 360.732C649.192 362.03 649.909 362.833 649.861 362.882Z" fill="#E0E0E0"/>
<path d="M558.494 362.478C562.438 357.529 566.383 352.586 570.333 347.643L558.494 362.478Z" fill="white"/>
<path d="M570.333 347.643C570.436 347.729 567.872 351.116 564.603 355.213C561.334 359.311 558.596 362.563 558.494 362.478C558.385 362.392 560.948 358.999 564.223 354.901C567.492 350.803 570.225 347.557 570.333 347.643ZM558.506 229.528C558.608 229.443 561.184 232.566 564.254 236.505C567.317 240.443 569.718 243.702 569.615 243.793C569.507 243.873 566.931 240.749 563.868 236.811C560.798 232.873 558.397 229.614 558.506 229.528ZM616.502 330.683H593.758V265.102H616.502V330.683ZM632.931 153.56L619.988 153.633L619.645 88.249L632.582 88.1755L632.931 153.56Z" fill="#E0E0E0"/>
<path d="M541.25 124.442L507.741 124.625L507.548 88.5308L541.057 88.347L541.25 124.442Z" fill="#EBEBEB"/>
<path d="M574.597 124.264L541.088 124.442L540.901 88.347L574.404 88.1632L574.597 124.264Z" fill="#F5F5F5"/>
<path d="M507.602 98.4961C529.869 98.686 552.191 98.5512 574.458 98.1837C574.917 98.1776 574.917 97.461 574.452 97.461C552.185 97.3385 529.863 97.4487 507.602 97.8775C507.21 97.8836 507.21 98.4961 507.602 98.4961Z" fill="#E0E0E0"/>
<path d="M547.692 153.254L486.812 153.584L486.662 124.172L547.535 123.841L547.692 153.254Z" fill="#EBEBEB"/>
<path d="M608.282 152.929L547.402 153.26L547.245 123.841L608.125 123.511L608.282 152.929Z" fill="#F5F5F5"/>
<path d="M486.704 132.355C527.143 132.815 567.728 132.404 608.167 131.743C608.626 131.737 608.626 131.02 608.167 131.02C567.722 130.806 527.137 130.83 486.698 131.73C486.306 131.743 486.312 132.349 486.704 132.355ZM699.794 164.126H463.936V153.591H699.794V164.126Z" fill="#E0E0E0"/>
<path d="M512.125 194.616H502.554V158.656H512.125V194.616ZM655.054 194.616H645.482V158.656H655.054V194.616Z" fill="#E0E0E0"/>
<path d="M645.687 153.719L632.744 153.793L632.274 63.8654L645.211 63.7919L645.687 153.719Z" fill="#EBEBEB"/>
<path d="M665.814 153.407L645.712 153.517L645.326 80.6417L665.428 80.5315L665.814 153.407Z" fill="#F5F5F5"/>
<path d="M665.295 94.5761C665.295 94.7721 660.79 94.9252 655.241 94.9252C649.686 94.9252 645.187 94.7721 645.187 94.5761C645.187 94.3801 649.686 94.2208 655.241 94.2208C660.79 94.2208 665.295 94.3801 665.295 94.5761ZM665.295 91.5136C665.295 91.7096 660.79 91.8688 655.241 91.8688C649.686 91.8688 645.187 91.7096 645.187 91.5136C645.187 91.3176 649.686 91.1583 655.241 91.1583C660.79 91.1583 665.295 91.3176 665.295 91.5136ZM665.295 142.443C665.295 142.639 660.79 142.798 655.241 142.798C649.686 142.798 645.187 142.639 645.187 142.443C645.187 142.247 649.686 142.088 655.241 142.088C660.79 142.088 665.295 142.247 665.295 142.443ZM665.295 139.38C665.295 139.576 660.79 139.736 655.241 139.736C649.686 139.736 645.187 139.576 645.187 139.38C645.187 139.184 649.686 139.031 655.241 139.031C660.79 139.031 665.295 139.184 665.295 139.38ZM655.567 132.704C655.374 132.704 655.217 125.348 655.217 116.283C655.217 107.212 655.374 99.8619 655.567 99.8619C655.754 99.8619 655.917 107.212 655.917 116.283C655.917 125.348 655.754 132.704 655.567 132.704Z" fill="#E0E0E0"/>
<path d="M687.394 153.437H665.512V98.4287H687.394V153.437Z" fill="#EBEBEB"/>
<path d="M677.068 139.172C674.191 139.172 672.183 137.09 672.183 134.223C672.183 132.667 672.774 131.32 673.95 130.511L674.451 131.204C673.474 131.92 673.009 133.004 673.009 134.223C673.009 136.526 674.638 138.217 677.068 138.217C679.505 138.217 681.133 136.526 681.133 134.223C681.133 133.004 680.669 131.92 679.692 131.204L680.192 130.511C681.35 131.32 681.96 132.667 681.96 134.223C681.96 137.09 679.933 139.172 677.068 139.172ZM680.723 129.146L679.987 128.717C680.615 127.963 681.151 126.634 681.151 125.195C681.151 123.131 680.434 122.31 679.342 122.31C676.537 122.31 678.6 128.79 674.819 128.79C673.359 128.79 672.183 127.553 672.183 125.079C672.183 123.841 672.551 122.494 673.124 121.728L673.86 122.157C673.268 122.984 672.991 124.05 672.991 125.097C672.991 127.014 673.769 127.853 674.8 127.853C677.695 127.853 675.651 121.367 679.324 121.367C680.892 121.367 681.96 122.739 681.96 125.232C681.96 126.843 681.429 128.38 680.723 129.146ZM680.723 120.191L679.987 119.762C680.615 119.009 681.151 117.68 681.151 116.234C681.151 114.176 680.434 113.349 679.342 113.349C676.537 113.349 678.6 119.836 674.819 119.836C673.359 119.836 672.183 118.598 672.183 116.124C672.183 114.887 672.551 113.533 673.124 112.767L673.86 113.202C673.268 114.023 672.991 115.095 672.991 116.142C672.991 118.053 673.769 118.898 674.8 118.898C677.695 118.898 675.651 112.412 679.324 112.412C680.892 112.412 681.96 113.778 681.96 116.271C681.96 117.882 681.429 119.425 680.723 120.191Z" fill="#FAFAFA"/>
<path d="M642.268 79.1473C642.268 81.2298 640.603 82.9264 638.553 82.9264C636.496 82.9264 634.831 81.2298 634.831 79.1473C634.831 77.0587 636.496 75.3682 638.553 75.3682C640.603 75.3682 642.268 77.0587 642.268 79.1473ZM639.699 143.031H637.401V89.5353H639.699V143.031Z" fill="#E0E0E0"/>
<path d="M726.922 711.903C726.922 712.129 577.794 712.313 393.871 712.313C209.887 712.313 60.7889 712.129 60.7889 711.903C60.7889 711.676 209.887 711.499 393.871 711.499C577.794 711.499 726.922 711.676 726.922 711.903Z" fill="#263238"/>
<path d="M241.141 172.854C216.365 212.433 217.987 267.307 245.062 305.307C263.107 330.64 290.175 347.618 311.671 369.999C333.172 392.38 349.499 425.369 338.154 454.432C326.604 484.022 292.775 496.058 267.444 514.8C239.851 535.215 220.472 566.746 214.538 600.893C208.597 635.034 216.172 671.398 235.207 700.179H498.338C498.338 700.179 544.568 610.718 485.136 542.54C425.704 474.363 393.792 473.248 395.988 428.542C398.189 383.835 429.009 369.307 446.614 352.543C464.225 335.773 550.068 296.658 499.442 172.854H241.141Z" fill="#FAFAFA"/>
<path d="M241.141 172.854C241.141 172.854 242.673 172.829 245.671 172.817C248.687 172.811 253.156 172.799 259.012 172.78C270.755 172.762 288.065 172.737 310.356 172.707C354.993 172.67 419.582 172.627 499.442 172.566H499.635L499.707 172.743C503.302 182.017 506.933 191.559 509.508 201.678C512.162 211.754 514.333 222.246 515.099 233.124C515.907 243.977 515.557 255.186 513.434 266.315C511.233 277.414 507.319 288.408 501.535 298.582C498.664 303.678 495.28 308.516 491.625 313.184C487.928 317.826 483.839 322.187 479.502 326.352C475.166 330.511 470.546 334.431 465.745 338.18C460.956 341.947 455.962 345.499 451.077 349.254C448.635 351.122 446.403 353.223 444.075 355.33C441.735 357.394 439.322 359.384 436.892 361.357C432.031 365.307 427.115 369.252 422.483 373.576C413.123 382.078 405.222 392.698 400.873 405.059C398.762 411.22 397.248 417.682 396.754 424.297C396.627 425.951 396.41 427.599 396.344 429.258C396.313 430.918 396.223 432.584 396.301 434.25C396.319 437.576 396.687 440.908 397.284 444.191C398.521 450.751 401.235 457.041 405.185 462.493C409.076 467.999 413.87 472.838 418.834 477.499C428.822 486.778 439.419 495.629 449.569 505.19C459.768 514.696 469.672 524.735 479.213 535.282C483.948 540.574 488.76 545.903 492.898 551.807C497.174 557.602 500.769 563.935 503.929 570.483C510.153 583.651 514.001 598.094 515.262 612.861C516.613 627.629 515.581 642.678 512.698 657.409C511.269 664.777 509.375 672.078 507.053 679.263C504.725 686.447 502.041 693.528 498.7 700.369L498.591 700.584H491.565C401.742 700.584 315.073 700.578 235.207 700.571H235.002L234.887 700.394C222.354 681.284 214.906 659.326 212.855 637.319C210.678 615.311 214.007 593.237 221.962 573.649C229.809 553.988 242.004 536.746 256.744 523.198C264.09 516.368 272.281 510.776 280.489 505.607C288.704 500.425 296.991 495.635 304.825 490.392C312.624 485.143 320.139 479.545 326.242 472.703C332.364 465.91 337.044 457.936 339.493 449.367C341.954 440.792 341.978 431.794 340.536 423.323C339.077 414.822 336.134 406.786 332.406 399.387C328.667 391.969 324.137 385.165 319.162 378.954C314.204 372.719 308.685 367.188 303.137 361.969C291.997 351.557 280.598 342.449 270.339 333.09C265.194 328.423 260.327 323.706 255.846 318.861C251.395 313.992 247.33 309 243.831 303.825C236.787 293.504 231.956 282.632 228.777 272.134C225.599 261.629 224.019 251.468 223.657 242.121C223.44 239.788 223.524 237.497 223.53 235.267C223.554 233.032 223.494 230.845 223.717 228.726C223.88 226.607 224.037 224.536 224.188 222.521C224.429 220.518 224.755 218.577 225.02 216.69C227.336 201.549 231.829 190.488 235.339 183.407C236.178 181.612 236.92 180.032 237.716 178.746C238.47 177.447 239.097 176.357 239.61 175.475C240.623 173.73 241.141 172.854 241.141 172.854C241.033 173.05 240.605 173.815 239.652 175.53C239.151 176.412 238.536 177.503 237.8 178.807C237.016 180.081 236.286 181.668 235.46 183.468C231.992 190.561 227.547 201.617 225.273 216.727C225.014 218.614 224.694 220.555 224.459 222.552C224.314 224.561 224.163 226.625 224.007 228.744C223.784 230.857 223.856 233.038 223.832 235.267C223.832 237.497 223.753 239.775 223.97 242.103C224.356 251.425 225.949 261.556 229.139 272.024C232.324 282.479 237.155 293.308 244.187 303.58C247.673 308.725 251.738 313.698 256.177 318.549C260.653 323.369 265.52 328.067 270.658 332.722C280.911 342.057 292.323 351.152 303.493 361.571C309.059 366.796 314.602 372.339 319.59 378.599C324.59 384.828 329.155 391.663 332.919 399.117C336.676 406.559 339.65 414.65 341.128 423.219C342.587 431.764 342.575 440.859 340.09 449.544C337.617 458.217 332.883 466.284 326.713 473.138C320.561 480.053 313.004 485.676 305.187 490.949C297.329 496.217 289.042 501.013 280.845 506.188C272.655 511.358 264.507 516.919 257.203 523.718C242.553 537.205 230.424 554.368 222.626 573.925C214.731 593.415 211.419 615.36 213.603 637.245C215.647 659.13 223.06 680.965 235.526 699.959L235.207 699.787C315.073 699.781 401.742 699.775 491.565 699.769H498.338L497.988 699.99C501.287 693.228 503.977 686.147 506.287 679.005C508.603 671.857 510.491 664.587 511.908 657.249C514.779 642.586 515.811 627.617 514.466 612.935C513.211 598.253 509.393 583.909 503.211 570.832C500.075 564.327 496.511 558.037 492.259 552.279C488.151 546.417 483.368 541.119 478.634 535.821C469.111 525.292 459.225 515.266 449.045 505.772C438.906 496.223 428.327 487.379 418.309 478.075C413.334 473.395 408.509 468.52 404.564 462.946C400.565 457.421 397.797 451.002 396.543 444.338C395.939 441 395.572 437.625 395.547 434.263C395.469 432.578 395.566 430.906 395.596 429.228C395.662 427.55 395.879 425.89 396.012 424.224C396.512 417.56 398.038 411.03 400.173 404.801C404.57 392.312 412.58 381.581 421.995 373.037C426.657 368.688 431.584 364.732 436.445 360.787C438.876 358.821 441.282 356.836 443.604 354.785C445.896 352.72 448.188 350.564 450.649 348.684C455.552 344.911 460.546 341.371 465.323 337.622C470.106 333.886 474.714 329.984 479.032 325.844C483.35 321.703 487.422 317.367 491.101 312.749C494.737 308.112 498.103 303.304 500.962 298.239C506.709 288.138 510.606 277.218 512.801 266.186C514.924 255.125 515.274 243.977 514.484 233.173C513.724 222.344 511.571 211.882 508.935 201.837C506.378 191.749 502.759 182.219 499.176 172.964L499.442 173.142C419.636 173.08 355.078 173.037 310.471 173.001C288.161 172.97 270.839 172.946 259.084 172.927C253.21 172.915 248.729 172.897 245.713 172.89C242.698 172.878 241.141 172.854 241.141 172.854Z" fill="#263238"/>
<path d="M488.941 245.447C527.698 251.915 466.59 321.624 432 349.125C411.977 365.056 390.463 382.322 380.958 406.283C370.162 433.466 378.159 464.018 372.93 491.366C372.062 495.904 365.458 495.188 365.524 490.563C365.783 472.617 365.307 454.677 362.382 437.006C358.226 411.949 348.739 387.155 331.441 368.786C317.328 353.792 298.812 343.833 283.752 329.813C261.762 309.355 239.175 282.963 236.974 252.754C236.974 252.754 279.193 218.221 302.624 222.582C330.012 227.672 356.972 270.59 399.407 265.672C429.033 262.242 443.984 237.938 488.941 245.447ZM492.379 618.545C491.402 608.702 488.815 597.561 480.214 592.918C475.003 590.107 468.658 590.419 462.953 591.944C457.247 593.47 451.885 596.103 446.228 597.806C435.1 601.163 422.905 600.771 412.007 596.71C401.488 592.784 392.465 585.691 382.701 580.117C372.936 574.543 361.507 570.391 350.639 573.135C331.894 577.875 322.141 600.789 303.607 606.326C295.374 608.782 286.527 607.404 278.155 605.475C269.778 603.545 261.376 601.077 252.794 601.401C246.075 601.659 239.079 604.017 234.368 608.696L234.417 608.629C234.368 608.678 234.326 608.733 234.278 608.782C233.506 609.56 232.794 610.405 232.155 611.312C226.407 619.09 225.49 629.552 227.257 639.058C229.236 649.697 234.133 659.534 239.38 668.954C245.568 680.053 252.595 691.102 262.824 698.501C275.441 707.627 291.315 701.331 306.755 702.568C342.786 705.453 381.543 707.425 417.574 704.589C436.602 703.095 454.443 705.183 469.545 693.325C480.172 684.989 487.078 672.415 490.413 659.197C493.748 645.985 493.73 632.112 492.379 618.545Z" fill="#D6D98B"/>
<mask id="mask0_156_2975" style="mask-type:luminance" maskUnits="userSpaceOnUse" x="0" y="0" width="772" height="784">
<path d="M0 0H772V784H0V0Z" fill="black" fill-opacity="0.240005"/>
</mask>
<g mask="url(#mask0_156_2975)">
<mask id="mask1_156_2975" style="mask-type:luminance" maskUnits="userSpaceOnUse" x="418" y="599" width="39" height="100">
<path d="M418.659 599.693H456.433V698.948H418.659V599.693Z" fill="white"/>
</mask>
<g mask="url(#mask1_156_2975)">
<path d="M424.389 599.693C422.356 602.853 421.488 607.092 423.448 610.301C425.408 613.511 428.062 616.432 428.912 620.107C430.245 625.889 426.826 631.537 424.268 636.871C419.703 646.42 417.622 657.311 419.166 667.809C420.704 678.313 426.005 688.34 434.28 694.826C437.941 697.693 442.694 699.916 447.103 698.513C451.258 697.19 453.942 692.915 454.768 688.573C455.589 684.236 454.913 679.765 454.37 675.379C451.849 655.032 452.368 634.305 455.89 614.111C456.481 610.736 457.042 606.877 454.937 604.201C453.592 602.492 451.445 601.683 449.401 600.991C441.373 598.278 432.706 601.291 424.389 599.693Z" fill="black"/>
</g>
</g>
<path d="M215.895 712.313C215.895 712.313 215.171 700.045 230.924 693.221H507.686C507.686 693.221 522.125 700.639 523.898 712.056L215.895 712.313ZM501.824 174.348C501.679 174.415 501.535 174.489 501.384 174.556L241.141 172.854C241.141 172.854 240.219 172.253 238.831 171.151C231.419 165.265 235.581 153.168 244.995 153.247L497.578 155.318C508.006 155.403 511.251 169.822 501.824 174.348Z" fill="#3F4029"/>
<mask id="mask2_156_2975" style="mask-type:luminance" maskUnits="userSpaceOnUse" x="0" y="0" width="772" height="784">
<path d="M0 0H772V784H0V0Z" fill="black" fill-opacity="0.240005"/>
</mask>
<g mask="url(#mask2_156_2975)">
<mask id="mask3_156_2975" style="mask-type:luminance" maskUnits="userSpaceOnUse" x="287" y="271" width="174" height="57">
<path d="M287.745 271.852H460.257V327.05H287.745V271.852Z" fill="white"/>
</mask>
<g mask="url(#mask3_156_2975)">
<path d="M460.172 275.166C460.697 276.182 458.743 278.387 455.009 281.75C451.27 285.119 445.806 289.731 438.858 295.421C431.874 301.062 423.418 307.861 412.64 314.2C407.242 317.367 401.235 320.246 394.661 322.579C391.356 323.706 387.93 324.754 384.329 325.482C380.753 326.26 377.013 326.775 373.171 326.959C365.506 327.406 357.707 326.266 350.729 323.841C343.793 321.397 337.877 317.955 332.702 314.5C327.515 311.003 323.046 307.555 318.83 304.259C314.632 300.946 310.802 297.761 307.383 294.759C293.716 282.73 286.527 273.885 287.914 272.183C289.343 270.406 299.023 276.029 314.101 285.443C317.871 287.795 321.996 290.362 326.417 293.124C330.838 295.856 335.597 298.875 340.446 301.668C345.307 304.455 350.385 306.997 355.645 308.645C360.874 310.231 366.447 310.985 372.381 310.648C384.233 310.029 395.74 305.791 405.704 300.903C415.722 295.929 424.678 290.294 432.489 285.854C440.293 281.358 446.97 278.038 451.825 276.274C456.692 274.504 459.672 274.186 460.172 275.166Z" fill="black"/>
</g>
</g>
<path d="M365.717 524.122C368.576 523.1 371.989 526.021 371.483 529.053C370.982 532.085 366.809 533.702 364.444 531.791C362.074 529.874 362.695 525.384 365.494 524.208" fill="#D6D98B"/>
<path d="M272.637 318.904C272.612 318.923 272.299 318.598 271.714 317.961C271.093 317.263 270.248 316.332 269.193 315.156C268.131 313.906 266.726 312.467 265.297 310.629C263.837 308.792 262.19 306.709 260.381 304.419C258.698 302.011 256.793 299.414 254.881 296.536C253.97 295.066 253.029 293.541 252.058 291.979C251.582 291.189 251.063 290.411 250.604 289.578C250.158 288.745 249.706 287.893 249.247 287.036C245.448 280.243 242.064 272.287 239.658 263.595C237.251 254.898 236.123 246.298 236.021 238.477C236.015 236.517 236.117 234.612 236.16 232.762C236.202 231.837 236.19 230.919 236.28 230.024C236.371 229.136 236.467 228.254 236.558 227.391C236.751 225.663 236.889 223.985 237.119 222.393C237.396 220.806 237.667 219.281 237.927 217.823C238.373 214.902 239.133 212.335 239.676 210.057C239.971 208.924 240.207 207.858 240.502 206.896C240.804 205.947 241.087 205.077 241.34 204.287C241.841 202.774 242.239 201.574 242.529 200.679C242.812 199.865 242.975 199.436 242.999 199.442C243.023 199.454 242.915 199.895 242.685 200.735C242.426 201.641 242.076 202.854 241.642 204.379C241.407 205.175 241.147 206.051 240.87 207C240.599 207.968 240.388 209.034 240.11 210.167C239.609 212.446 238.892 215.012 238.488 217.927C238.246 219.379 237.993 220.898 237.728 222.478C237.517 224.071 237.402 225.737 237.221 227.452C237.137 228.309 237.052 229.185 236.962 230.073C236.883 230.961 236.901 231.874 236.871 232.793C236.835 234.63 236.745 236.523 236.763 238.465C236.901 246.231 238.047 254.745 240.43 263.375C242.818 271.993 246.153 279.9 249.893 286.674C250.345 287.532 250.791 288.377 251.232 289.21C251.684 290.037 252.197 290.815 252.667 291.605C253.62 293.173 254.543 294.692 255.435 296.162C257.323 299.041 259.193 301.65 260.833 304.076C262.607 306.385 264.217 308.486 265.64 310.341C267.04 312.203 268.403 313.667 269.428 314.947C270.441 316.16 271.237 317.128 271.834 317.851C272.377 318.518 272.655 318.886 272.637 318.904ZM257.981 551.85C257.969 551.838 258.065 551.667 258.27 551.33C258.499 550.962 258.801 550.478 259.187 549.854C259.603 549.198 260.11 548.402 260.707 547.471C261.008 546.999 261.334 546.491 261.678 545.952C262.058 545.431 262.504 544.911 262.95 544.347C263.867 543.214 264.88 541.952 265.984 540.586C267.172 539.288 268.535 537.94 269.959 536.458C272.896 533.579 276.436 530.505 280.562 527.399C288.758 521.091 299.331 514.819 310.79 507.505C316.478 503.787 322.467 499.874 328.124 495.102C333.793 490.374 339.258 484.916 343.679 478.411C352.406 465.237 355.946 449.979 356.26 436.339C356.61 422.594 353.733 410.357 350.343 400.599C346.905 390.806 342.973 383.351 340.114 378.329C338.685 375.805 337.509 373.888 336.701 372.596C336.315 371.971 336.019 371.481 335.79 371.114C335.591 370.777 335.494 370.605 335.5 370.599C335.512 370.587 335.633 370.746 335.856 371.071C336.103 371.426 336.423 371.904 336.833 372.504C337.69 373.772 338.908 375.665 340.38 378.164C343.329 383.155 347.358 390.591 350.874 400.403C354.354 410.185 357.309 422.496 356.996 436.357C356.941 439.812 356.67 443.352 356.145 446.935C355.657 450.518 354.915 454.144 353.89 457.764C351.899 465.016 348.715 472.213 344.348 478.865C339.867 485.461 334.336 490.968 328.625 495.727C322.913 500.517 316.9 504.431 311.188 508.142C299.681 515.437 289.108 521.636 280.899 527.865C276.768 530.927 273.222 533.953 270.272 536.789C268.837 538.247 267.468 539.57 266.268 540.844C265.152 542.197 264.127 543.428 263.198 544.543C262.739 545.1 262.287 545.609 261.901 546.117C261.545 546.65 261.213 547.146 260.9 547.612C260.285 548.524 259.76 549.302 259.326 549.945C258.909 550.546 258.584 551.017 258.343 551.372C258.113 551.691 257.993 551.856 257.981 551.85ZM243.62 579.554C243.644 579.566 243.53 579.817 243.283 580.283C242.987 580.822 242.625 581.477 242.185 582.273C241.684 583.131 241.099 584.184 240.502 585.458C239.893 586.72 239.121 588.122 238.476 589.77C238.126 590.585 237.764 591.436 237.384 592.318C237.01 593.206 236.708 594.162 236.347 595.136C235.593 597.071 235.008 599.215 234.338 601.457C233.15 605.971 232.161 611.024 231.642 616.402C231.184 621.779 231.256 626.93 231.618 631.592C231.871 633.919 232.064 636.136 232.462 638.182C232.637 639.205 232.764 640.203 232.975 641.147C233.186 642.084 233.391 642.984 233.584 643.854C233.934 645.587 234.435 647.112 234.809 648.466C235.164 649.826 235.556 650.971 235.894 651.902C236.184 652.772 236.419 653.482 236.618 654.07C236.775 654.566 236.847 654.836 236.817 654.848C236.793 654.854 236.672 654.609 236.467 654.132C236.232 653.562 235.949 652.864 235.599 652.012C235.219 651.094 234.784 649.96 234.38 648.601C233.964 647.253 233.421 645.734 233.035 643.995C232.824 643.125 232.601 642.219 232.366 641.275C232.143 640.332 231.998 639.327 231.799 638.298C231.377 636.24 231.16 634.005 230.882 631.659C230.472 626.961 230.382 621.755 230.846 616.322C231.365 610.901 232.39 605.799 233.626 601.254C234.32 599 234.935 596.845 235.719 594.903C236.099 593.923 236.419 592.967 236.811 592.073C237.209 591.191 237.589 590.346 237.957 589.525C238.644 587.884 239.453 586.493 240.104 585.244C240.743 583.982 241.371 582.947 241.913 582.114C242.408 581.342 242.812 580.711 243.144 580.191C243.433 579.756 243.596 579.535 243.62 579.554ZM434.515 617.235C434.521 617.247 434.419 617.326 434.202 617.467C433.942 617.633 433.629 617.835 433.237 618.08C432.326 618.637 431.078 619.403 429.491 620.365C428.671 620.861 427.766 621.406 426.777 622C425.764 622.563 424.624 623.108 423.424 623.727C420.993 624.915 418.297 626.428 415.119 627.647C413.545 628.302 411.898 628.988 410.179 629.705C408.46 630.403 406.603 630.948 404.715 631.61C400.957 633.007 396.796 633.999 392.447 635.15C383.678 637.129 373.871 638.586 363.491 638.923C353.112 639.138 343.238 638.207 334.379 636.688C329.976 635.769 325.772 634.997 321.942 633.803C320.024 633.245 318.142 632.798 316.387 632.192C314.638 631.567 312.962 630.973 311.357 630.403C308.112 629.35 305.344 627.984 302.859 626.924C301.623 626.367 300.459 625.889 299.421 625.375C298.402 624.836 297.467 624.34 296.623 623.892C294.994 623.01 293.704 622.312 292.763 621.804C292.365 621.577 292.039 621.393 291.774 621.246C291.551 621.118 291.442 621.044 291.448 621.032C291.454 621.02 291.575 621.069 291.81 621.173C292.087 621.302 292.425 621.461 292.841 621.663C293.794 622.135 295.103 622.784 296.762 623.605C297.618 624.033 298.559 624.511 299.584 625.026C300.628 625.516 301.798 625.969 303.04 626.502C305.531 627.518 308.305 628.848 311.544 629.858C313.149 630.409 314.825 630.991 316.574 631.592C318.323 632.18 320.205 632.608 322.117 633.147C325.935 634.311 330.12 635.052 334.505 635.947C343.329 637.417 353.148 638.317 363.473 638.102C373.793 637.772 383.551 636.345 392.285 634.415C396.615 633.288 400.758 632.327 404.51 630.967C406.392 630.324 408.243 629.797 409.968 629.117C411.681 628.419 413.322 627.751 414.896 627.114C418.08 625.938 420.782 624.462 423.225 623.317C424.431 622.716 425.577 622.202 426.596 621.657C427.591 621.087 428.508 620.567 429.341 620.089C430.951 619.182 432.23 618.466 433.152 617.939C433.562 617.718 433.888 617.541 434.16 617.4C434.389 617.277 434.509 617.222 434.515 617.235ZM450.619 285.388C450.631 285.394 450.516 285.505 450.293 285.694C450.028 285.915 449.696 286.197 449.28 286.546C448.333 287.311 447.012 288.383 445.335 289.737C441.904 292.499 436.934 296.499 430.661 301.264C424.371 305.999 416.753 311.517 407.694 316.681C403.123 319.161 398.249 321.697 392.9 323.59C387.568 325.501 381.832 326.965 375.831 327.449C363.763 328.275 352.328 325.176 343.027 320.521C338.371 318.151 334.179 315.499 330.356 312.865C326.586 310.164 323.142 307.555 320.097 305.049C313.987 300.064 309.198 295.85 305.869 292.959C304.246 291.538 302.974 290.417 302.057 289.608C301.653 289.247 301.333 288.953 301.074 288.726C300.857 288.524 300.754 288.414 300.76 288.402C300.766 288.389 300.893 288.475 301.128 288.659C301.4 288.873 301.737 289.143 302.16 289.486C303.1 290.258 304.409 291.342 306.068 292.714C309.463 295.531 314.307 299.678 320.452 304.596C323.516 307.065 326.966 309.643 330.736 312.308C334.553 314.905 338.733 317.514 343.353 319.841C352.581 324.417 363.877 327.449 375.771 326.634C381.688 326.156 387.351 324.723 392.634 322.836C397.936 320.974 402.779 318.469 407.339 316.019C416.367 310.923 424.003 305.466 430.324 300.799C436.632 296.101 441.65 292.169 445.142 289.486C446.861 288.181 448.212 287.152 449.177 286.411C449.618 286.093 449.967 285.835 450.239 285.633C450.48 285.456 450.613 285.376 450.619 285.388Z" fill="#263238"/>
<mask id="mask4_156_2975" style="mask-type:luminance" maskUnits="userSpaceOnUse" x="0" y="0" width="772" height="784">
<path d="M0 0H772V784H0V0Z" fill="black" fill-opacity="0.240005"/>
</mask>
<g mask="url(#mask4_156_2975)">
<mask id="mask5_156_2975" style="mask-type:luminance" maskUnits="userSpaceOnUse" x="311" y="625" width="94" height="14">
<path d="M311.369 625.234H404.202V638.562H311.369V625.234Z" fill="white"/>
</mask>
<g mask="url(#mask5_156_2975)">
<path d="M311.369 630.41C318.685 624.671 328.962 626.061 338.009 627.99C347.056 629.92 356.169 633.062 365.319 631.763C372.225 630.783 378.551 627.335 385.361 625.84C392.17 624.34 400.427 625.448 404.202 631.396C374.251 641.282 341.109 640.932 311.369 630.41Z" fill="black"/>
</g>
</g>
<path d="M566.702 587.859L533.446 550.049L533.108 596.011L543.12 625.491L443.653 643.009L439.437 563.31L432.278 502.097C431.397 494.594 435.613 487.44 442.531 484.671L469.907 473.726L508.458 480.904L523.965 486.895C530.479 489.406 536.281 493.503 540.864 498.832L587.552 553.051" fill="#D6D98B"/>
<path d="M531.118 541.009C531.124 540.844 533.301 541.174 536.733 540.605C540.129 540.066 544.815 538.381 548.711 534.743C552.595 531.099 554.628 526.487 555.43 523.093C556.262 519.669 556.117 517.44 556.274 517.446C556.323 517.44 556.401 517.991 556.419 518.996C556.437 520 556.341 521.458 555.985 523.228C555.303 526.732 553.289 531.558 549.254 535.343C545.213 539.122 540.31 540.776 536.811 541.174C535.05 541.395 533.609 541.37 532.626 541.272C531.643 541.18 531.112 541.058 531.118 541.009Z" fill="white"/>
<path d="M534.025 594.051C534.254 594.051 534.314 578.126 534.158 558.496C534.001 538.853 533.681 522.934 533.452 522.94C533.223 522.94 533.156 538.859 533.319 558.502C533.476 578.133 533.79 594.051 534.025 594.051Z" fill="#263238"/>
<path d="M530.382 605.738L470.281 581.164C465.431 579.18 462.114 574.58 461.716 569.288L457.319 510.77C457.319 510.77 457.838 485.884 442.531 484.671L433.822 488.156C422.567 494.226 419.781 510.868 421.313 523.712C423.49 541.971 424.395 567.806 426.831 583.651C428.828 596.612 436.132 608.01 448.622 611.348L522.65 627.622L530.382 605.738Z" fill="#D6D98B"/>
<path d="M458.176 519.7C458.206 519.694 458.272 520.16 458.369 521.035C458.465 521.991 458.592 523.277 458.755 524.894C459.063 528.324 459.497 533.151 460.028 539.086C460.534 545.101 461.137 552.23 461.807 560.137C461.97 562.122 462.139 564.149 462.307 566.226C462.488 568.302 462.615 570.427 463.079 572.485C463.52 574.556 464.497 576.497 466.065 577.973C467.621 579.45 469.575 580.534 471.608 581.471C488.181 588.76 503.459 594.768 514.544 598.988C520.045 601.046 524.526 602.725 527.704 603.913C529.206 604.47 530.4 604.923 531.287 605.254C532.101 605.567 532.523 605.744 532.517 605.769C532.511 605.799 532.065 605.671 531.233 605.407C530.334 605.113 529.128 604.715 527.602 604.213C524.459 603.153 519.924 601.567 514.345 599.527C503.193 595.448 487.898 589.525 471.276 582.218C469.213 581.263 467.181 580.148 465.516 578.561C463.833 576.987 462.754 574.831 462.307 572.669C461.831 570.501 461.716 568.363 461.547 566.293C461.385 564.217 461.222 562.189 461.071 560.205C460.462 552.291 459.919 545.156 459.461 539.129C459.032 533.187 458.689 528.355 458.441 524.919C458.345 523.296 458.266 522.009 458.206 521.048C458.164 520.166 458.152 519.7 458.176 519.7ZM423.744 551.507C423.774 551.507 423.81 551.777 423.864 552.297C423.918 552.904 423.985 553.651 424.063 554.551C424.238 556.64 424.485 559.445 424.775 562.857C425.107 566.36 425.523 570.525 426.12 575.131C426.741 579.731 427.471 584.809 428.834 589.96C429.485 592.557 430.39 594.964 431.771 597.022C433.146 599.105 434.678 600.973 436.258 602.627C439.437 605.928 442.826 608.347 445.878 609.952C452.024 613.198 456.493 613.247 456.433 613.462C456.427 613.492 456.162 613.486 455.649 613.443C455.136 613.413 454.382 613.351 453.423 613.155C451.511 612.812 448.755 612.047 445.619 610.467C442.483 608.905 438.997 606.485 435.728 603.153C434.105 601.487 432.531 599.589 431.114 597.469C429.678 595.35 428.701 592.778 428.062 590.174C426.675 584.944 425.969 579.854 425.384 575.229C424.829 570.605 424.467 566.422 424.208 562.906C423.955 559.39 423.822 556.542 423.75 554.57C423.732 553.663 423.713 552.916 423.701 552.304C423.701 551.783 423.719 551.513 423.744 551.507Z" fill="#263238"/>
<path d="M449.443 592.459C449.364 592.434 449.618 591.13 450.54 589.207C451.451 587.283 453.134 584.803 455.589 582.665C458.043 580.54 460.721 579.241 462.73 578.629C464.75 578.01 466.059 577.955 466.065 578.041C466.089 578.175 464.828 578.433 462.923 579.174C461.011 579.909 458.484 581.238 456.107 583.29C453.743 585.348 452.054 587.675 451.041 589.476C450.016 591.277 449.575 592.502 449.443 592.459Z" fill="#263238"/>
<path d="M461.264 547.955C461.276 547.942 461.403 547.998 461.65 548.126C461.933 548.279 462.283 548.463 462.724 548.702C463.689 549.161 465.094 549.884 467.012 550.546C470.787 551.881 476.71 553.234 483.857 552.009C490.908 550.833 499.116 546.613 504.798 538.798C507.608 534.933 509.785 530.18 510.28 524.968C510.527 522.377 510.322 519.682 509.478 517.146C508.652 514.61 507.144 512.258 505.141 510.421C503.157 508.577 500.684 507.272 498.091 506.936C495.534 506.525 492.789 507.211 491.016 508.957C490.16 509.833 489.629 511.003 489.641 512.203C489.635 513.41 490.087 514.592 490.799 515.56C492.222 517.532 494.623 518.451 496.915 518.794C501.595 519.449 506.197 518.591 510.051 516.889C513.923 515.174 517.083 512.626 519.363 509.82C521.643 506.997 523.048 503.947 523.892 501.178C524.737 498.397 524.99 495.88 525.032 493.828C525.063 491.782 524.851 490.196 524.695 489.124C524.604 488.628 524.538 488.23 524.478 487.911C524.429 487.636 524.411 487.495 524.423 487.489C524.423 487.489 525.274 489.669 525.346 493.834C525.352 495.904 525.141 498.465 524.321 501.307C523.506 504.136 522.113 507.266 519.803 510.182C517.499 513.085 514.279 515.725 510.322 517.507C506.372 519.284 501.661 520.196 496.806 519.541C494.418 519.192 491.8 518.236 490.184 516.025C489.394 514.953 488.863 513.618 488.857 512.203C488.839 510.788 489.478 509.386 490.461 508.393C492.476 506.409 495.455 505.704 498.193 506.133C500.974 506.495 503.591 507.873 505.684 509.814C507.789 511.756 509.369 514.212 510.238 516.889C511.118 519.553 511.323 522.358 511.064 525.041C510.539 530.437 508.284 535.307 505.389 539.239C499.544 547.214 491.149 551.452 483.947 552.573C476.668 553.749 470.685 552.279 466.903 550.846C463.079 549.363 461.264 547.955 461.264 547.955ZM421.898 532.348C421.862 532.311 422.194 531.858 422.881 531.099C423.575 530.345 424.648 529.31 426.132 528.226C429.051 526.003 433.882 523.975 439.431 523.442C442.199 523.142 444.895 523.277 447.265 523.779C449.636 524.275 451.68 525.09 453.303 525.935C454.925 526.768 456.155 527.595 456.976 528.202C457.79 528.814 458.212 529.188 458.176 529.237C458.098 529.365 456.3 527.981 453.055 526.456C449.853 524.894 444.937 523.596 439.509 524.257C434.075 524.784 429.389 526.652 426.452 528.704C423.478 530.719 422.007 532.465 421.898 532.348ZM431.512 490.502C431.632 490.367 433.056 492.364 436.373 494.098C438.013 494.961 440.136 495.684 442.567 495.941C444.986 496.198 447.718 495.917 450.317 494.851C452.899 493.742 455.028 491.978 456.566 490.055C458.104 488.132 459.099 486.098 459.66 484.31C460.806 480.702 460.42 478.271 460.601 478.277C460.643 478.271 460.763 478.859 460.806 479.937C460.848 481.021 460.721 482.601 460.202 484.475C459.696 486.349 458.719 488.493 457.139 490.527C455.576 492.56 453.351 494.434 450.625 495.604C447.881 496.731 445.004 497.001 442.483 496.682C439.956 496.382 437.772 495.568 436.108 494.606C434.437 493.65 433.249 492.621 432.525 491.825C431.801 491.029 431.476 490.533 431.512 490.502ZM483.881 586.726C483.857 586.72 483.899 586.328 484.008 585.568C484.177 584.833 484.418 583.712 485.075 582.414C486.288 579.78 489.303 576.491 494.068 574.482C498.766 572.338 505.226 571.922 511.74 573.839C514.918 574.801 518.567 575.983 520.949 579.131C522.113 580.681 522.517 582.99 521.625 584.87C520.774 586.763 519.104 588.067 517.343 588.98C515.551 589.868 513.603 590.37 511.649 590.407C509.719 590.45 507.699 589.96 506.191 588.686C504.665 587.436 503.863 585.501 503.742 583.657C503.603 581.795 503.971 580.001 504.562 578.371C507.12 571.842 512.3 567.689 516.951 565.638C521.673 563.537 525.949 563.316 528.772 563.573C531.618 563.874 533.09 564.498 533.09 564.498C533.066 564.602 531.558 564.088 528.748 563.892C525.955 563.733 521.769 564.045 517.18 566.164C514.906 567.218 512.554 568.737 510.437 570.813C508.332 572.877 506.438 575.523 505.256 578.629C504.707 580.184 504.369 581.893 504.508 583.596C504.629 585.293 505.346 586.971 506.691 588.067C508.012 589.182 509.834 589.635 511.643 589.599C513.458 589.562 515.304 589.084 516.981 588.245C518.639 587.394 520.171 586.169 520.895 584.539C521.655 582.916 521.335 580.993 520.31 579.603C519.291 578.175 517.807 577.146 516.287 576.356C514.761 575.578 513.127 575.046 511.54 574.562C505.159 572.651 498.899 572.994 494.285 575.015C489.611 576.914 486.619 580.037 485.353 582.561C484.038 585.091 483.996 586.757 483.881 586.726ZM443.87 608.764C443.846 608.604 446.162 608.408 449.63 607.153C453.08 605.922 457.681 603.41 461.445 599.184C465.208 594.952 467.211 590.052 468.067 586.438C468.948 582.806 468.912 580.448 469.062 580.454C469.117 580.454 469.171 581.042 469.153 582.102C469.135 583.167 469.002 584.705 468.622 586.573C467.892 590.285 465.92 595.368 462.042 599.729C458.164 604.084 453.375 606.589 449.817 607.698C448.025 608.268 446.53 608.562 445.492 608.684C444.449 608.807 443.87 608.813 443.87 608.764ZM424.389 563.273C424.383 563.249 424.63 563.145 425.113 562.979C425.601 562.82 426.319 562.593 427.26 562.348C429.135 561.889 431.934 561.258 435.45 561.509C437.193 561.644 439.111 562.048 441.017 562.906C442.905 563.757 444.799 565.092 446.204 567.04C447.585 568.988 448.429 571.518 448.224 574.157C448.128 575.474 447.73 576.797 447.03 577.973C446.331 579.137 445.275 580.191 443.882 580.65C442.513 581.085 440.902 580.864 439.823 579.835C438.755 578.782 438.49 577.312 438.424 576.032C438.327 573.429 438.876 570.936 439.841 568.774C441.753 564.394 445.305 561.522 448.604 560.327C451.928 559.078 454.871 559.17 456.777 559.5C457.742 559.672 458.471 559.886 458.954 560.064C459.43 560.241 459.678 560.352 459.672 560.382C459.642 560.462 458.634 560.058 456.734 559.819C454.853 559.586 451.988 559.586 448.809 560.86C445.655 562.085 442.308 564.878 440.516 569.08C439.618 571.15 439.105 573.539 439.208 575.989C439.268 577.189 439.545 578.451 440.372 579.247C441.186 580.031 442.513 580.233 443.641 579.872C444.781 579.498 445.721 578.592 446.355 577.551C446.982 576.491 447.344 575.297 447.44 574.09C447.645 571.671 446.873 569.3 445.607 567.481C444.316 565.656 442.537 564.357 440.74 563.518C438.93 562.679 437.091 562.25 435.396 562.079C431.994 561.767 429.214 562.299 427.332 562.661C425.444 563.053 424.407 563.335 424.389 563.273Z" fill="white"/>
<mask id="mask6_156_2975" style="mask-type:luminance" maskUnits="userSpaceOnUse" x="0" y="0" width="772" height="784">
<path d="M0 0H772V784H0V0Z" fill="black" fill-opacity="0.300003"/>
</mask>
<g mask="url(#mask6_156_2975)">
<mask id="mask7_156_2975" style="mask-type:luminance" maskUnits="userSpaceOnUse" x="460" y="537" width="54" height="62">
<path d="M460.136 537.095H513.109V598.762H460.136V537.095Z" fill="white"/>
</mask>
<g mask="url(#mask7_156_2975)">
<path d="M513.109 598.762C506.685 595.074 500.395 592.239 493.676 589.139C486.957 586.04 480.371 582.059 475.974 576.038C467.681 564.682 468.628 548.298 460.136 537.095C460.691 544.629 461.246 552.163 461.801 559.696C462.307 566.599 461.264 573.429 465.643 578.12C469.334 582.071 476.529 585.103 481.619 586.812C491.854 590.236 502.874 595.332 513.109 598.762Z" fill="black"/>
</g>
</g>
<path d="M617.54 684.769C617.54 684.769 667.828 698.899 669.849 699.622C672.876 700.706 672.37 711.976 667.653 711.798C665.422 711.719 629.029 713.177 624.427 712.889C619.832 712.595 605.954 707.039 605.954 707.039L617.54 684.769Z" fill="#D6D98B"/>
<path d="M638.492 704.253C638.745 704.289 639.083 701.588 640.706 698.771C642.292 695.929 644.421 694.275 644.264 694.067C644.174 693.871 641.677 695.31 639.976 698.342C638.251 701.355 638.281 704.277 638.492 704.253ZM633.245 701.839C633.492 701.882 634.005 699.469 635.344 696.798C636.653 694.116 638.263 692.266 638.082 692.088C637.943 691.923 635.977 693.595 634.59 696.419C633.185 699.23 633.034 701.827 633.245 701.839ZM628.33 700.498C628.583 700.486 628.39 697.932 629.506 695.108C630.573 692.26 632.419 690.514 632.244 690.33C632.141 690.134 629.892 691.715 628.722 694.796C627.527 697.858 628.124 700.571 628.33 700.498Z" fill="#263238"/>
<path d="M629.222 693.907C629.313 693.926 629.759 692.499 629.765 690.104C629.759 688.909 629.62 687.482 629.252 685.939C629.065 685.167 628.818 684.371 628.504 683.568C628.342 683.164 628.155 682.699 627.696 682.319C627.232 681.89 626.375 681.976 625.971 682.405C625.513 682.815 625.362 683.391 625.302 683.85C625.248 684.316 625.223 684.757 625.235 685.198C625.248 686.08 625.362 686.919 625.543 687.697C625.917 689.259 626.514 690.563 627.093 691.604C628.263 693.675 629.282 694.734 629.355 694.679C629.469 694.593 628.625 693.405 627.624 691.323C627.129 690.281 626.611 689.001 626.303 687.525C626.146 686.79 626.062 686.006 626.062 685.192C626.08 684.408 626.074 683.428 626.526 683.048C626.761 682.846 626.978 682.833 627.19 682.993C627.413 683.164 627.6 683.513 627.738 683.881C628.052 684.646 628.305 685.406 628.504 686.141C628.896 687.605 629.089 688.971 629.168 690.128C629.313 692.437 629.083 693.883 629.222 693.907Z" fill="#263238"/>
<path d="M629.162 693.387C629.18 693.289 627.968 692.866 625.917 692.854C624.892 692.854 623.667 692.958 622.347 693.295C621.695 693.479 620.996 693.65 620.296 694.067C619.608 694.422 618.885 695.39 619.156 696.4C619.373 697.35 620.175 698.017 620.965 698.226C621.768 698.446 622.546 698.366 623.221 698.219C624.602 697.895 625.676 697.203 626.49 696.584C628.1 695.304 628.891 694.318 628.83 694.25C628.74 694.14 627.787 694.979 626.152 696.088C625.326 696.621 624.295 697.203 623.064 697.448C622.455 697.564 621.798 697.601 621.201 697.417C620.61 697.252 620.121 696.798 619.976 696.204C619.832 695.635 620.175 695.114 620.724 694.783C621.261 694.44 621.93 694.244 622.546 694.061C623.794 693.699 624.958 693.534 625.935 693.46C627.907 693.319 629.138 693.522 629.162 693.387ZM646.218 704.798C646.466 704.767 646.218 702.587 647.213 700.192C648.148 697.778 649.831 696.394 649.674 696.198C649.59 695.99 647.485 697.197 646.429 699.867C645.344 702.531 646.013 704.89 646.218 704.798ZM611.128 707.156C611.104 707.211 611.798 707.542 613.077 708.087C614.367 708.583 616.255 709.275 618.668 709.851C623.48 711.082 630.338 711.78 637.871 711.694C645.404 711.609 652.195 711.266 657.123 711.064C659.451 710.935 661.405 710.831 662.949 710.751C664.324 710.653 665.084 710.58 665.084 710.518C665.078 710.457 664.318 710.427 662.937 710.414C661.393 710.427 659.439 710.445 657.105 710.457C652.008 710.561 645.296 710.696 637.865 710.843C630.368 710.923 623.589 710.322 618.8 709.257C613.993 708.258 611.189 706.997 611.128 707.156Z" fill="#263238"/>
<path d="M609.645 708.32C609.711 708.442 611.086 707.621 613.408 706.586C615.706 705.588 619.144 704.387 622.926 704.981C626.719 705.569 629.403 708.154 631.152 709.949C632.913 711.811 633.945 713.042 634.047 712.956C634.126 712.895 633.269 711.535 631.586 709.538C630.736 708.552 629.662 707.407 628.251 706.372C626.858 705.337 625.067 704.449 623.058 704.136C619.005 703.505 615.435 704.883 613.161 706.041C610.851 707.242 609.59 708.24 609.645 708.32Z" fill="#263238"/>
<path d="M564.163 670.669C564.163 670.669 516.577 702.311 514.87 703.616C512.306 705.582 515.25 714.947 519.689 713.324C521.788 712.558 561.72 701.276 566.015 699.579C570.309 697.883 581.865 688.315 581.865 688.315L564.163 670.669Z" fill="#D6D98B"/>
<path d="M550.032 695.696C550.243 695.647 549.399 692.86 546.847 690.52C544.32 688.156 541.51 687.556 541.486 687.77C541.401 688.015 543.922 688.934 546.28 691.151C548.669 693.338 549.803 695.806 550.032 695.696ZM554.308 691.776C554.507 691.696 553.584 689.265 551.407 687.023C549.236 684.763 546.872 683.777 546.787 683.979C546.666 684.199 548.747 685.473 550.804 687.623C552.879 689.748 554.085 691.892 554.308 691.776ZM558.59 688.983C558.807 688.995 558.572 686.22 556.509 683.666C554.477 681.094 551.859 680.285 551.817 680.5C551.709 680.732 553.988 681.823 555.858 684.205C557.764 686.557 558.343 689.05 558.59 688.983Z" fill="#263238"/>
<path d="M555.768 682.974C555.894 682.913 555.243 681.608 554.694 679.354C554.423 678.233 554.193 676.874 554.133 675.355C554.103 674.595 554.115 673.793 554.181 672.972C554.211 672.574 554.284 672.182 554.441 671.949C554.597 671.735 554.803 671.686 555.092 671.802C555.635 672.023 555.918 672.96 556.178 673.701C556.419 674.473 556.57 675.251 556.642 675.998C556.787 677.498 556.678 678.877 556.521 680.022C556.19 682.319 555.743 683.709 555.876 683.752C555.961 683.783 556.612 682.46 557.106 680.126C557.348 678.956 557.529 677.529 557.414 675.93C557.36 675.128 557.215 674.289 556.962 673.45C556.841 673.021 556.684 672.617 556.497 672.188C556.298 671.765 555.991 671.263 555.424 671.018C554.911 670.736 554.073 670.914 553.753 671.465C553.433 671.968 553.397 672.47 553.361 672.905C553.301 673.768 553.301 674.607 553.355 675.398C553.464 676.978 553.765 678.38 554.115 679.52C554.839 681.804 555.689 683.023 555.768 682.974Z" fill="#263238"/>
<path d="M555.671 682.46C555.731 682.582 556.847 682.013 558.765 681.535C559.724 681.302 560.882 681.106 562.173 681.063C562.818 681.051 563.512 681.033 564.127 681.186C564.754 681.333 565.231 681.731 565.267 682.319C565.309 682.919 564.977 683.513 564.465 683.85C563.952 684.205 563.313 684.377 562.691 684.45C561.449 684.597 560.291 684.365 559.35 684.113C557.456 683.556 556.298 683.054 556.244 683.182C556.208 683.268 557.251 683.96 559.175 684.689C560.134 685.026 561.365 685.351 562.776 685.234C563.463 685.167 564.229 685.008 564.923 684.542C565.617 684.101 566.184 683.219 566.105 682.251C566.063 681.204 565.086 680.5 564.326 680.377C563.53 680.193 562.812 680.249 562.137 680.273C560.78 680.365 559.579 680.634 558.602 680.953C556.654 681.602 555.623 682.38 555.671 682.46ZM525.75 711.56C525.804 711.633 526.552 711.07 526.914 709.685C527.312 708.338 527.065 706.261 526.021 704.442C525.527 703.524 524.954 702.733 524.429 702.029C523.911 701.331 523.368 700.694 522.813 700.271C522.264 699.836 521.691 699.64 521.293 699.622C520.895 699.61 520.69 699.708 520.702 699.757C520.702 699.891 521.546 699.824 522.427 700.731C522.879 701.165 523.319 701.772 523.802 702.495C524.291 703.211 524.821 703.995 525.286 704.853C526.251 706.555 526.534 708.319 526.329 709.569C526.16 710.818 525.642 711.48 525.75 711.56ZM542.837 698.599C543.054 698.624 542.987 696.167 541.16 693.969C539.351 691.745 536.986 691.243 536.968 691.463C536.878 691.702 538.892 692.505 540.515 694.514C542.167 696.492 542.589 698.648 542.837 698.599Z" fill="#263238"/>
<path d="M576.973 690.024C576.931 689.969 576.201 690.514 574.881 691.482C573.542 692.419 571.575 693.736 569.012 695.132C566.455 696.523 563.295 697.974 559.694 699.346C556.093 700.706 552.046 701.992 547.776 703.254C539.212 705.759 531.462 708.044 525.871 709.753C523.187 710.592 520.967 711.284 519.26 711.811C517.704 712.319 516.848 712.625 516.866 712.68C516.884 712.742 517.765 712.54 519.351 712.135C521.07 711.67 523.325 711.063 526.034 710.335C531.673 708.773 539.441 706.58 548.011 704.075C552.294 702.813 556.353 701.496 559.965 700.081C563.584 698.66 566.75 697.135 569.302 695.659C571.853 694.183 573.789 692.774 575.074 691.745C576.346 690.692 577.004 690.061 576.973 690.024Z" fill="#263238"/>
<path d="M578.735 690.673C578.759 690.575 577.257 690.012 574.7 689.583C572.191 689.179 568.379 688.971 564.7 690.826C562.884 691.739 561.437 693.136 560.424 694.557C559.386 695.978 558.705 697.399 558.192 698.605C557.185 701.019 556.775 702.58 556.865 702.617C556.992 702.666 557.607 701.172 558.729 698.856C559.857 696.609 561.648 693.319 565.08 691.586C568.506 689.853 572.142 689.938 574.627 690.183C577.148 690.453 578.704 690.808 578.735 690.673ZM663.051 593.5C663.051 593.5 677.327 598.676 677.388 614.932C677.502 646.071 615.435 680.396 615.435 680.396L532.843 624.817L527.662 622.686C527.662 622.686 639.162 580.154 663.051 593.5Z" fill="#3F4029"/>
<path d="M574.682 652.888C574.718 652.931 575.484 652.404 576.835 651.406C578.186 650.408 580.116 648.931 582.48 647.076C587.208 643.364 593.644 638.096 600.568 632.069C607.486 626.03 613.583 620.364 617.908 616.181C620.073 614.086 621.81 612.371 622.98 611.165C624.156 609.958 624.789 609.272 624.747 609.229C624.711 609.186 623.999 609.793 622.757 610.92C621.406 612.157 619.639 613.78 617.503 615.734C613.077 619.801 606.931 625.387 600.019 631.42C593.107 637.441 586.744 642.77 582.112 646.598C579.887 648.448 578.041 649.973 576.636 651.143C575.345 652.221 574.645 652.839 574.682 652.888ZM639.735 605.138C639.771 604.929 636.086 604.562 631.779 605.873C627.461 607.147 624.566 609.486 624.699 609.646C624.837 609.866 627.847 607.918 632.015 606.693C636.17 605.426 639.741 605.401 639.735 605.138Z" fill="#455A64"/>
<path d="M632.624 600.232C632.551 600.03 629.904 601.212 627.726 603.974C625.525 606.712 624.946 609.591 625.157 609.621C625.398 609.707 626.297 607.092 628.378 604.507C630.428 601.898 632.757 600.452 632.624 600.232Z" fill="#455A64"/>
<path d="M667.599 698.826C667.641 698.728 666.61 698.526 665.464 699.481C664.342 700.394 663.389 702.219 663.082 704.35C662.768 706.494 663.238 708.466 663.835 709.716C664.414 710.99 665.06 711.59 665.132 711.529C665.247 711.449 664.794 710.745 664.384 709.495C663.962 708.258 663.63 706.433 663.914 704.467C664.197 702.513 664.987 700.822 665.868 699.928C666.743 698.997 667.611 698.96 667.599 698.826Z" fill="#263238"/>
<path d="M644.059 542.632L614.639 618.362L487.97 620.456L485.63 613.498L530.02 611.863L551.353 544.684L644.059 542.632Z" fill="#455A64"/>
<path d="M584.905 575.413C586.527 574.298 589.531 574.746 590.996 576.075C592.456 577.404 592.932 579.713 592.184 581.557C591.442 583.4 589.573 584.693 587.613 584.803C585.526 584.913 583.355 583.59 582.776 581.557C582.191 579.523 582.836 576.485 584.905 575.413Z" fill="#EBEBEB"/>
<path d="M623.257 684.175C623.257 684.175 506.559 606.442 501.782 604.825C497.005 603.202 485.455 595.521 473.911 598.755C462.362 601.989 452.006 612.506 446.831 627.874C443.87 636.651 442.477 651.633 441.819 662.866C441.035 676.298 445.13 689.687 453.779 699.879C457.718 704.516 462.573 708.552 468.333 710.371C469.545 710.751 470.811 711.088 472.108 711.37C494.17 716.227 516.842 706.17 529.236 687.011L531.962 682.797C531.962 682.797 608.3 711.284 609.494 710.874L623.257 684.175Z" fill="#3F4029"/>
<path d="M478.881 662.78C478.881 662.78 479.092 662.89 479.521 663.068C479.985 663.252 480.618 663.509 481.432 663.834C483.157 664.507 485.642 665.481 488.833 666.731C495.322 669.211 504.689 672.794 516.329 677.247C528.006 681.676 541.998 686.931 557.692 692.731C573.391 698.532 590.785 704.889 609.361 711.278L609.699 711.394L609.868 711.076C612.781 705.416 615.863 699.45 618.981 693.393C620.579 690.3 622.154 687.237 623.631 684.371L623.812 684.028L623.486 683.819C588.445 661.23 557.094 641.018 534.471 626.428C523.175 619.195 514.055 613.351 507.729 609.303C504.598 607.318 502.156 605.769 500.467 604.703C499.659 604.194 499.026 603.809 498.573 603.521C498.145 603.263 497.91 603.147 497.91 603.147C497.91 603.147 498.115 603.312 498.525 603.594C498.971 603.894 499.586 604.311 500.383 604.844C502.053 605.94 504.466 607.533 507.56 609.572C513.856 613.682 522.921 619.593 534.158 626.924C556.745 641.569 588.047 661.855 623.028 684.536L622.883 683.979C621.412 686.839 619.831 689.908 618.239 692.995C615.115 699.052 612.039 705.018 609.126 710.678L609.627 710.475C591.062 704.105 573.656 697.772 557.945 692.027C542.258 686.227 528.247 681.045 516.522 676.714C504.846 672.366 495.449 668.868 488.941 666.443C485.727 665.255 483.224 664.324 481.487 663.687C480.66 663.393 480.021 663.16 479.551 662.988C479.116 662.835 478.881 662.78 478.881 662.78Z" fill="#455A64"/>
<path d="M490.992 386.726C492.982 381.263 497.379 378.893 502.958 377.521C508.531 376.149 514.731 377.772 518.959 381.71C521.788 384.344 523.862 387.976 527.354 389.587C533.108 392.233 540.478 388.362 545.931 391.602C549.163 393.519 550.744 397.88 549.519 401.463C548.289 405.052 544.381 407.472 540.677 406.939C544.429 408.734 545.129 414.467 542.547 417.762C539.966 421.051 535.195 421.945 531.202 420.8C527.216 419.654 523.905 416.825 521.088 413.738C518.265 410.651 515.799 407.227 512.753 404.373C509.701 401.524 505.895 399.228 501.752 399.074C496.143 398.86 490.968 402.688 488.025 407.539C485.081 412.39 483.984 418.142 483.163 423.783C482.343 429.418 481.722 435.169 479.581 440.437C479.328 441.055 478.972 441.741 478.326 441.876C477.392 442.078 476.71 441.031 476.336 440.143C472.12 430.104 469.871 419.22 469.756 408.305C469.69 401.965 470.389 396.03 474.261 391.063C478.139 386.096 487.078 382.996 490.992 386.726Z" fill="#263238"/>
<path d="M477.838 412.023L469.255 475.337C467.796 486.098 475.51 495.917 486.167 496.86C496.119 497.748 504.997 490.539 506.348 480.488C506.993 475.723 507.536 471.748 507.632 471.264C507.632 471.264 523.712 471.962 527.017 456.172C528.615 448.54 530.647 432.548 532.318 418.062C534.115 402.504 523.826 388.154 508.7 385.085L507.192 384.779C490.787 382.451 479.671 395.301 477.838 412.023Z" fill="#FFBE9D"/>
<path d="M507.705 471.037C507.705 471.037 497.693 469.855 488.537 461.047C488.537 461.047 491.095 473.42 506.933 475.147L507.705 471.037Z" fill="#EB996E"/>
<path d="M525.69 427.745C525.497 428.946 524.339 429.773 523.096 429.589C521.86 429.405 521.01 428.291 521.203 427.084C521.396 425.883 522.56 425.057 523.796 425.234C525.038 425.418 525.883 426.539 525.69 427.745ZM527.439 425.155C527.107 425.387 525.672 423.783 523.271 423.299C520.889 422.79 518.88 423.685 518.681 423.329C518.579 423.176 518.965 422.698 519.839 422.288C520.708 421.878 522.101 421.59 523.591 421.902C525.081 422.208 526.227 423.023 526.836 423.74C527.457 424.462 527.602 425.05 527.439 425.155ZM502.035 423.801C501.842 425.008 500.678 425.828 499.442 425.651C498.205 425.467 497.349 424.346 497.548 423.146C497.741 421.939 498.899 421.118 500.141 421.296C501.378 421.48 502.228 422.6 502.035 423.801ZM503.802 420.83C503.471 421.063 502.035 419.458 499.635 418.981C497.246 418.466 495.244 419.36 495.045 419.005C494.942 418.852 495.322 418.374 496.203 417.964C497.071 417.553 498.465 417.266 499.954 417.578C501.444 417.884 502.59 418.699 503.199 419.415C503.82 420.138 503.965 420.726 503.802 420.83ZM508.947 440.632C508.965 440.492 510.503 440.534 512.982 440.712C513.603 440.773 514.206 440.767 514.393 440.363C514.628 439.94 514.502 439.218 514.351 438.44C514.068 436.817 513.778 435.12 513.47 433.338C512.282 426.098 511.553 420.187 511.842 420.144C512.132 420.095 513.326 425.932 514.514 433.178C514.791 434.961 515.057 436.657 515.31 438.287C515.4 439.04 515.642 439.922 515.147 440.792C514.888 441.22 514.375 441.465 513.959 441.49C513.549 441.533 513.199 441.472 512.891 441.429C510.437 441.067 508.929 440.773 508.947 440.632ZM501.571 440.884C501.963 440.945 501.45 443.585 503.302 445.912C505.153 448.24 507.988 448.503 507.934 448.883C507.94 449.054 507.216 449.269 506.04 449.06C504.882 448.871 503.284 448.154 502.144 446.733C501.016 445.306 500.732 443.658 500.859 442.556C500.974 441.429 501.396 440.835 501.571 440.884ZM506.299 411.422C505.931 412.035 503.603 411.232 500.726 411.006C497.85 410.724 495.419 411.098 495.166 410.43C495.051 410.112 495.57 409.573 496.613 409.113C497.65 408.66 499.219 408.348 500.944 408.501C502.668 408.654 504.158 409.236 505.099 409.873C506.046 410.504 506.462 411.128 506.299 411.422ZM527.945 417.933C527.415 418.399 525.877 417.492 523.898 417.057C521.938 416.561 520.159 416.69 519.888 416.034C519.773 415.716 520.147 415.22 520.985 414.846C521.812 414.473 523.102 414.289 524.459 414.607C525.816 414.926 526.896 415.667 527.475 416.377C528.066 417.088 528.187 417.7 527.945 417.933Z" fill="#263238"/>
<path d="M476.8 424.003C476.559 423.832 466.722 418.613 464.937 429.503C463.146 440.4 474.285 439.977 474.352 439.665C474.424 439.359 476.8 424.003 476.8 424.003Z" fill="#FFBE9D"/>
<path d="M471.752 434.985C471.71 434.942 471.547 435.083 471.209 435.181C470.872 435.267 470.329 435.279 469.804 434.973C468.743 434.354 468.085 432.37 468.357 430.398C468.489 429.399 468.851 428.493 469.328 427.77C469.786 427.029 470.383 426.557 470.968 426.551C471.559 426.514 471.909 426.931 471.987 427.255C472.084 427.586 471.981 427.794 472.03 427.819C472.06 427.85 472.289 427.678 472.277 427.213C472.271 426.986 472.187 426.71 471.969 426.459C471.746 426.202 471.384 426.03 470.98 426.006C470.148 425.926 469.273 426.569 468.755 427.366C468.188 428.156 467.76 429.173 467.609 430.287C467.313 432.498 468.085 434.74 469.557 435.457C470.281 435.781 470.95 435.659 471.318 435.457C471.692 435.242 471.788 435.01 471.752 434.985Z" fill="#EB996E"/>
<path d="M536.269 415.446C529.037 415.906 521.667 412.58 517.168 406.81C514.019 402.774 512.017 397.488 507.554 395.038C504.55 393.39 500.859 393.372 497.608 394.419C494.351 395.467 491.487 397.5 488.917 399.779C490.347 408.439 486.559 417.008 482.862 424.946C482.458 425.822 481.987 426.759 481.131 427.188C479.677 427.917 477.94 426.765 477.072 425.375C475.679 423.146 475.516 420.365 475.57 417.731C475.685 411.722 476.728 405.683 479.129 400.195C481.529 394.707 485.347 389.783 490.341 386.561C496.577 382.537 504.442 381.391 511.667 382.972C518.893 384.558 525.455 388.76 530.37 394.37C532.65 396.973 534.634 399.962 535.406 403.356M104.16 670.865C104.142 670.859 104.238 670.638 104.431 670.204C104.642 669.738 104.938 669.113 105.306 668.311C106.047 666.639 107.012 664.103 107.875 660.728C109.576 653.985 110.167 643.682 107.658 631.445C106.488 625.32 104.606 618.747 102.308 611.777C100.04 604.795 97.4167 597.39 95.2636 589.384C93.1406 581.391 91.4639 572.724 91.7896 563.635C92.1153 554.527 94.769 545.437 97.6881 536.385C100.601 527.326 103.617 518.463 104.522 509.551C105.541 500.657 103.665 491.929 99.6784 484.769C95.8124 477.542 90.9512 471.355 87.3084 464.949C83.6112 458.566 81.3012 452 79.8779 445.894C77.1155 433.583 78.0805 423.207 79.4074 416.371C80.8429 409.499 82.4411 405.947 82.4411 405.947C82.4532 405.953 82.3929 406.185 82.2602 406.639C82.1094 407.135 81.9044 407.796 81.645 408.635C81.1082 410.393 80.4207 413.015 79.7633 416.445C78.551 423.262 77.6945 433.564 80.5172 445.741C81.9707 451.78 84.2927 458.26 87.9718 464.557C91.6026 470.884 96.4879 477.046 100.426 484.359C104.503 491.592 106.464 500.608 105.42 509.649C104.516 518.708 101.476 527.626 98.5747 536.679C95.6496 545.719 93.032 554.717 92.6943 563.671C92.3625 572.62 94.003 581.207 96.0899 589.158C98.2008 597.12 100.8 604.531 103.038 611.532C105.306 618.521 107.163 625.148 108.297 631.316C110.746 643.646 110.046 654.052 108.225 660.82C107.302 664.207 106.277 666.737 105.474 668.391C105.07 669.175 104.751 669.787 104.509 670.246C104.292 670.669 104.172 670.877 104.16 670.865Z" fill="#263238"/>
<path d="M92.254 471.27C92.254 471.27 84.8657 447.272 98.1164 433.221C98.5868 432.731 99.401 432.964 99.5216 433.638C100.233 437.595 101.114 449.667 92.254 471.27Z" fill="#A4A66A"/>
<path d="M96.6809 441.221C96.8076 441.245 96.5965 442.936 96.1803 445.649C95.6978 448.693 95.1249 452.276 94.4976 456.233C93.8764 460.184 93.3215 463.767 92.839 466.811C92.4349 469.524 92.1937 471.202 92.061 471.196C91.9404 471.184 91.9524 469.475 92.1937 466.731C92.4349 463.987 92.9114 460.22 93.5809 456.08C94.2503 451.939 94.962 448.209 95.535 445.526C96.114 442.838 96.5543 441.19 96.6809 441.221Z" fill="#263238"/>
<path d="M100.933 527.865C100.933 527.865 105.45 503.144 123.641 497.019C124.274 496.805 124.895 497.399 124.69 498.054C123.49 501.895 118.713 512.981 100.933 527.865Z" fill="#A4A66A"/>
<path d="M118.683 503.408C118.785 503.487 117.82 504.878 116.204 507.083C114.371 509.545 112.217 512.442 109.841 515.639C107.471 518.843 105.33 521.734 103.508 524.208C101.898 526.407 100.909 527.779 100.8 527.705C100.698 527.644 101.494 526.137 102.965 523.822C104.449 521.519 106.602 518.408 109.105 515.07C111.602 511.725 113.942 508.767 115.691 506.672C117.44 504.571 118.586 503.322 118.683 503.408Z" fill="#263238"/>
<path d="M96.0175 589.88C96.0175 589.88 93.2733 564.89 108.924 553.669C109.473 553.271 110.233 553.663 110.227 554.343C110.173 558.373 108.774 570.391 96.0175 589.88Z" fill="#A4A66A"/>
<path d="M106.011 561.24C106.126 561.289 105.601 562.906 104.69 565.491C103.641 568.388 102.405 571.787 101.048 575.554C99.6966 579.315 98.4722 582.72 97.4348 585.617C96.5301 588.202 95.9753 589.807 95.8426 589.764C95.728 589.733 96.0597 588.061 96.8136 585.415C97.5675 582.769 98.7436 579.162 100.179 575.223C101.608 571.291 103.008 567.769 104.081 565.246C105.149 562.716 105.891 561.191 106.011 561.24Z" fill="#263238"/>
<path d="M109.72 652.257C109.72 652.257 107.857 627.188 123.894 616.536C124.455 616.163 125.203 616.579 125.167 617.265C124.98 621.283 123.158 633.245 109.72 652.257Z" fill="#A4A66A"/>
<path d="M120.715 623.997C120.83 624.052 120.245 625.644 119.244 628.198C118.092 631.059 116.741 634.409 115.245 638.121C113.767 641.833 112.422 645.189 111.283 648.049C110.287 650.597 109.678 652.178 109.546 652.141C109.431 652.104 109.823 650.438 110.667 647.823C111.518 645.207 112.821 641.643 114.389 637.759C115.963 633.882 117.483 630.416 118.647 627.929C119.805 625.448 120.595 623.941 120.715 623.997Z" fill="#263238"/>
<path d="M81.6329 450.188C81.6329 450.188 59.6913 438.55 59.257 419.097C59.2449 418.411 59.9868 417.988 60.5356 418.374C63.7985 420.665 72.8394 428.56 81.6329 450.188Z" fill="#A4A66A"/>
<path d="M63.8166 425.779C63.9192 425.706 64.9505 427.047 66.5488 429.264C68.3341 431.763 70.4209 434.703 72.7369 437.95C75.0529 441.19 77.1578 444.118 78.943 446.617C80.5473 448.822 81.5485 450.181 81.446 450.273C81.3555 450.353 80.1734 449.134 78.4304 447.027C76.6934 444.914 74.3955 441.906 71.983 438.501C69.5705 435.095 67.4776 431.953 66.012 429.638C64.5464 427.329 63.7081 425.853 63.8166 425.779Z" fill="#263238"/>
<path d="M105.197 501.723C105.197 501.723 82.598 491.458 81.0057 472.066C80.9514 471.386 81.6631 470.914 82.2421 471.27C85.6317 473.358 95.1249 480.672 105.197 501.723Z" fill="#A4A66A"/>
<path d="M85.9513 478.454C86.0539 478.375 87.1576 479.655 88.8886 481.762C90.8186 484.157 93.0803 486.956 95.5832 490.055C98.0922 493.148 100.366 495.941 102.302 498.324C104.033 500.425 105.113 501.723 105.016 501.815C104.932 501.901 103.677 500.762 101.814 498.765C99.9499 496.762 97.4831 493.902 94.8655 490.649C92.254 487.403 89.9742 484.396 88.3759 482.172C86.7716 479.955 85.8488 478.534 85.9513 478.454Z" fill="#263238"/>
<path d="M92.1937 559.206C92.1937 559.206 76.6753 539.612 83.955 521.611C84.2143 520.98 85.0587 520.894 85.4085 521.476C87.4953 524.9 92.6641 535.809 92.1937 559.206Z" fill="#3F4029"/>
<path d="M85.493 529.592C85.6196 529.568 86.0297 531.215 86.6268 533.898C87.2722 536.918 88.0321 540.458 88.8705 544.372C89.7148 548.286 90.4808 551.826 91.1382 554.839C91.7353 557.51 92.1153 559.164 91.9886 559.206C91.874 559.243 91.2709 557.645 90.5049 555.005C89.745 552.359 88.8282 548.678 87.9597 544.574C87.0912 540.47 86.4097 536.734 85.9815 534.02C85.5533 531.307 85.3663 529.617 85.493 529.592Z" fill="#263238"/>
<path d="M107.567 626.851C107.567 626.851 85.1371 616.2 83.8645 596.789C83.8223 596.103 84.54 595.65 85.113 596.012C88.4724 598.155 97.8389 605.634 107.567 626.851Z" fill="#A4A66A"/>
<path d="M88.7076 603.257C88.8101 603.184 89.8958 604.482 91.5905 606.62C93.4783 609.039 95.6978 611.881 98.1465 615.024C100.607 618.153 102.827 620.989 104.727 623.403C106.421 625.534 107.477 626.851 107.38 626.943C107.29 627.029 106.06 625.865 104.226 623.837C102.399 621.804 99.98 618.901 97.4228 615.605C94.8595 612.31 92.6279 609.266 91.0658 607.018C89.5037 604.776 88.6051 603.337 88.7076 603.257ZM152.235 528C152.259 528 152.271 528.189 152.265 528.551C152.253 528.992 152.241 529.519 152.229 530.162C152.162 531.675 152.072 533.714 151.963 536.256C151.668 541.615 151.27 549.088 150.787 558.024V558.049L150.781 558.079C149.177 567.175 144.617 577.263 138.49 587.051C133.99 594.266 129.28 600.82 125.215 606.92C121.126 613.002 117.67 618.631 115.263 623.623C112.845 628.609 111.433 632.89 110.613 635.879C110.215 637.38 109.92 638.556 109.751 639.358C109.564 640.154 109.455 640.571 109.419 640.565C109.389 640.559 109.443 640.13 109.564 639.321C109.678 638.501 109.92 637.312 110.263 635.787C110.981 632.749 112.308 628.394 114.678 623.335C117.03 618.264 120.45 612.555 124.509 606.43C128.544 600.293 133.23 593.727 137.705 586.548C143.803 576.81 148.339 566.881 149.997 557.926L149.991 557.975C150.612 549.045 151.131 541.585 151.499 536.225C151.704 533.69 151.861 531.65 151.981 530.143C152.048 529.506 152.096 528.98 152.144 528.545C152.18 528.183 152.217 528 152.235 528Z" fill="#263238"/>
<path d="M138.882 585.182C138.882 585.182 148.381 561.963 136.433 546.754C136.017 546.215 135.178 546.374 134.997 547.03C133.942 550.913 131.982 562.851 138.882 585.182Z" fill="#A4A66A"/>
<path d="M137.151 554.845C137.283 554.833 137.573 556.511 137.905 559.237C138.242 561.969 138.616 565.748 138.912 569.931C139.213 574.115 139.346 577.912 139.346 580.668C139.34 583.425 139.201 585.121 139.081 585.121C138.948 585.121 138.857 583.425 138.695 580.687C138.49 577.606 138.254 573.992 137.989 569.999C137.718 565.999 137.464 562.385 137.253 559.298C137.084 556.56 137.024 554.858 137.151 554.845Z" fill="#263238"/>
<mask id="mask8_156_2975" style="mask-type:luminance" maskUnits="userSpaceOnUse" x="0" y="0" width="772" height="784">
<path d="M0 0H772V784H0V0Z" fill="black" fill-opacity="0.300003"/>
</mask>
<g mask="url(#mask8_156_2975)">
<mask id="mask9_156_2975" style="mask-type:luminance" maskUnits="userSpaceOnUse" x="133" y="546" width="10" height="40">
<path d="M133.912 546.43H142.464V585.182H133.912V546.43Z" fill="white"/>
</mask>
<g mask="url(#mask9_156_2975)">
<path d="M138.882 585.182C138.882 585.182 148.381 561.963 136.433 546.754C136.017 546.215 135.179 546.374 134.998 547.03C133.942 550.913 131.982 562.851 138.882 585.182Z" fill="black"/>
</g>
</g>
<path d="M109.467 641.134C109.467 641.134 117.079 617.21 103.955 603.031C103.496 602.535 102.67 602.755 102.543 603.429C101.801 607.386 100.806 619.446 109.467 641.134Z" fill="#A4A66A"/>
<path d="M105.318 611.042C105.444 611.012 105.867 612.665 106.421 615.354C106.97 618.049 107.652 621.779 108.279 625.926C108.906 630.073 109.347 633.852 109.57 636.596C109.781 639.34 109.775 641.049 109.66 641.055C109.521 641.067 109.292 639.383 108.918 636.669C108.472 633.613 107.941 630.03 107.362 626.073C106.765 622.11 106.234 618.521 105.776 615.471C105.39 612.751 105.191 611.067 105.318 611.042Z" fill="#263238"/>
<mask id="mask10_156_2975" style="mask-type:luminance" maskUnits="userSpaceOnUse" x="0" y="0" width="772" height="784">
<path d="M0 0H772V784H0V0Z" fill="black" fill-opacity="0.300003"/>
</mask>
<g mask="url(#mask10_156_2975)">
<mask id="mask11_156_2975" style="mask-type:luminance" maskUnits="userSpaceOnUse" x="102" y="602" width="10" height="40">
<path d="M102.073 602.761H111.663V641.134H102.073V602.761Z" fill="white"/>
</mask>
<g mask="url(#mask11_156_2975)">
<path d="M109.467 641.134C109.467 641.134 117.079 617.21 103.955 603.031C103.496 602.535 102.67 602.755 102.543 603.429C101.802 607.386 100.806 619.446 109.467 641.134Z" fill="black"/>
</g>
</g>
<path d="M150.98 556.805C150.98 556.805 171.263 542.387 169.213 523.038C169.14 522.358 168.35 522.04 167.856 522.493C164.912 525.194 156.951 534.204 150.98 556.805Z" fill="#A4A66A"/>
<mask id="mask12_156_2975" style="mask-type:luminance" maskUnits="userSpaceOnUse" x="0" y="0" width="772" height="784">
<path d="M0 0H772V784H0V0Z" fill="black" fill-opacity="0.300003"/>
</mask>
<g mask="url(#mask12_156_2975)">
<mask id="mask13_156_2975" style="mask-type:luminance" maskUnits="userSpaceOnUse" x="150" y="522" width="20" height="35">
<path d="M150.98 522.285H169.357V556.805H150.98V522.285Z" fill="white"/>
</mask>
<g mask="url(#mask13_156_2975)">
<path d="M150.98 556.805C150.98 556.805 171.263 542.386 169.213 523.038C169.14 522.358 168.35 522.039 167.856 522.492C164.912 525.194 156.951 534.203 150.98 556.805Z" fill="black"/>
</g>
</g>
<path d="M165.546 530.266C165.66 530.321 165.021 531.895 163.863 534.382C162.705 536.869 161.022 540.262 159.062 543.949C157.102 547.649 155.214 550.925 153.755 553.253C152.295 555.574 151.276 556.934 151.179 556.867C151.065 556.787 151.885 555.311 153.194 552.91C154.647 550.203 156.36 547.018 158.248 543.502C160.13 539.98 161.824 536.795 163.278 534.076C164.581 531.675 165.431 530.205 165.546 530.266Z" fill="#263238"/>
<path d="M117.64 617.412C117.64 617.412 142.102 613.541 148.658 595.258C148.887 594.615 148.32 593.972 147.669 594.162C143.857 595.264 132.808 599.791 117.64 617.412Z" fill="#A4A66A"/>
<mask id="mask14_156_2975" style="mask-type:luminance" maskUnits="userSpaceOnUse" x="0" y="0" width="772" height="784">
<path d="M0 0H772V784H0V0Z" fill="black" fill-opacity="0.300003"/>
</mask>
<g mask="url(#mask14_156_2975)">
<mask id="mask15_156_2975" style="mask-type:luminance" maskUnits="userSpaceOnUse" x="117" y="594" width="32" height="24">
<path d="M117.64 594.125H148.706V617.412H117.64V594.125Z" fill="white"/>
</mask>
<g mask="url(#mask15_156_2975)">
<path d="M117.64 617.412C117.64 617.412 142.102 613.541 148.658 595.257C148.887 594.614 148.32 593.971 147.669 594.161C143.857 595.264 132.808 599.79 117.64 617.412Z" fill="black"/>
</g>
</g>
<path d="M142.229 600.103C142.307 600.201 141.047 601.328 138.93 603.043C136.813 604.758 133.833 607.055 130.474 609.487C127.109 611.93 123.99 614.031 121.674 615.465C119.358 616.898 117.857 617.663 117.796 617.553C117.724 617.437 119.105 616.475 121.319 614.907C123.803 613.125 126.717 611.036 129.937 608.721C133.152 606.4 136.059 604.299 138.538 602.51C140.751 600.936 142.151 599.999 142.229 600.103Z" fill="#263238"/>
<path d="M94.3046 663.129L87.1696 711.903H131.638L125.872 663.129H94.3046Z" fill="#3F4029"/>
<path d="M127.651 678.246C127.651 678.503 119.624 678.711 109.72 678.711C99.8172 678.711 91.7896 678.503 91.7896 678.246C91.7896 677.982 99.8172 677.774 109.72 677.774C119.624 677.774 127.651 677.982 127.651 678.246ZM128.532 682.123C128.532 682.386 120.239 682.595 110.016 682.595C99.787 682.595 91.494 682.386 91.494 682.123C91.494 681.866 99.787 681.657 110.016 681.657C120.239 681.657 128.532 681.866 128.532 682.123Z" fill="#263238"/>
</g>
<defs>
<clipPath id="clip0_156_2975">
<rect width="772" height="784" fill="white"/>
</clipPath>
</defs>
</svg>
